<svg xmlns="http://www.w3.org/2000/svg" width="78" height="87" viewBox="0 0 78 87">
    <g fill="none" fill-rule="evenodd">
        <path fill="#005752" d="M43.234 1.106L73.84 18.8C76.514 20.275 78 22.93 78 25.879V61.12c0 3.097-1.486 5.604-4.16 7.226L43.234 85.894c-2.674 1.475-5.794 1.475-8.32 0L4.16 68.347C1.486 66.725 0 64.217 0 61.12V25.88c0-2.95 1.486-5.604 4.16-7.078L34.914 1.106c2.526-1.475 5.646-1.475 8.32 0z"/>
        <path fill="#FFF" d="M44.472 49.608c0-2.88-2.304-4.368-5.424-4.368-.912 0-1.776.048-2.592.144v-4.512c.624.096 1.536.096 2.64.096 2.544 0 4.848-1.152 4.848-4.224 0-2.688-1.632-4.512-4.944-4.512-3.504 0-5.52 2.496-5.52 6.384l-5.808-.24c0-6.24 4.32-10.992 11.472-10.992 6.912 0 10.8 3.552 10.8 8.784 0 3.744-2.784 6.336-5.664 6.72 3.84.624 6.336 3.36 6.336 7.2 0 5.328-4.464 8.688-11.328 8.688-7.536 0-12.096-4.176-12.096-10.896l5.904.24c.144 3.888 2.496 5.808 6.192 5.808 2.976 0 5.184-1.488 5.184-4.32z"/>
    </g>
</svg>
