<svg xmlns="http://www.w3.org/2000/svg" xmlns:xlink="http://www.w3.org/1999/xlink" width="95" height="120" viewBox="0 0 95 120">
    <defs>
        <path id="a" d="M94.537 59.773C94.537 24.588 78.429 0 47.48 0 16.108 0 0 24.588 0 59.773 0 95.382 16.108 120 47.48 120c30.949 0 47.057-24.618 47.057-60.227z"/>
        <path id="c" d="M.616.297h35.048V46H.616z"/>
        <path id="e" d="M0 46h71V0H0z"/>
    </defs>
    <g fill="none" fill-rule="evenodd">
        <mask id="b" fill="#fff">
            <use xlink:href="#a"/>
        </mask>
        <use fill="#00D2C8" fill-rule="nonzero" xlink:href="#a"/>
        <g mask="url(#b)">
            <g transform="rotate(-20 147.898 67.012)">
                <g transform="translate(36)">
                    <mask id="d" fill="#fff">
                        <use xlink:href="#c"/>
                    </mask>
                    <path fill="#28283C" d="M19.604.297c-2.39 0-3.162 2.217-3.842 4.174-.734 2.11-1.74 5-4.441 6.952C1.214 18.8.998 23.134.769 27.723c-.02.432-.043.871-.075 1.324-.822 8.13 4.888 15.333 13.017 16.42 2.358.359 4.568.533 6.754.533 2.97 0 5.981-.33 9.205-1.01 3.183-.642 5.185-2.33 5.338-4.513.079-1.126-.373-2.412-1.166-3.468.89-1 1.422-2.212 1.491-3.276.074-1.119-.328-2.319-1.133-3.262 1.162-1.488 1.401-2.874 1.449-3.42.098-1.109-.291-2.268-1.065-3.178a4.933 4.933 0 0 0-.643-.629c.469-.823.577-1.58.598-1.971.163-3.01-2.74-4.617-5.554-4.86a84.635 84.635 0 0 0-5.532-.758c.155-.487.277-.936.371-1.282.037-.137.068-.253.095-.34.742-2.508 1.04-4.778.909-6.94C24.59 3.185 22.635.521 19.843.306c-.08-.006-.16-.01-.238-.01h-.001zm0 2.339l.058.001c2.043.158 2.722 2.941 2.823 4.596.125 2.072-.231 4.157-.818 6.138-.163.55-.514 2.057-1.069 3.13 0 0-.304 1.237.485 1.294a81.35 81.35 0 0 1 7.603.94c2.42.173 3.57 1.28 3.508 2.412-.051.95-.836 2.38-4.02 2.897v.188a45.13 45.13 0 0 1 2.396.119c1.87.143 2.833 1.443 2.74 2.496-.092 1.054-.922 2.84-3.46 4.192l-1.676.108v.03l2.399-.084c1.795.137 2.474 1.64 2.418 2.487-.056.849-.972 2.534-2.669 3.011-1.234.305-1.832.451-2.148.515v.1l1.927-.002c1.417.106 2.64 2.037 2.564 3.11-.075 1.074-1.447 1.978-3.48 2.388-3.032.639-5.854.96-8.72.96-2.084 0-4.193-.17-6.42-.51-6.842-.904-11.72-7.064-11.011-13.903.36-4.972-.518-8.501 9.666-15.933 5.486-3.966 5.1-10.681 6.904-10.68z" mask="url(#d)"/>
                </g>
                <mask id="f" fill="#fff">
                    <use xlink:href="#e"/>
                </mask>
                <path fill="#28283C" d="M-2 44h43V15H-2z" mask="url(#f)"/>
            </g>
        </g>
    </g>
</svg>
