<svg xmlns="http://www.w3.org/2000/svg" width="95" height="120" viewBox="0 0 95 120">
    <g fill="none" fill-rule="evenodd">
        <path fill="#32C864" fill-rule="nonzero" d="M94.537 59.773C94.537 24.588 78.429 0 47.48 0 16.108 0 0 24.588 0 59.773 0 95.382 16.108 120 47.48 120c30.949 0 47.057-24.618 47.057-60.227z"/>
        <path fill="#28283C" d="M65.763 78.008c-.761 1.078-6.516 3.39-17.72 3.39-11.205 0-16.96-2.312-17.72-3.39.76-1.079 6.515-3.39 17.72-3.39 11.204 0 16.959 2.311 17.72 3.39m14.488-25.37L48.133 36.161a1.448 1.448 0 0 0-1.326 0L14.69 52.638c-1.053.54-1.053 2.044 0 2.584l.133.068v7.477a2.167 2.167 0 0 0-1.6 2.087c0 .74.373 1.39.938 1.784l-1.47 8.08a2.749 2.749 0 0 0 2.705 3.242 2.749 2.749 0 0 0 2.705-3.241l-1.47-8.081a2.167 2.167 0 0 0 .938-1.784c0-1-.68-1.835-1.6-2.087v-6.89l12.594 6.462v15.62h.008c0 .018-.008.033-.008.049 0 2.821 8.721 5.108 19.48 5.108 10.758 0 19.481-2.287 19.481-5.108 0-.016-.009-.031-.009-.048h.01V61.75l12.726-6.528c1.052-.54 1.052-2.043 0-2.584"/>
    </g>
</svg>
