<svg width="35" height="35" viewBox="0 0 35 35" fill="none" xmlns="http://www.w3.org/2000/svg">
<path d="M34.5 17.5C34.5 26.8888 26.8888 34.5 17.5 34.5C8.11116 34.5 0.5 26.8888 0.5 17.5C0.5 8.11116 8.11116 0.5 17.5 0.5C26.8888 0.5 34.5 8.11116 34.5 17.5Z" fill="#32C864" stroke="#32C864"/>
<path d="M16.22 20.8799L18.22 19.2799C20.12 17.7599 21.68 16.3399 21.68 14.1199C21.68 11.8799 20.16 10.1599 17.16 10.1599C14.38 10.1599 12.52 11.8599 12.52 14.4999C12.52 14.8799 12.58 15.2799 12.66 15.6799L15.14 15.7799C15.04 15.4399 15 15.0999 15 14.6799C15 13.2199 15.7 12.2599 17.1 12.2599C18.46 12.2599 19.06 13.0999 19.06 14.2599C19.06 15.7799 17.98 16.7799 16.02 18.4199L12.5 21.3199V22.9999H22V20.8799H16.22Z" fill="white"/>
</svg>
