<svg xmlns="http://www.w3.org/2000/svg" width="86" height="86" viewBox="0 0 86 86">
    <g fill="none" fill-rule="evenodd">
        <rect width="86" height="86" fill="#2D938E" rx="40.4"/>
        <path fill="#FFF" d="M40.34 52.112h13.872V57.2h-22.8v-4.032l8.448-6.96c4.704-3.936 7.296-6.336 7.296-9.984 0-2.784-1.44-4.8-4.704-4.8-3.36 0-5.04 2.304-5.04 5.808 0 1.008.096 1.824.336 2.64l-5.952-.24c-.192-.96-.336-1.92-.336-2.832 0-6.336 4.464-10.416 11.136-10.416 7.2 0 10.848 4.128 10.848 9.504 0 5.328-3.744 8.736-8.304 12.384l-4.8 3.84z"/>
    </g>
</svg>
