<svg width="35" height="35" viewBox="0 0 35 35" fill="none" xmlns="http://www.w3.org/2000/svg">
<path d="M34.5 17.5C34.5 26.8888 26.8888 34.5 17.5 34.5C8.11116 34.5 0.5 26.8888 0.5 17.5C0.5 8.11116 8.11116 0.5 17.5 0.5C26.8888 0.5 34.5 8.11116 34.5 17.5Z" fill="#FBB231" stroke="#FBB231"/>
<path d="M19.56 20.4199C19.56 21.5999 18.64 22.2199 17.4 22.2199C15.86 22.2199 14.88 21.4199 14.82 19.7999L12.36 19.6999C12.36 22.4999 14.26 24.2399 17.4 24.2399C20.26 24.2399 22.12 22.8399 22.12 20.6199C22.12 19.0199 21.08 17.8799 19.48 17.6199C20.68 17.4599 21.84 16.3799 21.84 14.8199C21.84 12.6399 20.22 11.1599 17.34 11.1599C14.36 11.1599 12.56 13.1399 12.56 15.7399L14.98 15.8399C14.98 14.2199 15.82 13.1799 17.28 13.1799C18.66 13.1799 19.34 13.9399 19.34 15.0599C19.34 16.3399 18.38 16.8199 17.32 16.8199C16.86 16.8199 16.48 16.8199 16.22 16.7799V18.6599C16.56 18.6199 16.92 18.5999 17.3 18.5999C18.6 18.5999 19.56 19.2199 19.56 20.4199Z" fill="white"/>
</svg>
