<svg width="35" height="35" viewBox="0 0 35 35" fill="none" xmlns="http://www.w3.org/2000/svg">
<path d="M34.5 17.5C34.5 26.8888 26.8888 34.5 17.5 34.5C8.11116 34.5 0.5 26.8888 0.5 17.5C0.5 8.11116 8.11116 0.5 17.5 0.5C26.8888 0.5 34.5 8.11116 34.5 17.5Z" fill="#00D2C8" stroke="#00D2C8"/>
<path d="M22.7 11.2727H22.05V10H20.75V11.2727H14.25V10H12.95V11.2727H12.3C11.585 11.2727 11 11.8455 11 12.5455V22.7273C11 23.4273 11.585 24 12.3 24H22.7C23.415 24 24 23.4273 24 22.7273V12.5455C24 11.8455 23.415 11.2727 22.7 11.2727ZM22.7 22.7273H12.3V14.4545H22.7V22.7273Z" fill="white"/>
</svg>
