<svg xmlns="http://www.w3.org/2000/svg" width="137" height="74" viewBox="0 0 137 74">
    <g fill="none" fill-rule="evenodd">
        <path stroke="#28283C" stroke-linecap="round" stroke-linejoin="round" stroke-width="2" d="M33 67h66V1H33zM33 12.5h66"/>
        <path fill="#28283C" d="M39.215 6.133c0 .627-.504 1.134-1.124 1.134-.62 0-1.124-.507-1.124-1.134 0-.626.503-1.133 1.124-1.133.62 0 1.124.507 1.124 1.133M43.71 6.133c0 .627-.503 1.134-1.123 1.134s-1.124-.507-1.124-1.134c0-.626.503-1.133 1.124-1.133.62 0 1.124.507 1.124 1.133M48.207 6.133c0 .627-.504 1.134-1.124 1.134-.62 0-1.124-.507-1.124-1.134 0-.626.503-1.133 1.124-1.133.62 0 1.124.507 1.124 1.133"/>
        <path fill="#BEF0DC" d="M86.421 73h49.28s2.143-10.802-8.57-10.802c0 0-2.534-9.32-14.999-6.481 0 0-1.204-6.338-9.225-6.338-9.545 0-10.058 14.98-10.058 14.98s-6.428 0-6.428 8.641"/>
        <path stroke="#28283C" stroke-linecap="round" stroke-linejoin="round" stroke-width="2" d="M86.421 73h49.28s2.143-10.802-8.57-10.802c0 0-2.534-9.32-14.999-6.481 0 0-1.204-6.338-9.225-6.338-9.545 0-10.058 14.98-10.058 14.98s-6.428 0-6.428 8.641z"/>
        <path fill="#BEF0DC" d="M1 58.267h42.56s1.85-9.329-7.402-9.329c0 0-2.189-8.049-12.953-5.598 0 0-1.04-5.473-7.968-5.473-8.243 0-8.686 12.937-8.686 12.937S1 50.804 1 58.267"/>
        <path stroke="#28283C" stroke-linecap="round" stroke-linejoin="round" stroke-width="2" d="M1 58.267h42.56s1.85-9.329-7.402-9.329c0 0-2.189-8.049-12.953-5.598 0 0-1.04-5.473-7.968-5.473-8.243 0-8.686 12.937-8.686 12.937S1 50.804 1 58.267z"/>
    </g>
</svg>
