<svg width="407" height="275" viewBox="0 0 407 275" fill="none" xmlns="http://www.w3.org/2000/svg">
<path d="M209.182 160.835C227 94.3362 209.003 39.7239 150.509 24.0505C91.196 8.15759 48.304 46.4547 30.4856 112.954C12.4477 180.272 30.4447 234.884 89.758 250.777C148.252 266.451 191.144 228.154 209.182 160.835Z" fill="#FADCDC"/>
<g opacity="0.5">
<path opacity="0.5" d="M100.587 155.652L97.5122 168.137C97.5122 168.137 112.64 172.191 112.927 171.119C113.214 170.048 115.552 159.054 115.552 159.054L100.587 155.652Z" fill="#28283C"/>
<path opacity="0.5" d="M144.031 151.35L129.444 151.833L123.692 156.912L127.22 172.99L144.116 171.707L144.031 151.35Z" fill="#28283C"/>
</g>
<path d="M102.063 104.503C100.944 105.149 99.9466 106.098 99.2137 107.32C98.0429 109.168 97.3257 111.34 97.1634 113.459C97.0226 115.245 97.9792 116.717 99.555 117.14C101.194 117.579 103.423 116.825 105.062 113.481C105.964 111.628 106.206 109.464 105.636 107.555C105.172 106.011 103.694 104.467 102.063 104.503Z" fill="#28283C"/>
<path d="M135.144 115.934C135.564 116.384 136.178 116.616 136.985 116.63C139.406 116.67 141.326 113.537 141.98 111.348C142.707 108.637 142.231 105.875 140.615 104.091C140.552 104.074 140.489 104.057 140.426 104.04C140.362 104.023 140.363 104.023 140.299 104.006C139.417 103.77 138.639 103.899 137.886 104.441C135.707 106.019 134.478 110.351 134.312 112.738C134.255 114.209 134.506 115.29 135.144 115.934Z" fill="#28283C"/>
<path d="M170.664 104.643C170.618 104.563 170.588 104.42 170.336 104.353C168.651 103.834 163.823 105.715 160.942 107.645C161.142 108.915 161.388 110.265 161.589 111.534C162.838 110.653 164.197 109.869 165.492 109.067C168.05 107.591 170.99 105.947 170.664 104.643Z" fill="#28283C"/>
<path d="M162.15 179.783L161.979 150.418C172.466 140.527 178.414 126.65 178.355 112.244C178.317 102.303 175.482 92.9635 170.565 85.0929C172.076 83.7412 173.086 81.9853 173.404 80.0437C173.857 77.5978 173.187 75.0539 171.454 72.6979C170.124 70.8551 167.725 69.4693 164.321 68.5573C162.367 68.0337 160.661 67.8467 160.14 67.7746C158.61 67.4323 156.42 67.7912 155.506 69.4379C147.101 63.7405 136.933 60.3403 126.025 60.4576C112.094 60.5081 99.0695 66.0033 89.2635 75.874C79.4576 85.7447 74.1245 98.8406 74.1751 112.771C74.1702 116.823 74.6573 120.804 75.59 124.635C74.989 124.609 74.4003 124.789 73.9039 125.129C72.7681 125.838 72.1106 127.283 71.9203 128.246C71.435 129.805 69.62 136.074 72.1084 139.646C73.2834 141.312 74.8625 142.478 76.6904 142.968C78.7705 143.525 81.1669 143.154 83.291 142.034C85.1458 144.693 87.2403 147.213 89.5746 149.595C92.4548 152.461 95.5961 154.857 98.885 156.954L93.7506 176.116C92.0273 175.992 90.1779 175.834 88.2487 175.723L87.8536 175.684C87.2064 175.578 86.6131 176.027 86.5073 176.675L85.8169 181.016L77.0057 181.628C77.0563 181.439 77.1239 181.186 77.1115 180.98C76.9945 180.409 76.5578 180.021 76.0198 180.012L70.1813 179.867C69.9629 179.673 69.6647 179.526 69.3788 179.584L66.2597 179.627C65.5787 179.647 65.0947 180.193 65.1318 180.811L65.6726 213.586C65.6512 213.918 65.7896 214.158 66.0541 214.431C66.2263 214.545 66.3985 214.659 66.5876 214.709C66.7137 214.743 66.7767 214.76 66.9197 214.731L69.9127 214.654C70.1817 214.659 70.4507 214.663 70.5768 214.697C71.0518 214.689 71.4514 214.459 71.6326 214.034L71.9107 213.501C73.7649 209.606 77.1153 202.397 78.445 197.687C78.5633 197.246 78.4755 196.817 78.148 196.526C78.148 196.526 78.148 196.526 78.085 196.509C78.2155 196.274 78.3292 196.102 78.4598 195.867C78.8561 194.892 81.0849 194.138 83.8303 193.725L83.7582 194.246C83.6737 194.561 83.7953 194.864 83.9337 195.104C84.0721 195.344 84.3074 195.474 84.5595 195.542C84.6225 195.559 84.6225 195.559 84.6856 195.576C84.8116 195.609 86.2321 195.855 88.5227 196.131L88.016 198.022C87.8471 198.652 88.2162 199.292 88.8466 199.46L90.7375 199.967C90.1946 204.01 89.4177 206.91 88.6713 208.939C88.4698 208.682 88.1885 208.472 87.8564 208.451C87.3353 208.378 86.8219 208.781 86.6238 209.269L84.8685 214.811C84.6287 214.949 84.4182 215.231 84.3507 215.483L83.54 218.509C83.3711 219.139 83.7402 219.778 84.3705 219.947L116.139 228.459C116.769 228.628 117.408 228.259 117.577 227.629L118.422 224.477C118.456 224.351 118.552 224.242 118.603 224.053C118.721 223.612 118.571 223.166 118.243 222.875L117.743 222.471C114.514 219.647 108.493 214.385 104.309 211.846C104.137 211.732 103.948 211.681 103.805 211.711C103.44 210.802 102.972 208.515 103.642 203.492L104.525 203.729C105.155 203.898 105.794 203.529 105.963 202.898L107.433 197.415C124.276 197.334 135.134 193.623 140.566 185.958C145.446 179.091 145.963 171.866 144.773 165.466L160.202 180.748C160.358 180.925 160.547 180.975 160.736 181.026C160.988 181.093 161.257 181.098 161.497 180.96C161.833 180.712 162.157 180.258 162.15 179.783ZM68.0196 212.391L67.4887 181.847L68.2957 181.861C68.4157 186.96 69.0094 207.184 69.0957 212.409L68.0196 212.391ZM76.3427 194.691C73.8869 192.007 73.1115 190.11 73.1151 187.071C73.1209 185.789 73.5171 184.814 74.1318 184.033L74.1948 184.05L85.4948 183.227L85.1265 185.357L84.1738 191.182C80.9995 191.683 77.4381 192.62 76.3427 194.691ZM89.0846 193.782C87.8993 193.667 86.8739 193.46 86.2098 193.417L88.7167 178.01C90.3139 178.1 91.7682 178.219 93.2225 178.339L89.0846 193.782V193.782ZM159.801 70.0483C159.801 70.0483 167.135 70.6624 169.611 74.0282C172.473 77.9703 171.283 81.9075 168.065 84.0853C168.065 84.0853 163.934 86.8967 162.96 85.4873C162.557 84.974 162.962 84.4743 163.883 83.3026C162.193 84.0656 160.59 85.2575 159.801 84.1679C159.306 83.4947 160.564 82.0754 161.276 81.1851C161.276 81.1851 157.334 84.0472 156.452 82.7977C155.663 81.7081 157.249 80.5792 158.789 79.3705C156.926 80.0198 156.136 79.9432 155.733 79.4299C155.146 78.5969 156.85 77.0268 157.763 76.3932L161.621 73.8463C154.554 70.4666 158.523 69.7736 159.801 70.0483ZM146.577 105.283C147.115 105.292 147.534 105.742 147.588 106.297C147.611 108.735 147.822 111.224 148.336 113.591C148.587 114.672 148.855 115.689 149.539 116.413C150.114 117.04 151.312 117.361 151.809 117.021C154.337 115.402 153.594 104.056 153.108 102.844C152.911 102.319 153.126 101.768 153.588 101.554C154.051 101.341 154.681 101.51 154.878 102.035C155.658 103.663 156.681 116.233 152.904 118.733C152.087 119.258 151.137 119.273 150.192 119.02C149.373 118.801 148.604 118.392 148.075 117.845C147.063 116.831 146.691 115.447 146.381 114.081C145.838 111.571 145.534 108.922 145.562 106.295C145.571 105.757 146.039 105.274 146.577 105.283ZM136.693 102.837C137.942 101.956 139.435 101.68 140.931 102.149C140.931 102.149 140.931 102.149 140.994 102.166C141.263 102.17 141.578 102.255 141.796 102.448C144.085 104.75 144.862 108.404 143.916 111.934C143.19 114.644 140.684 118.702 136.981 118.655C136.506 118.663 136.048 118.608 135.67 118.507C134.913 118.304 134.207 117.912 133.695 117.302C132.7 116.225 132.253 114.619 132.364 112.689C132.489 109.953 133.777 104.894 136.693 102.837ZM124.081 174.109C121.816 177.015 117.578 177.704 112.69 177.543L116.405 163.675C118.662 164.077 121.016 164.37 123.34 164.52C125.022 168.078 125.816 171.669 124.081 174.109ZM79.7225 106.691C79.3489 106.321 79.3287 105.64 79.7621 105.283C80.3891 104.708 81.0161 104.133 81.7354 103.717C81.723 103.511 81.6645 103.225 81.6521 103.019C81.5982 102.465 81.9393 101.948 82.4942 101.894C82.9861 101.823 83.4397 102.147 83.5736 102.656C84.8985 101.998 86.3156 101.499 87.7913 101.287C89.7758 100.94 90.683 101.588 91.1151 102.245C91.9041 103.334 91.5618 104.864 90.2064 106.393C89.6255 107.048 88.9817 107.686 88.3378 108.324C88.9895 108.161 89.6243 108.061 90.3391 107.914C90.688 107.873 91.3229 107.773 91.9194 108.068C92.4698 108.283 92.8266 108.716 92.9436 109.288C93.2283 110.242 92.8613 111.36 92.4065 112.049C90.3722 115.355 87.154 117.532 84.1923 119.509C84.1709 119.841 84.1326 120.236 84.1742 120.585C84.1652 121.123 83.6519 121.526 83.1138 121.517C83.0508 121.5 82.9878 121.483 82.9247 121.466C82.4835 121.348 82.1267 120.914 82.1819 120.456C82.2157 120.33 82.1864 120.187 82.2371 119.998C81.7036 119.72 81.5404 119.068 81.8185 118.535C81.9491 118.3 82.1258 118.144 82.3656 118.006C82.4096 116.329 82.4537 114.651 82.4178 113.02L82.3379 113.067C81.8584 113.343 81.2911 113.191 80.9973 112.775C80.7205 112.295 80.8094 111.711 81.289 111.434C81.3858 111.325 81.5287 111.296 81.6255 111.187C81.8653 111.048 82.122 110.847 82.3617 110.709C82.2921 109.204 82.1594 107.682 82.0267 106.16C81.7531 106.424 81.4335 106.609 81.1599 106.873C80.7603 107.104 80.1592 107.078 79.7225 106.691ZM83.4669 139.109C80.4039 141.463 76.444 141.618 74.0941 138.286C72.0379 135.371 74.2525 128.871 74.2525 128.871C74.4473 127.639 76.5277 124.413 76.9357 131.211L80.5919 128.407C81.5217 127.711 83.5028 126.62 83.9981 127.293C84.3379 127.79 84.0891 128.466 82.8137 129.948C84.4459 128.9 86.032 127.771 86.6656 128.684C87.4546 129.773 83.4663 132.555 83.4663 132.555C84.5177 132.162 86.2253 131.335 86.6743 131.929C87.308 132.842 85.7219 133.97 84.3542 135.293C85.7083 134.778 86.3139 134.534 86.6077 134.951C87.4428 136.121 83.4669 139.109 83.4669 139.109ZM106.834 114.428C104.639 118.84 101.3 119.701 99.0312 119.093C96.5729 118.435 94.9826 116.049 95.1708 113.33C95.3545 110.88 96.1562 108.392 97.5206 106.326C98.4471 104.885 99.6549 103.655 100.934 102.916C101.047 102.744 101.27 102.669 101.413 102.64C102.116 102.287 102.864 102.015 103.642 101.886C104.197 101.832 104.714 102.173 104.767 102.728C104.78 102.934 104.792 103.14 104.662 103.375C106.056 104.221 107.03 105.631 107.511 107.111C108.248 109.403 107.934 112.088 106.834 114.428ZM111.402 105.451C111.394 104.976 111.701 104.586 112.067 104.481C112.513 104.33 112.937 104.511 113.185 104.848L120.238 115.588C119.873 110.896 119.509 106.205 119.208 101.53C119.154 100.975 119.621 100.492 120.159 100.501C120.714 100.447 121.197 100.915 121.188 101.453C121.505 107.077 121.948 112.736 122.471 118.348C122.495 118.76 122.251 119.167 121.931 119.352C121.229 119.704 120.38 119.342 119.621 118.395L113.524 109.127C113.722 112.423 114.069 117.178 114.613 119.688C114.747 120.197 114.389 120.776 113.88 120.91C113.737 120.94 113.531 120.952 113.405 120.918C113.09 120.834 112.762 120.543 112.658 120.177C111.768 115.683 111.426 105.863 111.402 105.451ZM90.543 197.415L101.082 158.083C105.144 160.32 109.547 162.04 114.056 163.114L103.906 200.996L90.543 197.415V197.415ZM115.853 224.735L115.566 225.806L86.067 217.902L86.2697 217.146C91.14 218.383 110.731 223.43 115.853 224.735ZM101.622 212.544C97.9165 214.524 95.806 214.837 92.6544 213.992C91.3307 213.638 90.4111 212.783 89.8236 211.95C90.856 209.862 92.0877 206.274 92.9437 200.558L101.327 202.805C100.555 208.205 100.998 211.093 101.622 212.544ZM120.124 133.663C118.842 133.657 117.484 133.428 116.224 133.091C113.45 132.347 111.098 131.042 110.447 130.192C110.09 129.758 110.196 129.111 110.676 128.834C111.109 128.477 111.756 128.583 112.05 129C112.436 129.576 116.326 131.699 120.126 131.637C122.232 131.593 123.763 130.922 124.736 129.561C127.944 125.152 127.74 112.802 125.945 102.862C125.828 102.29 126.232 101.791 126.724 101.72C127.295 101.603 127.795 102.007 127.866 102.499C129.24 110.231 130.513 124.894 126.315 130.728C124.984 132.668 122.831 133.645 120.124 133.663ZM138.596 184.484C133.716 191.351 123.67 194.807 107.965 194.923L112.002 179.858C117.823 180.067 122.948 179.346 125.942 175.486C128.097 172.483 127.547 168.485 125.887 164.595C126.093 164.582 126.362 164.587 126.552 164.638C131.697 164.598 136.696 163.843 141.548 162.373C143.575 168.929 143.914 176.991 138.596 184.484ZM163.874 126.199C163.731 126.229 163.525 126.241 163.336 126.19C163.021 126.106 162.756 125.832 162.652 125.466C161.225 119.95 160.038 114.295 159.074 108.564C158.885 108.513 158.633 108.446 158.477 108.269C158.121 107.836 158.146 107.235 158.58 106.878C158.66 106.832 158.677 106.769 158.74 106.786C158.681 106.5 158.64 106.151 158.581 105.865C158.527 105.31 158.868 104.793 159.423 104.739C159.978 104.685 160.432 105.01 160.566 105.518C163.636 103.639 168.355 101.66 170.906 102.479C171.771 102.778 172.363 103.342 172.539 104.2C173.237 106.887 169.944 108.842 166.507 110.826C165.531 111.443 164.509 111.98 163.533 112.596C166.643 113.092 169.787 113.461 172.901 113.688C173.439 113.697 173.842 114.21 173.833 114.748C173.824 115.286 173.311 115.689 172.773 115.68C169.183 115.461 165.582 115.037 162.047 114.36C162.779 117.934 163.59 121.462 164.481 124.943C164.741 125.486 164.383 126.065 163.874 126.199Z" fill="#28283C"/>
<path d="M80.9286 123.632L77.4486 105.607L83.2407 95.3367C83.2407 95.3367 121.578 94.4621 122.523 94.7154C123.469 94.9688 155.604 98.5802 156.348 98.5769C157.155 98.5905 172.517 100.004 172.517 100.004C172.517 100.004 176.948 106.664 176.775 107.563C176.601 108.463 176.153 118.206 176.153 118.206L172.58 128.26L165.491 133.792L142.483 138.977L125.879 138.919L110.696 135.324L80.9286 123.632Z" fill="#28283C"/>
<path d="M93.1841 101.583C94.2348 108.755 94.8105 115.935 94.8144 123.233C94.8086 124.515 96.7717 124.5 96.7774 123.218C96.7443 115.778 96.2193 108.409 95.0763 101.076C94.8761 99.8067 92.9839 100.313 93.1841 101.583Z" fill="#FADCDB"/>
<path d="M93.6841 113.337C97.5426 113.561 101.435 113.658 105.315 113.549C106.551 113.475 106.599 111.529 105.3 111.586C101.42 111.695 97.5743 111.677 93.6696 111.374C92.4843 111.259 92.4988 113.223 93.6841 113.337Z" fill="#FADCDB"/>
<path d="M105.244 98.9371C105.742 107.921 106.176 116.887 106.674 125.871C106.749 127.106 108.712 127.092 108.637 125.856C108.14 116.873 107.705 107.906 107.207 98.9226C107.133 97.6867 105.17 97.7011 105.244 98.9371Z" fill="#FADCDB"/>
<path d="M111.643 106.056C111.682 108.432 111.659 110.79 111.698 113.165C111.695 115.191 111.402 117.544 111.749 119.529C112.313 122.72 117.308 121.221 119.494 121.131C120.73 121.057 120.716 119.094 119.48 119.168C118.118 119.209 116.003 119.79 114.742 119.453C113.246 118.984 113.665 116.664 113.642 115.239C113.645 112.2 113.586 109.144 113.589 106.105C113.612 104.76 111.649 104.774 111.643 106.056Z" fill="#FADCDB"/>
<path d="M113.026 114.264C114.989 114.249 116.969 114.172 118.932 114.157C120.151 114.146 120.199 112.2 118.917 112.194C116.954 112.209 114.974 112.286 113.011 112.301C111.729 112.295 111.744 114.258 113.026 114.264Z" fill="#FADCDB"/>
<path d="M112.532 107.038C115.016 107.095 117.437 107.136 119.921 107.193C121.203 107.199 121.172 105.299 119.907 105.23C117.422 105.173 115.001 105.132 112.517 105.074C111.252 105.006 111.266 106.969 112.532 107.038Z" fill="#FADCDB"/>
<path d="M125.716 97.6666C125.202 105.636 124.625 113.588 124.111 121.557C124 123.487 122.725 127.739 124.089 129.456C125.344 131.076 129.233 130.429 130.973 130.49C132.238 130.558 132.224 128.595 130.959 128.527C130.232 128.467 126.238 128.748 125.835 128.235C125.34 127.561 125.791 126.129 125.805 125.321C126.031 122.207 126.212 119.013 126.438 115.898C126.858 109.795 127.26 103.755 127.679 97.6521C127.811 96.4038 125.848 96.4183 125.716 97.6666Z" fill="#FADCDB"/>
<path d="M135.057 97.602C133.656 105.604 133.125 113.636 133.384 121.745C133.375 122.283 133.812 122.67 134.35 122.679C136.468 122.841 138.54 122.924 140.659 123.086C141.924 123.155 141.91 121.192 140.644 121.123C138.526 120.961 136.454 120.878 134.335 120.716C134.663 121.007 134.974 121.36 135.301 121.65C134.991 113.731 135.551 105.841 136.901 98.0287C137.142 96.8772 135.251 96.3706 135.057 97.602Z" fill="#FADCDB"/>
<path d="M147.877 104.213C146.939 108.218 146.522 112.294 146.105 116.371C145.794 119.801 145.369 123.403 146.803 126.625C147.428 128.075 149.001 130.524 150.872 130.349C153.218 130.167 155.353 126.483 156.158 124.74C157.633 121.757 158.482 118.337 159.217 115.088C159.936 111.903 160.663 108.179 159.704 104.95C158.285 99.9083 152.124 99.2031 149.361 103.462C148.679 104.495 150.372 105.489 151.054 104.456C152.322 102.499 154.916 101.64 156.831 103.572C157.796 104.506 158.021 106.188 158.096 107.424C158.261 109.833 157.888 112.232 157.326 114.582C156.456 118.334 155.513 122.608 153.307 125.8C151.538 128.366 149.495 128.427 148.331 125.21C147.543 123.107 147.693 120.783 147.826 118.521C148.189 113.89 148.694 109.229 149.721 104.64C150.025 103.505 148.134 102.998 147.877 104.213Z" fill="#FADCDB"/>
<path d="M394.062 98.6865L318.804 117.709L322.427 124.955L244.904 163.754L251.018 187.91L406.668 148.657L394.062 98.6865Z" fill="#FADCDC"/>
<path d="M299.397 78.9414L192.669 132.347L215.707 178.386L322.434 124.981L299.397 78.9414Z" fill="#FAAA1E"/>
<path d="M233.657 161.111C224.146 165.867 213.352 162.621 208.294 152.506C203.237 142.391 207.087 131.823 216.598 127.067C226.184 122.236 236.979 125.558 242.036 135.673C247.094 145.788 243.244 156.355 233.657 161.111ZM220.07 134.012C214.786 136.654 213.352 142.391 216.447 148.505C219.466 154.619 224.901 156.884 230.185 154.242C235.545 151.524 236.903 145.863 233.884 139.749C230.865 133.635 225.43 131.295 220.07 134.012Z" fill="#822D50"/>
<path d="M269.06 126.237L259.247 106.536L266.493 102.912L282.949 135.748L276.608 138.919L250.944 125.558L261.36 146.467L254.038 150.09L237.658 117.33L245.282 113.556L269.06 126.237Z" fill="#822D50"/>
<path d="M313.521 120.425L288.234 133.106L271.778 100.27L296.612 87.8154L299.858 94.3071L282.799 102.837L286.044 109.329L299.33 102.686L302.5 109.102L289.215 115.745L292.687 122.689L310.275 113.933L313.521 120.425Z" fill="#822D50"/>
<path d="M270.872 150.77V161.942L270.721 162.017L265.89 153.261L259.171 156.658L269.513 174.85L276.835 173.038L277.439 147.524L270.872 150.77Z" fill="#822D50"/>
<path d="M249.736 161.413L254.114 178.775L261.964 176.737L257.209 157.639L249.736 161.413Z" fill="#822D50"/>
<path d="M365.304 141.938C363.87 137.862 361.152 136.201 357.151 136.428C361.379 134.767 363.87 130.616 362.511 125.407C360.775 118.538 355.189 115.443 345.98 117.708L328.769 122.01L337.752 157.564L346.206 155.45L343.111 143.071L350.282 141.259C353.83 140.353 355.944 141.183 357.302 145.109C358.51 148.807 359.567 150.996 360.548 151.827L369.229 149.638C367.719 148.732 367.115 147.071 365.304 141.938ZM348.848 134.692L341.451 136.579L339.035 126.841L346.433 124.954C350.886 123.822 353.528 125.03 354.358 128.2C355.189 131.748 353.302 133.56 348.848 134.692Z" fill="#822D50"/>
<path d="M278.269 147.071L284.308 171.151L292.913 168.962L286.346 143.071L278.269 147.071Z" fill="#822D50"/>
<path d="M399.046 134.692L380.023 139.523L378.061 131.974L392.478 128.351L390.742 121.407L376.325 125.03L374.588 118.085L393.082 113.405L391.346 106.31L364.398 113.103L373.381 148.732L400.782 141.787L399.046 134.692Z" fill="#822D50"/>
<path d="M317.446 127.445L292.536 139.9C291.706 142.995 291.63 146.467 292.536 150.091C295.329 161.036 305.067 166.546 315.408 163.98C325.825 161.338 331.788 151.827 329.071 140.882C327.41 134.163 323.032 129.483 317.446 127.445ZM313.596 156.507C307.86 157.941 303.104 154.544 301.368 147.902C299.707 141.259 302.274 136.051 308.011 134.541C313.823 133.107 318.578 136.503 320.239 143.146C321.975 149.713 319.409 154.997 313.596 156.507Z" fill="#822D50"/>
</svg>
