<svg xmlns="http://www.w3.org/2000/svg" width="110" height="75" viewBox="0 0 110 75">
    <g fill="none" fill-rule="evenodd">
        <path fill="#BEF0DC" d="M23.355 55.161L21 49.274l1.177-5.887 2.355-2.355-1.177-4.71 1.177-4.71 2.355-2.354v-3.532l1.178-4.71 3.532-3.532 1.177-1.178 1.178-3.532 2.354-3.532 7.065-2.355 2.355-4.71L51.613 1 57.5 5.71 62.21 1l7.064 1.177 3.532 4.71 5.888 2.355 3.532 4.71-1.178 3.532 5.887 3.532 1.178 3.532v4.71l3.532 3.532v4.71l-1.177 3.532L94 46.92v4.71l-1.177 2.355-1.178 2.355-1.177 4.71-2.355 3.532h-4.71l-1.177 3.532-3.532 3.532h-4.71l-2.355-1.177-2.355 2.355L64.564 74l-3.532-1.177L57.5 69.29l-2.355 2.355-3.532 1.178L49.258 74l-4.71-1.177-1.177-2.355-4.71 1.177-3.532-1.177-2.355-3.533-2.355-2.354-3.532-1.178-2.355-2.355-1.177-2.354z"/>
        <path fill="#000" d="M48.993 75c-2.636 0-5.146-1.274-6.812-3.394a8.364 8.364 0 0 1-3.967.998c-3.881 0-7.28-2.737-8.44-6.646-4.648-.28-8.35-4.445-8.35-9.526 0-.361.018-.726.056-1.089-1.647-1.792-2.548-4.145-2.548-6.698 0-2.904 1.236-5.635 3.289-7.4a10.024 10.024 0 0 1-1.099-4.623c0-3.21 1.562-6.218 4.06-7.968a10.05 10.05 0 0 1-.58-3.326c0-4.405 2.79-8.173 6.663-9.246a10.285 10.285 0 0 1-.008-.381c0-5.26 3.988-9.54 8.89-9.54.179 0 .353.005.523.016C41.934 2.486 45.21 0 48.993 0c4.877 0 8.847 4.26 8.847 9.497 0 .71-.579 1.284-1.29 1.284-.71 0-1.288-.574-1.288-1.284 0-3.82-2.813-6.93-6.269-6.93-2.941 0-5.462 2.186-6.127 5.315a1.294 1.294 0 0 1-1.6.973 4.336 4.336 0 0 0-1.12-.127c-3.48 0-6.312 3.128-6.312 6.973 0 .433.04.865.08 1.297a1.283 1.283 0 0 1-1.122 1.389c-3.2.398-5.615 3.382-5.615 6.94a7.64 7.64 0 0 0 .774 3.295 1.28 1.28 0 0 1-.569 1.697c-2.237 1.15-3.683 3.626-3.683 6.303 0 1.545.432 2.976 1.287 4.252a1.281 1.281 0 0 1-.382 1.795c-1.91 1.207-3.094 3.497-3.094 5.976 0 2.077.787 3.965 2.217 5.315.31.293.454.722.384 1.143a8.02 8.02 0 0 0-.11 1.329c0 3.886 2.876 7.006 6.375 6.973a.777.777 0 0 0 .103-.005c.699-.119 1.448.323 1.574 1.02.587 3.253 3.178 5.616 6.161 5.616 1.263 0 2.47-.407 3.582-1.21a1.294 1.294 0 0 1 1.874.4c1.137 1.98 3.178 3.206 5.323 3.206 3.456 0 6.269-3.127 6.269-6.973 0-.708.576-1.284 1.289-1.284.71 0 1.289.576 1.289 1.284 0 5.261-3.97 9.541-8.847 9.541"/>
        <path fill="#000" d="M56.55 66.743c-.71 0-1.289-.574-1.289-1.284V9.497c0-.708.58-1.282 1.29-1.282.71 0 1.289.574 1.289 1.282v55.962c0 .71-.579 1.284-1.29 1.284M37.056 32.687a1.29 1.29 0 0 1-1.082-.585c-1.84-2.82-5.65-3.65-8.491-1.84a1.292 1.292 0 0 1-1.778-.394 1.278 1.278 0 0 1 .394-1.772c4.027-2.56 9.426-1.39 12.036 2.608a1.28 1.28 0 0 1-.378 1.774 1.29 1.29 0 0 1-.7.209M30.783 65.93a1.288 1.288 0 0 1-1.275-1.108 1.285 1.285 0 0 1 1.101-1.448 6.043 6.043 0 0 0 4.025-2.372 6.072 6.072 0 0 0 1.187-4.523 1.286 1.286 0 0 1 1.101-1.448 1.295 1.295 0 0 1 1.452 1.097 8.612 8.612 0 0 1-1.681 6.417 8.613 8.613 0 0 1-5.732 3.373 1.507 1.507 0 0 1-.178.011"/>
        <path fill="#000" d="M56.55 42.484a1.29 1.29 0 0 1-1.218-.866c-.82-2.381-3.037-4.028-5.517-4.097a1.287 1.287 0 0 1-1.251-1.32c.021-.709.659-1.216 1.324-1.248 3.548.101 6.714 2.444 7.881 5.83a1.282 1.282 0 0 1-1.218 1.7M44.912 50.74c-7.337 0-13.408-5.464-14.122-12.708a1.287 1.287 0 0 1 1.157-1.403 1.283 1.283 0 0 1 1.407 1.152c.585 5.925 5.553 10.392 11.558 10.392.712 0 1.29.576 1.29 1.283 0 .71-.578 1.285-1.29 1.285"/>
        <path fill="#000" d="M29.582 49.544a1.283 1.283 0 0 1-.91-2.192 8.815 8.815 0 0 1 7.896-2.407 1.284 1.284 0 1 1-.489 2.521 6.249 6.249 0 0 0-5.587 1.703c-.25.25-.58.375-.91.375M49.98 66.871c-.71 0-1.289-.574-1.289-1.284 0-2.405-.77-4.816-2.168-6.79a1.281 1.281 0 0 1 .31-1.788 1.29 1.29 0 0 1 1.796.31 14.418 14.418 0 0 1 2.64 8.268c0 .71-.577 1.284-1.289 1.284M46.633 12.45c-.445 0-.876-.227-1.115-.637-.892-1.526-2.44-2.623-4.144-2.935a1.285 1.285 0 1 1 .464-2.524 8.646 8.646 0 0 1 5.906 4.167 1.282 1.282 0 0 1-1.111 1.929M49.55 28.152c-.178 0-.36-.037-.532-.117-4.162-1.883-7.181-5.665-8.073-10.113a1.283 1.283 0 0 1 1.01-1.512 1.29 1.29 0 0 1 1.516 1.008c.731 3.641 3.204 6.737 6.612 8.282a1.28 1.28 0 0 1 .64 1.699 1.287 1.287 0 0 1-1.174.753"/>
        <path fill="#000" d="M45.17 33.243a1.287 1.287 0 0 1-1.272-1.088 14.28 14.28 0 0 1 1.083-8.033 1.29 1.29 0 0 1 1.7-.653c.65.289.943 1.048.655 1.695a11.731 11.731 0 0 0-.893 6.598 1.283 1.283 0 0 1-1.274 1.48M64.151 75c-4.901 0-8.89-4.28-8.89-9.541 0-.708.579-1.284 1.29-1.284.711 0 1.289.576 1.289 1.284 0 3.846 2.83 6.973 6.311 6.973 2.146 0 4.186-1.227 5.325-3.206.184-.319.496-.545.857-.619.363-.072.74.01 1.035.23 1.033.774 2.282 1.199 3.52 1.199 3.007 0 5.616-2.363 6.203-5.617a1.292 1.292 0 0 1 1.58-1.018c.063.01.131.003.203.003 3.457 0 6.27-3.126 6.27-6.972 0-.442-.037-.89-.111-1.33-.07-.414.07-.837.373-1.13 1.417-1.374 2.229-3.315 2.229-5.327 0-2.464-1.202-4.752-3.137-5.975a1.283 1.283 0 0 1-.383-1.796c.882-1.317 1.33-2.748 1.33-4.252 0-2.677-1.446-5.152-3.683-6.303a1.283 1.283 0 0 1-.57-1.697 7.644 7.644 0 0 0 .774-3.294c0-3.56-2.431-6.544-5.654-6.941a1.28 1.28 0 0 1-1.11-1.503c.073-.393.109-.792.109-1.183 0-3.845-2.832-6.974-6.313-6.974a4.25 4.25 0 0 0-1.12.128 1.291 1.291 0 0 1-1.6-.973c-.665-3.129-3.184-5.314-6.127-5.314-3.48 0-6.311 3.109-6.311 6.929 0 .71-.577 1.284-1.29 1.284-.71 0-1.289-.574-1.289-1.284C55.261 4.26 59.25 0 64.151 0c3.784 0 7.06 2.486 8.322 6.177.171-.01.345-.016.525-.016 4.902 0 8.889 4.28 8.889 9.54 0 .13-.002.259-.01.389 3.878 1.085 6.666 4.844 6.666 9.238a10.05 10.05 0 0 1-.58 3.326c2.498 1.75 4.059 4.759 4.059 7.968 0 1.621-.383 3.171-1.138 4.623 2.076 1.776 3.329 4.506 3.329 7.4 0 2.475-.922 4.876-2.549 6.687.038.366.057.734.057 1.1 0 5.08-3.703 9.247-8.35 9.525-1.162 3.91-4.579 6.647-8.484 6.647a8.441 8.441 0 0 1-3.926-.992C69.293 73.73 66.784 75 64.15 75"/>
        <path fill="#000" d="M76.087 32.687a1.29 1.29 0 0 1-.7-.209 1.278 1.278 0 0 1-.377-1.774c2.636-4.04 7.92-5.19 12.03-2.612.602.377.783 1.17.404 1.77-.38.6-1.174.78-1.776.404-2.904-1.824-6.639-1.014-8.498 1.836a1.29 1.29 0 0 1-1.083.585M82.36 65.93c-.057 0-.116-.005-.175-.012a8.6 8.6 0 0 1-5.721-3.334 8.633 8.633 0 0 1-1.694-6.456c.099-.703.761-1.179 1.453-1.097a1.287 1.287 0 0 1 1.1 1.448 6.09 6.09 0 0 0 1.193 4.554 6.03 6.03 0 0 0 4.017 2.34 1.286 1.286 0 0 1 1.104 1.447 1.288 1.288 0 0 1-1.277 1.11M56.55 52.496a1.285 1.285 0 0 1-1.213-1.718 8.758 8.758 0 0 1 7.9-5.812c.644-.05 1.312.519 1.343 1.228a1.286 1.286 0 0 1-1.233 1.337 6.192 6.192 0 0 0-5.584 4.115 1.29 1.29 0 0 1-1.212.85M68.23 50.74c-.71 0-1.289-.573-1.289-1.284 0-.707.579-1.283 1.29-1.283 6.005 0 10.975-4.467 11.557-10.392.07-.704.69-1.222 1.408-1.152.71.07 1.226.697 1.158 1.403-.714 7.244-6.786 12.709-14.124 12.709"/>
        <path fill="#000" d="M83.52 49.544c-.335 0-.671-.13-.923-.388-1.4-1.43-3.526-2.078-5.532-1.69a1.284 1.284 0 1 1-.488-2.52c2.89-.555 5.836.347 7.863 2.418a1.28 1.28 0 0 1-.02 1.814c-.251.244-.577.366-.9.366M63.164 66.871c-.71 0-1.29-.574-1.29-1.284 0-2.93.94-5.868 2.643-8.269a1.285 1.285 0 0 1 1.795-.31c.582.41.72 1.21.309 1.79a11.865 11.865 0 0 0-2.168 6.789c0 .71-.578 1.284-1.29 1.284M66.512 12.45a1.28 1.28 0 0 1-1.113-1.929 8.646 8.646 0 0 1 5.906-4.167 1.284 1.284 0 0 1 .465 2.524c-1.703.312-3.252 1.409-4.143 2.934-.24.41-.671.638-1.115.638M63.42 33.2a1.29 1.29 0 0 1-.898-.364 1.28 1.28 0 0 1-.026-1.814c2.63-2.695 3.786-6.493 3.094-10.164a1.286 1.286 0 0 1 1.028-1.499 1.284 1.284 0 0 1 1.504 1.026c.846 4.488-.565 9.133-3.777 12.426-.252.26-.588.39-.924.39"/>
        <path fill="#000" d="M66.94 25.97a1.288 1.288 0 0 1-1.264-1.045 1.285 1.285 0 0 1 1.027-1.5c2.283-.432 4.347-1.471 5.966-3.006a1.29 1.29 0 0 1 1.822.046c.49.513.47 1.326-.046 1.815-1.978 1.875-4.49 3.143-7.263 3.667a1.303 1.303 0 0 1-.242.023"/>
        <path stroke="#28283C" stroke-linecap="round" stroke-linejoin="round" stroke-width="2.5" d="M91.86 11.719s7.058 4.687 4.705 14.062M2.465 39.844S.112 30.469 5.994 25.78M107.151 19.922s2.353 7.031-1.176 12.89M11.875 41.016s-4.705 5.859 0 11.718M97.741 37.5s5.882 4.688 4.705 12.89M14.227 28.125l1.177-2.344s-3.53-7.031 2.352-11.718"/>
    </g>
</svg>
