<svg width="405" height="275" viewBox="0 0 405 275" fill="none" xmlns="http://www.w3.org/2000/svg">
<path d="M209.182 160.835C227 94.3362 209.003 39.7239 150.509 24.0505C91.196 8.15759 48.304 46.4547 30.4856 112.954C12.4477 180.272 30.4447 234.884 89.758 250.777C148.252 266.451 191.144 228.154 209.182 160.835Z" fill="#FADCDC"/>
<g opacity="0.5">
<path opacity="0.5" d="M100.584 155.653L97.509 168.137C97.509 168.137 112.637 172.191 112.924 171.119C113.211 170.048 115.549 159.054 115.549 159.054L100.584 155.653Z" fill="#28283C"/>
<path opacity="0.5" d="M144.027 151.35L129.441 151.833L123.688 156.912L127.217 172.991L144.112 171.708L144.027 151.35Z" fill="#28283C"/>
</g>
<path d="M102.058 104.502C100.939 105.148 99.9417 106.097 99.2088 107.32C98.038 109.168 97.3208 111.34 97.1586 113.458C97.0177 115.245 97.9743 116.717 99.5501 117.139C101.189 117.579 103.418 116.825 105.057 113.481C105.959 111.628 106.201 109.463 105.631 107.554C105.167 106.011 103.689 104.467 102.058 104.502Z" fill="#28283C"/>
<path d="M135.137 115.932C135.556 116.383 136.17 116.615 136.977 116.628C139.398 116.669 141.319 113.535 141.973 111.346C142.699 108.636 142.223 105.874 140.607 104.089C140.544 104.072 140.481 104.056 140.418 104.039C140.355 104.022 140.355 104.022 140.292 104.005C139.409 103.768 138.631 103.898 137.878 104.439C135.699 106.017 134.471 110.349 134.304 112.737C134.247 114.208 134.498 115.289 135.137 115.932Z" fill="#28283C"/>
<path d="M170.66 104.644C170.614 104.564 170.584 104.421 170.332 104.353C168.647 103.834 163.819 105.716 160.938 107.646C161.138 108.916 161.384 110.265 161.585 111.535C162.834 110.654 164.193 109.869 165.488 109.068C168.046 107.592 170.986 105.947 170.66 104.644Z" fill="#28283C"/>
<path d="M162.147 179.784L161.976 150.419C172.463 140.528 178.411 126.651 178.353 112.245C178.314 102.304 175.48 92.9645 170.562 85.0939C172.073 83.7422 173.084 81.9863 173.402 80.0447C173.854 77.5988 173.185 75.0549 171.452 72.6988C170.121 70.8561 167.723 69.4703 164.319 68.5583C162.365 68.0347 160.659 67.8477 160.137 67.7756C158.608 67.4333 156.417 67.7922 155.503 69.4389C147.099 63.7415 136.93 60.3413 126.022 60.4585C112.092 60.5091 99.067 66.0043 89.2611 75.875C79.4551 85.7457 74.122 98.8416 74.1726 112.772C74.1678 116.824 74.6548 120.805 75.5876 124.636C74.9865 124.61 74.3978 124.79 73.9014 125.13C72.7656 125.839 72.1081 127.284 71.9178 128.247C71.4326 129.805 69.6176 136.075 72.106 139.647C73.2809 141.313 74.8601 142.479 76.688 142.969C78.7681 143.526 81.1645 143.155 83.2886 142.035C85.1434 144.694 87.2379 147.214 89.5722 149.596C92.4523 152.462 95.5937 154.858 98.8825 156.955L93.7481 176.117C92.0248 175.993 90.1755 175.835 88.2462 175.724L87.8511 175.685C87.2039 175.579 86.6107 176.028 86.5048 176.676L85.8145 181.017L77.0032 181.629C77.0539 181.44 77.1214 181.187 77.1091 180.981C76.9921 180.41 76.5554 180.022 76.0173 180.013L70.1789 179.868C69.9605 179.674 69.6622 179.527 69.3763 179.585L66.2573 179.628C65.5763 179.648 65.0922 180.194 65.1293 180.812L65.6702 213.587C65.6488 213.919 65.7872 214.159 66.0517 214.432C66.2239 214.546 66.3961 214.66 66.5852 214.71C66.7113 214.744 66.7743 214.761 66.9172 214.732L69.9102 214.655C70.1792 214.66 70.4483 214.664 70.5743 214.698C71.0493 214.69 71.4489 214.46 71.6302 214.035L71.9083 213.502C73.7625 209.607 77.1129 202.398 78.4426 197.688C78.5608 197.246 78.4731 196.818 78.1455 196.527C78.1455 196.527 78.1455 196.527 78.0825 196.51C78.2131 196.275 78.3268 196.103 78.4574 195.868C78.8537 194.893 81.0824 194.139 83.8278 193.726L83.7557 194.247C83.6713 194.562 83.7928 194.865 83.9313 195.105C84.0697 195.345 84.3049 195.475 84.5571 195.543C84.6201 195.56 84.6201 195.56 84.6831 195.577C84.8092 195.61 86.2297 195.856 88.5202 196.132L88.0136 198.023C87.8447 198.653 88.2138 199.293 88.8441 199.461L90.7351 199.968C90.1922 204.011 89.4153 206.911 88.6688 208.94C88.4674 208.683 88.186 208.473 87.854 208.452C87.3328 208.379 86.8195 208.782 86.6214 209.27L84.8661 214.812C84.6263 214.95 84.4158 215.232 84.3482 215.484L83.5375 218.51C83.3686 219.14 83.7378 219.779 84.3681 219.948L116.136 228.46C116.767 228.629 117.406 228.26 117.575 227.63L118.419 224.478C118.453 224.352 118.55 224.243 118.601 224.054C118.719 223.613 118.568 223.167 118.241 222.876L117.741 222.472C114.512 219.648 108.49 214.386 104.307 211.847C104.134 211.733 103.945 211.682 103.802 211.711C103.438 210.803 102.97 208.516 103.64 203.493L104.522 203.73C105.153 203.899 105.792 203.53 105.961 202.899L107.43 197.416C124.274 197.335 135.132 193.624 140.563 185.959C145.443 179.092 145.961 171.867 144.77 165.467L160.2 180.749C160.355 180.926 160.544 180.976 160.733 181.027C160.985 181.094 161.254 181.099 161.494 180.961C161.831 180.713 162.155 180.259 162.147 179.784ZM68.0172 212.392L67.4862 181.848L68.2933 181.862C68.4133 186.961 69.007 207.185 69.0932 212.41L68.0172 212.392ZM76.3402 194.692C73.8844 192.008 73.109 190.111 73.1127 187.072C73.1184 185.79 73.5147 184.815 74.1294 184.034L74.1924 184.051L85.4924 183.228L85.1241 185.358L84.1713 191.183C80.9971 191.684 77.4356 192.621 76.3402 194.692ZM89.0821 193.783C87.8969 193.668 86.8715 193.461 86.2074 193.418L88.7143 178.011C90.3115 178.101 91.7658 178.22 93.22 178.34L89.0821 193.783V193.783ZM159.798 70.0493C159.798 70.0493 167.133 70.6634 169.609 74.0291C172.471 77.9712 171.281 81.9085 168.063 84.0863C168.063 84.0863 163.931 86.8977 162.958 85.4883C162.555 84.975 162.959 84.4753 163.881 83.3036C162.19 84.0666 160.587 85.2585 159.798 84.1688C159.303 83.4957 160.562 82.0764 161.273 81.1861C161.273 81.1861 157.331 84.0482 156.45 82.7987C155.661 81.709 157.247 80.5802 158.787 79.3714C156.924 80.0208 156.134 79.9441 155.731 79.4308C155.143 78.5978 156.848 77.0278 157.761 76.3941L161.618 73.8472C154.552 70.4676 158.521 69.7745 159.798 70.0493ZM146.574 105.284C147.112 105.293 147.532 105.743 147.586 106.298C147.608 108.736 147.82 111.225 148.334 113.592C148.585 114.673 148.853 115.69 149.537 116.414C150.112 117.041 151.31 117.362 151.806 117.022C154.334 115.403 153.591 104.057 153.105 102.845C152.908 102.32 153.123 101.769 153.586 101.555C154.048 101.342 154.679 101.511 154.876 102.036C155.656 103.664 156.679 116.234 152.901 118.734C152.085 119.259 151.135 119.274 150.19 119.021C149.37 118.802 148.601 118.393 148.072 117.846C147.061 116.832 146.688 115.448 146.379 114.082C145.835 111.572 145.532 108.923 145.56 106.296C145.569 105.758 146.036 105.275 146.574 105.284ZM136.69 102.838C137.94 101.957 139.433 101.681 140.928 102.15C140.928 102.15 140.928 102.15 140.991 102.167C141.26 102.171 141.576 102.256 141.794 102.449C144.082 104.751 144.86 108.405 143.914 111.935C143.188 114.645 140.682 118.703 136.978 118.656C136.503 118.664 136.045 118.609 135.667 118.508C134.911 118.305 134.205 117.913 133.693 117.303C132.698 116.226 132.25 114.62 132.362 112.69C132.487 109.954 133.775 104.895 136.69 102.838ZM124.079 174.11C121.814 177.016 117.576 177.705 112.687 177.544L116.403 163.676C118.66 164.078 121.013 164.371 123.338 164.521C125.019 168.079 125.814 171.67 124.079 174.11ZM79.7201 106.692C79.3464 106.322 79.3262 105.641 79.7596 105.284C80.3866 104.709 81.0136 104.134 81.7329 103.718C81.7206 103.512 81.6621 103.226 81.6497 103.02C81.5957 102.466 81.9368 101.949 82.4917 101.895C82.9836 101.824 83.4372 102.148 83.5711 102.657C84.896 101.999 86.3132 101.5 87.7889 101.288C89.7733 100.941 90.6805 101.589 91.1127 102.246C91.9016 103.335 91.5593 104.865 90.204 106.393C89.6231 107.049 88.9792 107.687 88.3353 108.325C88.987 108.162 89.6219 108.062 90.3367 107.915C90.6856 107.874 91.3204 107.774 91.917 108.069C92.4674 108.284 92.8242 108.717 92.9412 109.289C93.2259 110.243 92.8588 111.361 92.404 112.05C90.3698 115.356 87.1515 117.533 84.1899 119.51C84.1685 119.842 84.1302 120.237 84.1718 120.586C84.1627 121.124 83.6494 121.527 83.1114 121.518C83.0484 121.501 82.9853 121.484 82.9223 121.467C82.4811 121.349 82.1243 120.915 82.1795 120.457C82.2133 120.331 82.184 120.188 82.2347 119.999C81.7012 119.721 81.538 119.069 81.8161 118.536C81.9467 118.301 82.1234 118.145 82.3632 118.007C82.4072 116.33 82.4513 114.652 82.4154 113.021L82.3355 113.068C81.8559 113.344 81.2886 113.192 80.9949 112.776C80.718 112.296 80.807 111.712 81.2865 111.435C81.3833 111.326 81.5263 111.297 81.6231 111.188C81.8629 111.049 82.1195 110.848 82.3593 110.709C82.2896 109.205 82.1569 107.683 82.0243 106.161C81.7507 106.425 81.431 106.61 81.1575 106.874C80.7579 107.105 80.1568 107.079 79.7201 106.692ZM83.4644 139.11C80.4015 141.464 76.4416 141.619 74.0916 138.287C72.0354 135.372 74.25 128.871 74.25 128.871C74.4449 127.64 76.5252 124.414 76.9333 131.212L80.5895 128.408C81.5193 127.712 83.5004 126.621 83.9956 127.294C84.3355 127.791 84.0867 128.467 82.8113 129.949C84.4435 128.9 86.0295 127.772 86.6632 128.685C87.4521 129.774 83.4639 132.556 83.4639 132.556C84.5152 132.162 86.2228 131.336 86.6719 131.93C87.3055 132.843 85.7195 133.971 84.3517 135.294C85.7059 134.778 86.3115 134.535 86.6052 134.952C87.4403 136.121 83.4644 139.11 83.4644 139.11ZM106.832 114.429C104.636 118.84 101.298 119.702 99.0287 119.094C96.5705 118.436 94.9802 116.05 95.1684 113.331C95.3521 110.881 96.1537 108.393 97.5181 106.327C98.4446 104.886 99.6525 103.656 100.931 102.917C101.045 102.745 101.268 102.67 101.411 102.641C102.113 102.288 102.862 102.016 103.64 101.887C104.194 101.833 104.711 102.174 104.765 102.729C104.777 102.935 104.79 103.141 104.659 103.376C106.054 104.222 107.027 105.632 107.509 107.112C108.246 109.404 107.932 112.089 106.832 114.429ZM111.399 105.452C111.391 104.977 111.699 104.586 112.064 104.482C112.51 104.331 112.935 104.512 113.182 104.849L120.235 115.589C119.871 110.897 119.507 106.206 119.206 101.531C119.152 100.976 119.619 100.493 120.157 100.502C120.712 100.448 121.194 100.916 121.185 101.454C121.502 107.078 121.945 112.737 122.468 118.349C122.493 118.761 122.249 119.168 121.929 119.353C121.227 119.705 120.378 119.343 119.618 118.396L113.522 109.128C113.72 112.424 114.067 117.179 114.61 119.689C114.744 120.198 114.386 120.777 113.877 120.911C113.735 120.941 113.529 120.953 113.402 120.919C113.087 120.835 112.76 120.544 112.655 120.178C111.765 115.684 111.424 105.864 111.399 105.452ZM90.5406 197.416L101.08 158.084C105.142 160.321 109.545 162.041 114.054 163.115L103.903 200.997L90.5406 197.416V197.416ZM115.851 224.736L115.564 225.807L86.0646 217.903L86.2672 217.147C91.1376 218.384 110.728 223.431 115.851 224.736ZM101.62 212.545C97.9141 214.525 95.8035 214.838 92.6519 213.993C91.3282 213.639 90.4087 212.784 89.8212 211.951C90.8536 209.863 92.0853 206.275 92.9412 200.559L101.325 202.806C100.553 208.206 100.995 211.094 101.62 212.545ZM120.121 133.664C118.839 133.658 117.482 133.429 116.221 133.092C113.448 132.348 111.095 131.043 110.445 130.193C110.088 129.759 110.194 129.112 110.673 128.835C111.107 128.478 111.754 128.584 112.048 129.001C112.434 129.577 116.324 131.7 120.124 131.638C122.23 131.594 123.761 130.923 124.733 129.562C127.942 125.153 127.738 112.802 125.942 102.863C125.825 102.291 126.229 101.792 126.721 101.721C127.293 101.604 127.793 102.008 127.864 102.5C129.237 110.232 130.51 124.895 126.312 130.729C124.982 132.669 122.828 133.646 120.121 133.664ZM138.594 184.485C133.714 191.352 123.667 194.808 107.963 194.924L111.999 179.859C117.821 180.068 122.946 179.346 125.939 175.487C128.095 172.484 127.545 168.486 125.885 164.596C126.091 164.583 126.36 164.588 126.549 164.639C131.694 164.598 136.693 163.844 141.546 162.374C143.572 168.93 143.912 176.992 138.594 184.485ZM163.872 126.2C163.729 126.229 163.523 126.242 163.334 126.191C163.019 126.107 162.754 125.833 162.649 125.467C161.223 119.951 160.036 114.296 159.071 108.565C158.882 108.514 158.63 108.447 158.475 108.27C158.118 107.837 158.144 107.236 158.577 106.879C158.657 106.833 158.674 106.77 158.737 106.787C158.679 106.501 158.637 106.152 158.579 105.866C158.525 105.311 158.866 104.794 159.421 104.74C159.976 104.686 160.429 105.011 160.563 105.519C163.634 103.64 168.353 101.661 170.903 102.48C171.769 102.779 172.361 103.343 172.536 104.201C173.235 106.888 169.941 108.843 166.505 110.827C165.529 111.444 164.507 111.981 163.531 112.597C166.641 113.093 169.784 113.462 172.899 113.689C173.437 113.698 173.84 114.211 173.831 114.749C173.822 115.287 173.309 115.69 172.771 115.681C169.181 115.462 165.579 115.038 162.045 114.361C162.776 117.935 163.587 121.463 164.479 124.944C164.739 125.487 164.381 126.066 163.872 126.2Z" fill="#28283C"/>
<path d="M80.9266 123.632L77.4467 105.608L83.2388 95.3372C83.2388 95.3372 121.576 94.4626 122.521 94.7159C123.467 94.9692 155.602 98.5807 156.346 98.5774C157.153 98.5909 172.515 100.005 172.515 100.005C172.515 100.005 176.946 106.664 176.773 107.564C176.599 108.463 176.151 118.206 176.151 118.206L172.578 128.261L165.489 133.793L142.481 138.977L125.877 138.92L110.694 135.324L80.9266 123.632Z" fill="#28283C"/>
<path d="M81.3761 102.538C82.2513 108.853 82.8405 115.226 83.2238 121.611C83.298 122.847 85.261 122.833 85.1869 121.597C84.8036 115.211 84.2143 108.838 83.3391 102.524C83.122 101.317 81.1758 101.268 81.3761 102.538Z" fill="#FADCDB"/>
<path d="M83.1184 120.505C87.2146 118.833 94.7137 115.302 93.4175 109.55C92.3429 104.736 83.7316 110.4 81.6367 111.663C80.5178 112.309 81.5206 113.861 82.6057 113.341C85.4615 112.012 89.4732 110.655 91.6031 108.253C92.8785 106.771 94.0382 103.704 93.2797 101.744C91.146 96.8487 82.9074 100.113 80.0842 102.329C79.0745 103.072 80.46 104.457 81.4697 103.714C83.0096 102.505 84.7803 101.696 86.8109 101.43C87.5088 101.346 88.5094 101.142 89.2489 101.407C90.5557 101.825 91.6924 103.886 91.0979 105.348C89.6817 108.617 84.6523 110.242 81.7167 111.617C82.0397 112.176 82.3627 112.736 82.6857 113.295C83.9014 112.54 85.1632 111.865 86.4881 111.207C87.3335 110.825 88.3094 110.208 89.2302 110.05C89.596 109.945 89.8988 109.823 90.2646 109.719C91.6097 109.741 91.9327 110.301 91.2336 111.397C90.8506 115.348 85.7199 117.351 82.612 118.613C81.4639 119.116 81.9702 121.008 83.1184 120.505Z" fill="#FADCDB"/>
<path d="M100.259 102.667C97.388 105.816 95.8613 110.001 96.3438 114.251C96.7015 117.455 98.492 121.109 102.307 119.227C107.783 116.438 109.804 99.8197 101.322 102.479C100.145 102.839 100.651 104.731 101.829 104.371C105.95 103.111 105.437 110.067 104.913 112.021C104.474 113.66 101.847 120.185 98.901 116.558C97.7845 115.178 98.2091 111.576 98.5852 109.92C99.1133 107.697 100.175 105.752 101.707 104.068C102.498 103.132 101.13 101.684 100.259 102.667Z" fill="#FADCDB"/>
<path d="M111.229 104.592C110.176 109.782 110.872 115.508 110.895 120.716C110.889 121.998 112.852 121.984 112.858 120.702C112.864 115.637 112.135 110.037 113.12 105.099C113.378 103.884 111.487 103.378 111.229 104.592Z" fill="#FADCDB"/>
<path d="M112.288 105.958C114.027 110.815 118.264 113.909 120.882 118.259C121.407 119.075 122.71 118.749 122.711 117.736C122.789 112.149 122.582 106.622 122.122 101.026C122.048 99.7902 120.085 99.8047 120.159 101.041C120.636 106.573 120.826 112.164 120.748 117.75C121.337 117.57 121.989 117.407 122.577 117.227C120.035 113.1 115.86 110.023 114.197 105.388C113.757 104.257 111.865 104.763 112.288 105.958Z" fill="#FADCDB"/>
<path d="M125.401 103.12C126.361 109.12 127.304 115.182 127.153 121.29C127.065 124.644 127.253 129.491 123.711 131.109C120.616 132.577 113.285 132.707 113.001 127.969C112.926 126.733 110.963 126.748 111.037 127.984C111.206 131.136 113.516 133.106 116.546 133.648C119.782 134.177 125.074 133.839 127.196 130.962C129.563 127.678 129.246 122.053 129.12 118.236C128.971 112.994 128.14 107.773 127.31 102.551C127.076 101.407 125.184 101.914 125.401 103.12Z" fill="#FADCDB"/>
<path d="M136.644 103.024C134.34 106.326 131.366 111.879 132.958 116.021C134.308 119.558 138.125 119.433 140.477 116.955C143.087 114.277 143.883 109.288 143.421 105.719C143.012 102.704 140.208 100.061 137.217 101.894C136.161 102.557 137.13 104.236 138.186 103.573C141.736 101.416 141.598 107.73 141.365 109.356C141.123 111.521 140.577 114.82 138.499 116.02C133.623 118.834 134.59 112.202 135.227 110.076C135.898 107.824 137.023 105.896 138.353 103.956C139.019 102.985 137.326 101.991 136.644 103.024Z" fill="#FADCDB"/>
<path d="M145.977 104.512C146.074 107.173 144.872 121.241 150.89 119.205C152.975 118.48 153.878 115.615 154.385 113.724C155.36 110.337 155.276 106.869 154.414 103.53C154.134 102.307 152.242 102.813 152.522 104.037C153.024 106.198 153.21 108.274 152.968 110.439C152.769 111.939 152.412 115.289 151.192 116.313C150.431 116.38 149.67 116.446 148.909 116.512C148.544 115.604 148.323 114.666 148.307 113.716C148.211 112.812 148.179 111.926 148.163 110.976C148.073 108.79 147.983 106.604 147.893 104.418C147.865 103.262 145.902 103.276 145.977 104.512Z" fill="#FADCDB"/>
<path d="M158.156 105.953C157.13 113.312 159.764 121.382 161.021 128.542C161.238 129.748 163.13 129.242 162.913 128.035C162.291 124.558 161.715 121.161 161.093 117.684C160.458 114.001 159.509 110.234 160.047 106.46C160.179 105.211 158.305 104.642 158.156 105.953Z" fill="#FADCDB"/>
<path d="M160.018 108.073C161.322 106.733 162.782 105.571 164.641 105.19C166.356 104.839 171.748 106.149 168.542 108.533C167.355 109.431 165.039 109.756 163.655 110.128C162.495 110.425 160.406 110.406 159.539 111.12C158.479 112.052 159.045 113.217 160.015 113.882C162.829 115.987 166.498 116.16 168.937 118.907C169.76 119.871 171.145 118.485 170.322 117.522C168.97 116.011 167.34 115.034 165.471 114.195C164.513 113.736 163.446 113.18 162.437 112.91C161.875 112.489 161.29 112.4 160.668 112.706C161.24 112.589 161.875 112.489 162.446 112.372C164.877 111.874 170.414 111.128 171.518 108.519C172.559 105.893 169.935 103.839 167.712 103.311C164.291 102.462 161.048 104.228 158.712 106.642C157.778 107.608 159.163 108.992 160.018 108.073Z" fill="#FADCDB"/>
<path d="M392.394 98.7764L317.136 117.799L320.759 125.045L243.236 163.844L249.35 187.999L405 148.747L392.394 98.7764Z" fill="#FADCDC"/>
<path d="M297.729 79.0312L191.001 132.437L214.039 178.476L320.766 125.07L297.729 79.0312Z" fill="#FAAA1E"/>
<path d="M231.989 161.201C222.478 165.956 211.684 162.711 206.627 152.596C201.569 142.481 205.419 131.913 214.93 127.157C224.516 122.326 235.311 125.648 240.368 135.762C245.426 145.877 241.576 156.445 231.989 161.201ZM218.402 134.102C213.118 136.744 211.684 142.481 214.779 148.595C217.798 154.709 223.233 156.974 228.517 154.332C233.877 151.614 235.235 145.953 232.216 139.839C229.197 133.724 223.762 131.384 218.402 134.102Z" fill="#822D50"/>
<path d="M267.392 126.327L257.579 106.625L264.826 103.002L281.281 135.838L274.941 139.008L249.276 125.648L259.693 146.557L252.371 150.18L235.99 117.42L243.614 113.646L267.392 126.327Z" fill="#822D50"/>
<path d="M311.853 120.515L286.566 133.196L270.11 100.36L294.944 87.9053L298.19 94.397L281.131 102.927L284.377 109.418L297.662 102.776L300.832 109.192L287.547 115.835L291.019 122.779L308.607 114.023L311.853 120.515Z" fill="#822D50"/>
<path d="M269.204 150.86V162.032L269.053 162.107L264.222 153.351L257.503 156.748L267.845 174.94L275.167 173.128L275.771 147.614L269.204 150.86Z" fill="#822D50"/>
<path d="M248.068 161.503L252.446 178.865L260.296 176.827L255.541 157.729L248.068 161.503Z" fill="#822D50"/>
<path d="M363.636 142.028C362.201 137.952 359.484 136.291 355.483 136.518C359.71 134.857 362.201 130.705 360.843 125.497C359.106 118.628 353.521 115.533 344.311 117.798L327.101 122.1L336.084 157.653L344.538 155.54L341.443 143.16L348.614 141.349C352.162 140.443 354.275 141.273 355.634 145.199C356.842 148.897 357.899 151.086 358.88 151.917L367.561 149.728C366.051 148.822 365.447 147.161 363.636 142.028ZM347.18 134.782L339.782 136.669L337.367 126.931L344.764 125.044C349.218 123.912 351.86 125.12 352.69 128.29C353.521 131.838 351.633 133.649 347.18 134.782Z" fill="#822D50"/>
<path d="M276.601 147.161L282.64 171.241L291.245 169.052L284.678 143.161L276.601 147.161Z" fill="#822D50"/>
<path d="M397.378 134.782L378.355 139.613L376.393 132.064L390.81 128.441L389.074 121.496L374.657 125.12L372.92 118.175L391.414 113.495L389.678 106.399L362.73 113.193L371.713 148.822L399.114 141.877L397.378 134.782Z" fill="#822D50"/>
<path d="M315.778 127.535L290.868 139.99C290.038 143.085 289.962 146.557 290.868 150.181C293.661 161.126 303.399 166.636 313.74 164.07C324.157 161.428 330.12 151.917 327.403 140.971C325.742 134.253 321.364 129.573 315.778 127.535ZM311.928 156.597C306.192 158.031 301.436 154.634 299.7 147.992C298.039 141.349 300.606 136.14 306.343 134.631C312.155 133.197 316.91 136.593 318.571 143.236C320.307 149.803 317.741 155.087 311.928 156.597Z" fill="#822D50"/>
</svg>
