<svg width="407" height="275" viewBox="0 0 407 275" fill="none" xmlns="http://www.w3.org/2000/svg">
<path d="M209.182 160.835C227 94.3362 209.003 39.7239 150.509 24.0505C91.196 8.15759 48.304 46.4547 30.4856 112.954C12.4477 180.272 30.4447 234.884 89.758 250.777C148.252 266.451 191.144 228.154 209.182 160.835Z" fill="#FADCDC"/>
<g opacity="0.5">
<path opacity="0.5" d="M100.588 155.652L97.5127 168.137C97.5127 168.137 112.64 172.191 112.928 171.119C113.215 170.048 115.552 159.054 115.552 159.054L100.588 155.652Z" fill="#28283C"/>
<path opacity="0.5" d="M144.031 151.35L129.444 151.833L123.692 156.912L127.221 172.99L144.116 171.707L144.031 151.35Z" fill="#28283C"/>
</g>
<path d="M102.063 104.503C100.944 105.149 99.9463 106.098 99.2134 107.32C98.0427 109.168 97.3255 111.34 97.1632 113.459C97.0223 115.245 97.979 116.717 99.5548 117.14C101.194 117.579 103.422 116.825 105.062 113.481C105.963 111.628 106.205 109.464 105.636 107.555C105.171 106.011 103.694 104.467 102.063 104.503Z" fill="#28283C"/>
<path d="M135.144 115.934C135.564 116.384 136.177 116.616 136.984 116.63C139.405 116.67 141.326 113.537 141.98 111.348C142.706 108.637 142.23 105.875 140.614 104.091C140.551 104.074 140.488 104.057 140.425 104.04C140.362 104.023 140.362 104.023 140.299 104.006C139.417 103.77 138.639 103.899 137.886 104.441C135.706 106.019 134.478 110.351 134.311 112.738C134.255 114.209 134.506 115.29 135.144 115.934Z" fill="#28283C"/>
<path d="M170.664 104.643C170.617 104.563 170.588 104.42 170.336 104.353C168.651 103.834 163.823 105.715 160.942 107.645C161.142 108.915 161.388 110.265 161.588 111.534C162.838 110.653 164.197 109.869 165.492 109.067C168.05 107.591 170.99 105.947 170.664 104.643Z" fill="#28283C"/>
<path d="M162.149 179.783L161.979 150.418C172.466 140.527 178.413 126.65 178.355 112.244C178.316 102.303 175.482 92.9635 170.565 85.0929C172.075 83.7412 173.086 81.9853 173.404 80.0437C173.857 77.5978 173.187 75.0539 171.454 72.6979C170.124 70.8551 167.725 69.4693 164.321 68.5573C162.367 68.0337 160.661 67.8467 160.14 67.7746C158.61 67.4323 156.42 67.7912 155.505 69.4379C147.101 63.7405 136.933 60.3403 126.024 60.4576C112.094 60.5081 99.0692 66.0033 89.2633 75.874C79.4573 85.7447 74.1242 98.8406 74.1748 112.771C74.17 116.823 74.657 120.804 75.5898 124.635C74.9887 124.609 74.4 124.789 73.9036 125.129C72.7678 125.838 72.1103 127.283 71.92 128.246C71.4348 129.805 69.6198 136.074 72.1082 139.646C73.2831 141.312 74.8623 142.478 76.6902 142.968C78.7703 143.525 81.1667 143.154 83.2908 142.034C85.1456 144.693 87.2401 147.213 89.5744 149.595C92.4545 152.461 95.5959 154.857 98.8847 156.954L93.7503 176.116C92.027 175.992 90.1777 175.834 88.2484 175.723L87.8533 175.684C87.2061 175.578 86.6129 176.027 86.507 176.675L85.8167 181.016L77.0054 181.628C77.0561 181.439 77.1236 181.186 77.1113 180.98C76.9943 180.409 76.5576 180.021 76.0195 180.012L70.181 179.867C69.9627 179.673 69.6644 179.526 69.3785 179.584L66.2595 179.627C65.5785 179.647 65.0944 180.193 65.1315 180.811L65.6724 213.586C65.651 213.918 65.7894 214.158 66.0539 214.431C66.2261 214.545 66.3983 214.659 66.5874 214.709C66.7135 214.743 66.7765 214.76 66.9194 214.731L69.9124 214.654C70.1814 214.659 70.4505 214.663 70.5765 214.697C71.0515 214.689 71.4511 214.459 71.6324 214.034L71.9105 213.501C73.7647 209.606 77.1151 202.397 78.4448 197.687C78.563 197.246 78.4753 196.817 78.1477 196.526C78.1477 196.526 78.1477 196.526 78.0847 196.509C78.2153 196.274 78.329 196.102 78.4596 195.867C78.8559 194.892 81.0846 194.138 83.83 193.725L83.7579 194.246C83.6735 194.561 83.795 194.864 83.9335 195.104C84.0719 195.344 84.3071 195.474 84.5593 195.542C84.6223 195.559 84.6223 195.559 84.6853 195.576C84.8114 195.609 86.2319 195.855 88.5224 196.131L88.0158 198.022C87.8469 198.652 88.216 199.292 88.8463 199.46L90.7373 199.967C90.1944 204.01 89.4175 206.91 88.671 208.939C88.4696 208.682 88.1882 208.472 87.8562 208.451C87.335 208.378 86.8217 208.781 86.6236 209.269L84.8683 214.811C84.6285 214.949 84.418 215.231 84.3504 215.483L83.5397 218.509C83.3708 219.139 83.74 219.778 84.3703 219.947L116.139 228.459C116.769 228.628 117.408 228.259 117.577 227.629L118.422 224.477C118.455 224.351 118.552 224.242 118.603 224.053C118.721 223.612 118.57 223.166 118.243 222.875L117.743 222.471C114.514 219.647 108.492 214.385 104.309 211.846C104.137 211.732 103.947 211.681 103.805 211.711C103.44 210.802 102.972 208.515 103.642 203.492L104.524 203.729C105.155 203.898 105.794 203.529 105.963 202.898L107.432 197.415C124.276 197.334 135.134 193.623 140.565 185.958C145.446 179.091 145.963 171.866 144.772 165.466L160.202 180.748C160.357 180.925 160.546 180.975 160.736 181.026C160.988 181.093 161.257 181.098 161.496 180.96C161.833 180.712 162.157 180.258 162.149 179.783ZM68.0194 212.391L67.4884 181.847L68.2955 181.861C68.4155 186.96 69.0092 207.184 69.0954 212.409L68.0194 212.391ZM76.3424 194.691C73.8866 192.007 73.1112 190.11 73.1149 187.071C73.1206 185.789 73.5169 184.814 74.1315 184.033L74.1946 184.05L85.4946 183.227L85.1263 185.357L84.1735 191.182C80.9993 191.683 77.4378 192.62 76.3424 194.691ZM89.0843 193.782C87.8991 193.667 86.8737 193.46 86.2096 193.417L88.7165 178.01C90.3137 178.1 91.768 178.219 93.2222 178.339L89.0843 193.782V193.782ZM159.801 70.0483C159.801 70.0483 167.135 70.6624 169.611 74.0282C172.473 77.9703 171.283 81.9075 168.065 84.0853C168.065 84.0853 163.934 86.8967 162.96 85.4873C162.557 84.974 162.961 84.4743 163.883 83.3026C162.193 84.0656 160.59 85.2575 159.801 84.1679C159.305 83.4947 160.564 82.0754 161.275 81.1851C161.275 81.1851 157.333 84.0472 156.452 82.7977C155.663 81.7081 157.249 80.5792 158.789 79.3705C156.926 80.0198 156.136 79.9432 155.733 79.4299C155.146 78.5969 156.85 77.0268 157.763 76.3932L161.62 73.8463C154.554 70.4666 158.523 69.7736 159.801 70.0483ZM146.576 105.283C147.114 105.292 147.534 105.742 147.588 106.297C147.61 108.735 147.822 111.224 148.336 113.591C148.587 114.672 148.855 115.689 149.539 116.413C150.114 117.04 151.312 117.361 151.808 117.021C154.336 115.402 153.593 104.056 153.107 102.844C152.91 102.319 153.125 101.768 153.588 101.554C154.051 101.341 154.681 101.51 154.878 102.035C155.658 103.663 156.681 116.233 152.903 118.733C152.087 119.258 151.137 119.273 150.192 119.02C149.372 118.801 148.604 118.392 148.075 117.845C147.063 116.831 146.69 115.447 146.381 114.081C145.837 111.571 145.534 108.922 145.562 106.295C145.571 105.757 146.038 105.274 146.576 105.283ZM136.693 102.837C137.942 101.956 139.435 101.68 140.931 102.149C140.931 102.149 140.931 102.149 140.994 102.166C141.263 102.17 141.578 102.255 141.796 102.448C144.084 104.75 144.862 108.404 143.916 111.934C143.19 114.644 140.684 118.702 136.981 118.655C136.506 118.663 136.047 118.608 135.669 118.507C134.913 118.304 134.207 117.912 133.695 117.302C132.7 116.225 132.252 114.619 132.364 112.689C132.489 109.953 133.777 104.894 136.693 102.837ZM124.081 174.109C121.816 177.015 117.578 177.704 112.69 177.543L116.405 163.675C118.662 164.077 121.016 164.37 123.34 164.52C125.021 168.078 125.816 171.669 124.081 174.109ZM79.7223 106.691C79.3486 106.321 79.3284 105.64 79.7618 105.283C80.3888 104.708 81.0158 104.133 81.7351 103.717C81.7228 103.511 81.6643 103.225 81.6519 103.019C81.5979 102.465 81.939 101.948 82.4939 101.894C82.9858 101.823 83.4394 102.147 83.5733 102.656C84.8982 101.998 86.3154 101.499 87.7911 101.287C89.7755 100.94 90.6827 101.588 91.1149 102.245C91.9038 103.334 91.5615 104.864 90.2062 106.393C89.6253 107.048 88.9814 107.686 88.3375 108.324C88.9892 108.161 89.6241 108.061 90.3389 107.914C90.6878 107.873 91.3226 107.773 91.9192 108.068C92.4696 108.283 92.8264 108.716 92.9434 109.288C93.2281 110.242 92.861 111.36 92.4062 112.049C90.372 115.355 87.1537 117.532 84.1921 119.509C84.1707 119.841 84.1324 120.236 84.174 120.585C84.1649 121.123 83.6516 121.526 83.1136 121.517C83.0506 121.5 82.9875 121.483 82.9245 121.466C82.4833 121.348 82.1265 120.914 82.1817 120.456C82.2155 120.33 82.1862 120.187 82.2369 119.998C81.7034 119.72 81.5402 119.068 81.8183 118.535C81.9489 118.3 82.1256 118.144 82.3654 118.006C82.4094 116.329 82.4534 114.651 82.4176 113.02L82.3376 113.067C81.8581 113.343 81.2908 113.191 80.9971 112.775C80.7202 112.295 80.8092 111.711 81.2887 111.434C81.3855 111.325 81.5285 111.296 81.6253 111.187C81.8651 111.048 82.1217 110.847 82.3615 110.709C82.2918 109.204 82.1591 107.682 82.0264 106.16C81.7529 106.424 81.4332 106.609 81.1597 106.873C80.7601 107.104 80.159 107.078 79.7223 106.691ZM83.4666 139.109C80.4037 141.463 76.4438 141.618 74.0938 138.286C72.0376 135.371 74.2522 128.871 74.2522 128.871C74.4471 127.639 76.5274 124.413 76.9355 131.211L80.5916 128.407C81.5215 127.711 83.5026 126.62 83.9978 127.293C84.3377 127.79 84.0889 128.466 82.8134 129.948C84.4457 128.9 86.0317 127.771 86.6654 128.684C87.4543 129.773 83.4661 132.555 83.4661 132.555C84.5174 132.162 86.225 131.335 86.6741 131.929C87.3077 132.842 85.7217 133.97 84.3539 135.293C85.7081 134.778 86.3137 134.534 86.6074 134.951C87.4425 136.121 83.4666 139.109 83.4666 139.109ZM106.834 114.428C104.639 118.84 101.3 119.701 99.0309 119.093C96.5727 118.435 94.9824 116.049 95.1706 113.33C95.3543 110.88 96.1559 108.392 97.5203 106.326C98.4468 104.885 99.6547 103.655 100.933 102.916C101.047 102.744 101.27 102.669 101.413 102.64C102.115 102.287 102.864 102.015 103.642 101.886C104.197 101.832 104.713 102.173 104.767 102.728C104.78 102.934 104.792 103.14 104.661 103.375C106.056 104.221 107.029 105.631 107.511 107.111C108.248 109.403 107.934 112.088 106.834 114.428ZM111.401 105.451C111.393 104.976 111.701 104.586 112.067 104.481C112.512 104.33 112.937 104.511 113.184 104.848L120.238 115.588C119.873 110.896 119.509 106.205 119.208 101.53C119.154 100.975 119.621 100.492 120.159 100.501C120.714 100.447 121.197 100.915 121.188 101.453C121.505 107.077 121.948 112.736 122.47 118.348C122.495 118.76 122.251 119.167 121.931 119.352C121.229 119.704 120.38 119.342 119.62 118.395L113.524 109.127C113.722 112.423 114.069 117.178 114.613 119.688C114.746 120.197 114.388 120.776 113.88 120.91C113.737 120.94 113.531 120.952 113.405 120.918C113.09 120.834 112.762 120.543 112.657 120.177C111.767 115.683 111.426 105.863 111.401 105.451ZM90.5428 197.415L101.082 158.083C105.144 160.32 109.547 162.04 114.056 163.114L103.906 200.996L90.5428 197.415V197.415ZM115.853 224.735L115.566 225.806L86.0668 217.902L86.2694 217.146C91.1398 218.383 110.73 223.43 115.853 224.735ZM101.622 212.544C97.9163 214.524 95.8057 214.837 92.6541 213.992C91.3304 213.638 90.4109 212.783 89.8234 211.95C90.8558 209.862 92.0875 206.274 92.9434 200.558L101.327 202.805C100.555 208.205 100.997 211.093 101.622 212.544ZM120.123 133.663C118.841 133.657 117.484 133.428 116.223 133.091C113.45 132.347 111.097 131.042 110.447 130.192C110.09 129.758 110.196 129.111 110.676 128.834C111.109 128.477 111.756 128.583 112.05 129C112.436 129.576 116.326 131.699 120.126 131.637C122.232 131.593 123.763 130.922 124.735 129.561C127.944 125.152 127.74 112.802 125.944 102.862C125.827 102.29 126.231 101.791 126.723 101.72C127.295 101.603 127.795 102.007 127.866 102.499C129.239 110.231 130.512 124.894 126.314 130.728C124.984 132.668 122.83 133.645 120.123 133.663ZM138.596 184.484C133.716 191.351 123.669 194.807 107.965 194.923L112.002 179.858C117.823 180.067 122.948 179.346 125.941 175.486C128.097 172.483 127.547 168.485 125.887 164.595C126.093 164.582 126.362 164.587 126.551 164.638C131.696 164.598 136.695 163.843 141.548 162.373C143.575 168.929 143.914 176.991 138.596 184.484ZM163.874 126.199C163.731 126.229 163.525 126.241 163.336 126.19C163.021 126.106 162.756 125.832 162.652 125.466C161.225 119.95 160.038 114.295 159.074 108.564C158.885 108.513 158.632 108.446 158.477 108.269C158.12 107.836 158.146 107.235 158.58 106.878C158.66 106.832 158.676 106.769 158.739 106.786C158.681 106.5 158.639 106.151 158.581 105.865C158.527 105.31 158.868 104.793 159.423 104.739C159.978 104.685 160.431 105.01 160.565 105.518C163.636 103.639 168.355 101.66 170.905 102.479C171.771 102.778 172.363 103.342 172.538 104.2C173.237 106.887 169.944 108.842 166.507 110.826C165.531 111.443 164.509 111.98 163.533 112.596C166.643 113.092 169.787 113.461 172.901 113.688C173.439 113.697 173.842 114.21 173.833 114.748C173.824 115.286 173.311 115.689 172.773 115.68C169.183 115.461 165.581 115.037 162.047 114.36C162.778 117.934 163.59 121.462 164.481 124.943C164.741 125.486 164.383 126.065 163.874 126.199Z" fill="#28283C"/>
<path d="M80.9286 123.632L77.4486 105.607L83.2407 95.3367C83.2407 95.3367 121.578 94.4621 122.523 94.7154C123.469 94.9688 155.604 98.5802 156.348 98.5769C157.155 98.5905 172.517 100.004 172.517 100.004C172.517 100.004 176.948 106.664 176.775 107.563C176.601 108.463 176.153 118.206 176.153 118.206L172.58 128.26L165.491 133.792L142.483 138.977L125.879 138.919L110.696 135.324L80.9286 123.632Z" fill="#28283C"/>
<path d="M91.0729 104.934C90.9351 111.248 93.5595 117.085 94.5314 123.291C94.7317 124.561 96.6408 123.991 96.4236 122.785C95.527 116.802 92.9319 111.107 93.0191 104.983C93.0417 103.638 91.0787 103.652 91.0729 104.934Z" fill="#FADCDB"/>
<path d="M92.3656 116.496C95.855 116.08 99.3275 115.727 102.829 115.516C104.065 115.442 104.051 113.479 102.815 113.553C99.3131 113.764 95.8405 114.117 92.3511 114.533C91.0983 114.67 91.1128 116.633 92.3656 116.496Z" fill="#FADCDB"/>
<path d="M101.202 99.4069C102.124 108.572 103.332 117.678 104.746 126.772C104.946 128.041 106.855 127.472 106.638 126.265C105.237 117.377 104.058 108.414 103.148 99.4555C103.027 98.1396 101.064 98.1541 101.202 99.4069Z" fill="#FADCDB"/>
<path d="M112.316 120.963C112.464 116.882 112.754 112.771 113.234 108.711C113.476 106.546 113.782 104.399 114.15 102.268C114.434 100.453 114.606 96.7831 115.848 95.4268C115.373 95.4347 114.898 95.4425 114.44 95.3873C117.698 98.3547 118.752 102.488 119.584 106.697C120.452 111.523 120.892 116.438 121.269 121.335C121.406 122.588 123.369 122.574 123.232 121.321C122.738 115.851 122.324 110.336 121.196 104.967C120.348 100.821 119.02 96.9523 115.807 94.0648C115.434 93.6945 114.77 93.6517 114.399 94.0253C113.334 95.2263 113.186 96.5376 112.89 98.1471C112.386 100.782 111.963 103.371 111.585 106.04C110.932 110.999 110.485 115.946 110.353 120.977C110.347 122.26 112.31 122.245 112.316 120.963Z" fill="#FADCDB"/>
<path d="M112.244 112.905C114.897 112.332 117.512 112.155 120.168 112.326C121.433 112.395 121.402 110.495 120.154 110.363C117.308 110.141 114.487 110.331 111.737 111.013C110.497 111.356 111.02 113.185 112.244 112.905Z" fill="#FADCDB"/>
<path d="M130.48 101.577C129.846 108.23 129.148 114.867 128.531 121.457C128.428 122.848 127.412 125.886 128.436 127.106C129.615 128.503 133.907 128.37 135.58 128.683C136.811 128.878 137.318 126.987 136.087 126.792C134.918 126.614 133.464 126.494 132.346 126.127C130.409 125.541 130.397 125.335 130.319 123.355C130.183 121.089 130.796 118.551 130.992 116.306C131.502 111.376 131.95 106.429 132.443 101.562C132.575 100.314 130.612 100.328 130.48 101.577Z" fill="#FADCDB"/>
<path d="M140.341 96.0443C139.526 102.109 138.792 108.128 138.31 114.214C138.195 115.399 137.642 117.21 138.557 118.333C139.581 119.554 143.318 119.474 144.802 119.736C146.033 119.931 146.54 118.04 145.308 117.845C144.409 117.672 140.769 117.642 140.148 116.935C139.48 116.149 140.452 112.018 140.533 110.959C141.01 106.155 141.566 101.304 142.232 96.551C142.363 95.3027 140.473 94.7961 140.341 96.0443Z" fill="#FADCDB"/>
<path d="M155.37 105.003C152.946 110.771 148.775 118.774 150.899 125.22C152.83 130.872 157.928 127.982 160.063 124.298C161.921 121.148 162.947 117.572 163.829 114.025C164.459 111.424 165.332 108.415 164.062 105.845C162.376 102.556 157.526 102 155.37 105.003C154.625 106.019 156.318 107.013 157.063 105.997C158.36 104.182 160.91 105.001 161.964 106.364C163.294 108.207 162.754 110.224 162.259 112.321C161.406 116.011 160.405 119.998 158.45 123.258C158.092 123.838 157.486 125.094 156.926 125.417C155.569 125.188 154.228 124.897 152.871 124.668C152.812 124.382 152.754 124.096 152.678 123.873C151.869 122.103 152.634 118.997 153.107 117.232C154.074 113.37 155.608 109.661 157.126 106.014C157.493 104.896 155.817 103.839 155.37 105.003Z" fill="#FADCDB"/>
<path d="M393.617 99.6865L318.358 118.709L321.982 125.955L244.458 164.754L250.573 188.91L406.223 149.657L393.617 99.6865Z" fill="#FADCDC"/>
<path d="M298.951 79.9414L192.224 133.347L215.262 179.386L321.989 125.981L298.951 79.9414Z" fill="#FAAA1E"/>
<path d="M233.212 162.111C223.701 166.867 212.907 163.621 207.849 153.506C202.792 143.391 206.641 132.823 216.153 128.067C225.739 123.236 236.533 126.558 241.591 136.673C246.648 146.788 242.799 157.355 233.212 162.111ZM219.625 135.012C214.341 137.654 212.907 143.391 216.002 149.505C219.021 155.619 224.456 157.884 229.74 155.242C235.099 152.524 236.458 146.863 233.439 140.749C230.419 134.635 224.984 132.295 219.625 135.012Z" fill="#822D50"/>
<path d="M268.615 127.237L258.802 107.536L266.048 103.912L282.504 136.748L276.163 139.919L250.498 126.558L260.915 147.467L253.593 151.09L237.213 118.33L244.837 114.556L268.615 127.237Z" fill="#822D50"/>
<path d="M313.076 121.425L287.788 134.106L271.333 101.27L296.167 88.8154L299.413 95.3071L282.353 103.837L285.599 110.329L298.885 103.686L302.055 110.102L288.77 116.745L292.242 123.689L309.83 114.933L313.076 121.425Z" fill="#822D50"/>
<path d="M270.426 151.77V162.942L270.275 163.017L265.444 154.261L258.726 157.658L269.068 175.85L276.39 174.038L276.993 148.524L270.426 151.77Z" fill="#822D50"/>
<path d="M249.291 162.413L253.669 179.775L261.519 177.737L256.764 158.639L249.291 162.413Z" fill="#822D50"/>
<path d="M364.858 142.938C363.424 138.862 360.707 137.201 356.706 137.428C360.933 135.767 363.424 131.616 362.065 126.407C360.329 119.538 354.743 116.443 345.534 118.708L328.323 123.01L337.306 158.564L345.761 156.45L342.666 144.071L349.837 142.259C353.385 141.353 355.498 142.183 356.857 146.109C358.065 149.807 359.121 151.996 360.103 152.827L368.783 150.638C367.274 149.732 366.67 148.071 364.858 142.938ZM348.403 135.692L341.005 137.579L338.589 127.841L345.987 125.954C350.441 124.822 353.083 126.03 353.913 129.2C354.743 132.748 352.856 134.56 348.403 135.692Z" fill="#822D50"/>
<path d="M277.824 148.071L283.863 172.151L292.468 169.962L285.901 144.071L277.824 148.071Z" fill="#822D50"/>
<path d="M398.6 135.692L379.578 140.523L377.615 132.974L392.033 129.351L390.297 122.407L375.879 126.03L374.143 119.085L392.637 114.405L390.901 107.31L363.953 114.103L372.935 149.732L400.336 142.787L398.6 135.692Z" fill="#822D50"/>
<path d="M317.001 128.445L292.091 140.9C291.26 143.995 291.185 147.467 292.091 151.091C294.884 162.036 304.621 167.546 314.963 164.98C325.38 162.338 331.343 152.827 328.626 141.882C326.965 135.163 322.587 130.483 317.001 128.445ZM313.151 157.507C307.414 158.941 302.659 155.544 300.923 148.902C299.262 142.259 301.828 137.051 307.565 135.541C313.378 134.107 318.133 137.503 319.794 144.146C321.53 150.713 318.963 155.997 313.151 157.507Z" fill="#822D50"/>
</svg>
