<svg xmlns="http://www.w3.org/2000/svg" width="73" height="73" viewBox="0 0 73 73">
    <g fill="none" fill-rule="evenodd">
        <path fill="#BEF0DC" d="M36.808 1C17.07 1 1 16.46 1 35.469v9.427c0 .652.53 1.179 1.183 1.179H15.2v14.14c0 1.18.994 1.18 2.154 1.18h20.33v9.427c0 .651.53 1.178 1.183 1.178h31.95A1.18 1.18 0 0 0 72 70.822V35.469C72 16.46 56.214 1 36.808 1"/>
        <path stroke="#28283C" stroke-linecap="round" stroke-linejoin="round" stroke-width="2" d="M36.808 1C17.07 1 1 16.46 1 35.469v9.427c0 .652.53 1.179 1.183 1.179H15.2v14.14c0 1.18.994 1.18 2.154 1.18h20.33v9.427c0 .651.53 1.178 1.183 1.178h31.95A1.18 1.18 0 0 0 72 70.822V35.469C72 16.46 56.214 1 36.808 1z"/>
        <path fill="#28283C" d="M14 33.6a3.6 3.6 0 0 1-3.6-3.6H8a6 6 0 1 0 12 0h-2.4a3.6 3.6 0 0 1-3.6 3.6"/>
        <path fill="#FFF" d="M21 15.056l1.194 10.9c.319 4.443 1.91 7.481 4.774 9.116 2.863 1.635 7.638 2.23 14.322 1.786l9.549-2.423 4.774-4.845L58 23.534v-8.478l-4.774 1.211-4.774 2.423-1.194-1.212L40.097 9l-3.58 2.422-1.194 3.634-2.388 2.422-5.967-2.422H21z"/>
        <path fill="#28283C" d="M42.03 35.517c4.522-4.578 6.643-8.65 6.667-12.699a12.593 12.593 0 0 0-.4-3.117 16.063 16.063 0 0 1 8.279-2.885c-.255 12.522-4.34 17.865-14.546 18.7m-20.606-18.7a22.833 22.833 0 0 1 9.697 1.896 12.427 12.427 0 0 0-.666 3.86c0 4.143 2.072 8.237 6.739 13.005-11.236-.577-15.515-5.745-15.77-18.76m18.182-5.99c4.57 4.542 6.703 8.367 6.679 11.98-.024 3.614-2.146 7.367-6.655 11.768-4.582-4.541-6.715-8.344-6.69-11.98.024-3.636 2.145-7.366 6.666-11.768m18.182 3.636a17.862 17.862 0 0 0-10.291 2.953 30.356 30.356 0 0 0-7.042-9.085 1.238 1.238 0 0 0-1.685 0 31.078 31.078 0 0 0-6.667 8.238c-2.897-1.46-6.618-2.106-11.89-2.106-.67 0-1.213.527-1.213 1.176C19 31.505 24.636 37.812 39 38h.606C53.364 37.812 59 31.304 59 15.64a1.165 1.165 0 0 0-.352-.836 1.297 1.297 0 0 0-.86-.341"/>
    </g>
</svg>
