<svg xmlns="http://www.w3.org/2000/svg" width="20" height="20" viewBox="0 0 20 20">
    <g fill="#28283C" fill-rule="evenodd">
        <path d="M9.984.032c-2.711 0-3.051.01-4.116.06C4.805.14 4.079.309 3.444.556a4.894 4.894 0 0 0-1.768 1.151A4.893 4.893 0 0 0 .524 3.476C.277 4.11.11 4.836.06 5.899.012 6.964 0 7.304 0 10.016c0 2.711.012 3.051.06 4.116.049 1.063.217 1.789.464 2.424a4.893 4.893 0 0 0 1.152 1.768 4.894 4.894 0 0 0 1.768 1.152c.635.247 1.361.415 2.424.464 1.065.048 1.405.06 4.116.06 2.712 0 3.052-.012 4.117-.06 1.062-.049 1.788-.217 2.423-.464a4.894 4.894 0 0 0 1.769-1.152 4.894 4.894 0 0 0 1.151-1.768c.247-.635.416-1.361.464-2.424.049-1.065.06-1.405.06-4.116 0-2.712-.011-3.052-.06-4.117-.048-1.062-.217-1.788-.464-2.423a4.894 4.894 0 0 0-1.151-1.769A4.894 4.894 0 0 0 16.524.556C15.89.309 15.164.14 14.101.092c-1.065-.05-1.405-.06-4.117-.06m0 1.798c2.666 0 2.982.01 4.035.059.973.044 1.502.207 1.854.343.466.182.798.398 1.148.747.35.35.565.682.747 1.148.136.352.299.88.343 1.854.048 1.053.059 1.369.059 4.035 0 2.666-.01 2.981-.059 4.034-.044.974-.207 1.502-.343 1.854a3.092 3.092 0 0 1-.747 1.148c-.35.35-.682.566-1.148.747-.352.137-.88.3-1.854.344-1.053.048-1.369.058-4.035.058-2.666 0-2.982-.01-4.034-.058-.974-.045-1.502-.207-1.854-.344a3.093 3.093 0 0 1-1.148-.747 3.095 3.095 0 0 1-.747-1.148c-.137-.352-.3-.88-.344-1.854-.048-1.053-.058-1.368-.058-4.034 0-2.666.01-2.982.058-4.035.045-.973.207-1.502.344-1.854.181-.466.398-.798.747-1.148.35-.35.682-.565 1.148-.747.352-.136.88-.299 1.854-.343 1.053-.048 1.368-.059 4.034-.059"/>
        <path d="M9.984 13.344a3.328 3.328 0 1 1 0-6.656 3.328 3.328 0 0 1 0 6.656m0-8.455a5.127 5.127 0 1 0 0 10.254 5.127 5.127 0 0 0 0-10.254M16.512 4.686a1.198 1.198 0 1 1-2.396 0 1.198 1.198 0 0 1 2.396 0"/>
    </g>
</svg>
