<svg width="407" height="275" viewBox="0 0 407 275" fill="none" xmlns="http://www.w3.org/2000/svg">
<path d="M209.181 160.835C227 94.3362 209.003 39.7239 150.509 24.0505C91.1955 8.15759 48.3035 46.4547 30.4851 112.954C12.4472 180.272 30.4443 234.884 89.7576 250.777C148.251 266.451 191.143 228.154 209.181 160.835Z" fill="#FADCDC"/>
<g opacity="0.5">
<path opacity="0.5" d="M100.587 155.652L97.5117 168.137C97.5117 168.137 112.639 172.191 112.927 171.119C113.214 170.048 115.551 159.054 115.551 159.054L100.587 155.652Z" fill="#28283C"/>
<path opacity="0.5" d="M144.03 151.35L129.444 151.833L123.691 156.912L127.22 172.99L144.115 171.707L144.03 151.35Z" fill="#28283C"/>
</g>
<path d="M102.062 104.503C100.943 105.149 99.9461 106.098 99.2132 107.32C98.0424 109.168 97.3252 111.34 97.163 113.459C97.0221 115.245 97.9787 116.717 99.5545 117.14C101.193 117.579 103.422 116.825 105.061 113.481C105.963 111.628 106.205 109.464 105.636 107.555C105.171 106.011 103.693 104.467 102.062 104.503Z" fill="#28283C"/>
<path d="M135.144 115.934C135.564 116.384 136.177 116.616 136.984 116.63C139.405 116.67 141.326 113.537 141.98 111.348C142.706 108.637 142.23 105.875 140.614 104.091C140.551 104.074 140.488 104.057 140.425 104.04C140.362 104.023 140.362 104.023 140.299 104.006C139.417 103.77 138.639 103.899 137.886 104.441C135.706 106.019 134.478 110.351 134.311 112.738C134.255 114.209 134.506 115.29 135.144 115.934Z" fill="#28283C"/>
<path d="M170.663 104.643C170.617 104.563 170.588 104.42 170.336 104.353C168.651 103.834 163.823 105.715 160.941 107.645C161.142 108.915 161.388 110.265 161.588 111.534C162.838 110.653 164.196 109.869 165.492 109.067C168.049 107.591 170.99 105.947 170.663 104.643Z" fill="#28283C"/>
<path d="M162.149 179.783L161.978 150.418C172.465 140.527 178.413 126.65 178.355 112.244C178.316 102.303 175.481 92.9635 170.564 85.0929C172.075 83.7412 173.086 81.9853 173.404 80.0437C173.856 77.5978 173.187 75.0539 171.454 72.6979C170.123 70.8551 167.725 69.4693 164.321 68.5573C162.367 68.0337 160.661 67.8467 160.139 67.7746C158.61 67.4323 156.419 67.7912 155.505 69.4379C147.101 63.7405 136.932 60.3403 126.024 60.4576C112.094 60.5081 99.069 66.0033 89.263 75.874C79.4571 85.7447 74.124 98.8406 74.1746 112.771C74.1697 116.823 74.6568 120.804 75.5896 124.635C74.9885 124.609 74.3998 124.789 73.9034 125.129C72.7676 125.838 72.1101 127.283 71.9198 128.246C71.4345 129.805 69.6195 136.074 72.1079 139.646C73.2829 141.312 74.862 142.478 76.6899 142.968C78.77 143.525 81.1664 143.154 83.2905 142.034C85.1453 144.693 87.2398 147.213 89.5741 149.595C92.4543 152.461 95.5956 154.857 98.8845 156.954L93.7501 176.116C92.0268 175.992 90.1775 175.834 88.2482 175.723L87.8531 175.684C87.2059 175.578 86.6127 176.027 86.5068 176.675L85.8164 181.016L77.0052 181.628C77.0558 181.439 77.1234 181.186 77.111 180.98C76.994 180.409 76.5573 180.021 76.0193 180.012L70.1808 179.867C69.9625 179.673 69.6642 179.526 69.3783 179.584L66.2592 179.627C65.5782 179.647 65.0942 180.193 65.1313 180.811L65.6721 213.586C65.6507 213.918 65.7891 214.158 66.0536 214.431C66.2258 214.545 66.398 214.659 66.5871 214.709C66.7132 214.743 66.7762 214.76 66.9192 214.731L69.9122 214.654C70.1812 214.659 70.4502 214.663 70.5763 214.697C71.0513 214.689 71.4509 214.459 71.6321 214.034L71.9102 213.501C73.7644 209.606 77.1148 202.397 78.4446 197.687C78.5628 197.246 78.475 196.817 78.1475 196.526C78.1475 196.526 78.1475 196.526 78.0845 196.509C78.2151 196.274 78.3288 196.102 78.4593 195.867C78.8556 194.892 81.0844 194.138 83.8298 193.725L83.7577 194.246C83.6732 194.561 83.7948 194.864 83.9332 195.104C84.0716 195.344 84.3069 195.474 84.559 195.542C84.622 195.559 84.622 195.559 84.6851 195.576C84.8111 195.609 86.2316 195.855 88.5222 196.131L88.0155 198.022C87.8466 198.652 88.2158 199.292 88.8461 199.46L90.737 199.967C90.1942 204.01 89.4172 206.91 88.6708 208.939C88.4693 208.682 88.188 208.472 87.8559 208.451C87.3348 208.378 86.8215 208.781 86.6233 209.269L84.868 214.811C84.6283 214.949 84.4177 215.231 84.3502 215.483L83.5395 218.509C83.3706 219.139 83.7397 219.778 84.3701 219.947L116.138 228.459C116.769 228.628 117.408 228.259 117.577 227.629L118.421 224.477C118.455 224.351 118.552 224.242 118.603 224.053C118.721 223.612 118.57 223.166 118.243 222.875L117.743 222.471C114.514 219.647 108.492 214.385 104.309 211.846C104.136 211.732 103.947 211.681 103.804 211.711C103.44 210.802 102.972 208.515 103.642 203.492L104.524 203.729C105.155 203.898 105.794 203.529 105.963 202.898L107.432 197.415C124.276 197.334 135.134 193.623 140.565 185.958C145.445 179.091 145.963 171.866 144.772 165.466L160.202 180.748C160.357 180.925 160.546 180.975 160.735 181.026C160.987 181.093 161.256 181.098 161.496 180.96C161.833 180.712 162.157 180.258 162.149 179.783ZM68.0191 212.391L67.4882 181.847L68.2952 181.861C68.4153 186.96 69.009 207.184 69.0952 212.409L68.0191 212.391ZM76.3422 194.691C73.8864 192.007 73.111 190.11 73.1146 187.071C73.1204 185.789 73.5167 184.814 74.1313 184.033L74.1943 184.05L85.4943 183.227L85.1261 185.357L84.1733 191.182C80.9991 191.683 77.4376 192.62 76.3422 194.691ZM89.0841 193.782C87.8988 193.667 86.8734 193.46 86.2093 193.417L88.7162 178.01C90.3135 178.1 91.7677 178.219 93.222 178.339L89.0841 193.782V193.782ZM159.8 70.0483C159.8 70.0483 167.135 70.6624 169.611 74.0282C172.473 77.9703 171.283 81.9075 168.065 84.0853C168.065 84.0853 163.933 86.8967 162.96 85.4873C162.557 84.974 162.961 84.4743 163.883 83.3026C162.192 84.0656 160.589 85.2575 159.8 84.1679C159.305 83.4947 160.564 82.0754 161.275 81.1851C161.275 81.1851 157.333 84.0472 156.452 82.7977C155.663 81.7081 157.249 80.5792 158.789 79.3705C156.926 80.0198 156.136 79.9432 155.733 79.4299C155.145 78.5969 156.85 77.0268 157.763 76.3932L161.62 73.8463C154.554 70.4666 158.523 69.7736 159.8 70.0483ZM146.576 105.283C147.114 105.292 147.534 105.742 147.588 106.297C147.61 108.735 147.822 111.224 148.336 113.591C148.587 114.672 148.855 115.689 149.539 116.413C150.114 117.04 151.312 117.361 151.808 117.021C154.336 115.402 153.593 104.056 153.107 102.844C152.91 102.319 153.125 101.768 153.588 101.554C154.05 101.341 154.681 101.51 154.878 102.035C155.658 103.663 156.681 116.233 152.903 118.733C152.087 119.258 151.137 119.273 150.191 119.02C149.372 118.801 148.603 118.392 148.074 117.845C147.063 116.831 146.69 115.447 146.381 114.081C145.837 111.571 145.533 108.922 145.562 106.295C145.571 105.757 146.038 105.274 146.576 105.283ZM136.692 102.837C137.942 101.956 139.434 101.68 140.93 102.149C140.93 102.149 140.93 102.149 140.993 102.166C141.262 102.17 141.578 102.255 141.796 102.448C144.084 104.75 144.862 108.404 143.916 111.934C143.189 114.644 140.684 118.702 136.98 118.655C136.505 118.663 136.047 118.608 135.669 118.507C134.913 118.304 134.207 117.912 133.695 117.302C132.7 116.225 132.252 114.619 132.364 112.689C132.489 109.953 133.777 104.894 136.692 102.837ZM124.081 174.109C121.816 177.015 117.578 177.704 112.689 177.543L116.405 163.675C118.662 164.077 121.015 164.37 123.34 164.52C125.021 168.078 125.815 171.669 124.081 174.109ZM79.7221 106.691C79.3484 106.321 79.3282 105.64 79.7616 105.283C80.3886 104.708 81.0156 104.133 81.7349 103.717C81.7225 103.511 81.664 103.225 81.6517 103.019C81.5977 102.465 81.9388 101.948 82.4937 101.894C82.9856 101.823 83.4392 102.147 83.5731 102.656C84.898 101.998 86.3151 101.499 87.7908 101.287C89.7753 100.94 90.6825 101.588 91.1146 102.245C91.9036 103.334 91.5613 104.864 90.2059 106.393C89.6251 107.048 88.9812 107.686 88.3373 108.324C88.989 108.161 89.6238 108.061 90.3386 107.914C90.6876 107.873 91.3224 107.773 91.9189 108.068C92.4693 108.283 92.8261 108.716 92.9431 109.288C93.2278 110.242 92.8608 111.36 92.406 112.049C90.3717 115.355 87.1535 117.532 84.1918 119.509C84.1704 119.841 84.1321 120.236 84.1737 120.585C84.1647 121.123 83.6514 121.526 83.1133 121.517C83.0503 121.5 82.9873 121.483 82.9242 121.466C82.483 121.348 82.1262 120.914 82.1814 120.456C82.2152 120.33 82.186 120.187 82.2366 119.998C81.7031 119.72 81.54 119.068 81.818 118.535C81.9486 118.3 82.1254 118.144 82.3651 118.006C82.4092 116.329 82.4532 114.651 82.4173 113.02L82.3374 113.067C81.8579 113.343 81.2906 113.191 80.9968 112.775C80.72 112.295 80.809 111.711 81.2885 111.434C81.3853 111.325 81.5282 111.296 81.6251 111.187C81.8648 111.048 82.1215 110.847 82.3612 110.709C82.2916 109.204 82.1589 107.682 82.0262 106.16C81.7527 106.424 81.433 106.609 81.1594 106.873C80.7598 107.104 80.1588 107.078 79.7221 106.691ZM83.4664 139.109C80.4034 141.463 76.4436 141.618 74.0936 138.286C72.0374 135.371 74.252 128.871 74.252 128.871C74.4468 127.639 76.5272 124.413 76.9352 131.211L80.5914 128.407C81.5212 127.711 83.5024 126.62 83.9976 127.293C84.3375 127.79 84.0886 128.466 82.8132 129.948C84.4454 128.9 86.0315 127.771 86.6651 128.684C87.4541 129.773 83.4658 132.555 83.4658 132.555C84.5172 132.162 86.2248 131.335 86.6738 131.929C87.3075 132.842 85.7214 133.97 84.3537 135.293C85.7078 134.778 86.3134 134.534 86.6072 134.951C87.4423 136.121 83.4664 139.109 83.4664 139.109ZM106.834 114.428C104.638 118.84 101.3 119.701 99.0307 119.093C96.5724 118.435 94.9821 116.049 95.1704 113.33C95.354 110.88 96.1557 108.392 97.5201 106.326C98.4466 104.885 99.6545 103.655 100.933 102.916C101.047 102.744 101.27 102.669 101.413 102.64C102.115 102.287 102.864 102.015 103.641 101.886C104.196 101.832 104.713 102.173 104.767 102.728C104.779 102.934 104.792 103.14 104.661 103.375C106.056 104.221 107.029 105.631 107.511 107.111C108.248 109.403 107.934 112.088 106.834 114.428ZM111.401 105.451C111.393 104.976 111.701 104.586 112.066 104.481C112.512 104.33 112.936 104.511 113.184 104.848L120.237 115.588C119.873 110.896 119.509 106.205 119.207 101.53C119.153 100.975 119.621 100.492 120.159 100.501C120.714 100.447 121.196 100.915 121.187 101.453C121.504 107.077 121.947 112.736 122.47 118.348C122.495 118.76 122.251 119.167 121.931 119.352C121.229 119.704 120.38 119.342 119.62 118.395L113.524 109.127C113.721 112.423 114.069 117.178 114.612 119.688C114.746 120.197 114.388 120.776 113.879 120.91C113.736 120.94 113.53 120.952 113.404 120.918C113.089 120.834 112.762 120.543 112.657 120.177C111.767 115.683 111.426 105.863 111.401 105.451ZM90.5425 197.415L101.082 158.083C105.144 160.32 109.547 162.04 114.056 163.114L103.905 200.996L90.5425 197.415V197.415ZM115.853 224.735L115.566 225.806L86.0665 217.902L86.2692 217.146C91.1396 218.383 110.73 223.43 115.853 224.735ZM101.622 212.544C97.916 214.524 95.8055 214.837 92.6539 213.992C91.3302 213.638 90.4106 212.783 89.8232 211.95C90.8555 209.862 92.0872 206.274 92.9432 200.558L101.326 202.805C100.555 208.205 100.997 211.093 101.622 212.544ZM120.123 133.663C118.841 133.657 117.484 133.428 116.223 133.091C113.45 132.347 111.097 131.042 110.447 130.192C110.09 129.758 110.196 129.111 110.675 128.834C111.109 128.477 111.756 128.583 112.05 129C112.436 129.576 116.326 131.699 120.126 131.637C122.232 131.593 123.762 130.922 124.735 129.561C127.943 125.152 127.74 112.802 125.944 102.862C125.827 102.29 126.231 101.791 126.723 101.72C127.295 101.603 127.795 102.007 127.865 102.499C129.239 110.231 130.512 124.894 126.314 130.728C124.984 132.668 122.83 133.645 120.123 133.663ZM138.596 184.484C133.715 191.351 123.669 194.807 107.965 194.923L112.001 179.858C117.823 180.067 122.948 179.346 125.941 175.486C128.097 172.483 127.547 168.485 125.887 164.595C126.093 164.582 126.362 164.587 126.551 164.638C131.696 164.598 136.695 163.843 141.548 162.373C143.574 168.929 143.914 176.991 138.596 184.484ZM163.874 126.199C163.731 126.229 163.525 126.241 163.336 126.19C163.02 126.106 162.756 125.832 162.651 125.466C161.225 119.95 160.038 114.295 159.073 108.564C158.884 108.513 158.632 108.446 158.477 108.269C158.12 107.836 158.146 107.235 158.579 106.878C158.659 106.832 158.676 106.769 158.739 106.786C158.681 106.5 158.639 106.151 158.581 105.865C158.527 105.31 158.868 104.793 159.423 104.739C159.978 104.685 160.431 105.01 160.565 105.518C163.636 103.639 168.355 101.66 170.905 102.479C171.771 102.778 172.363 103.342 172.538 104.2C173.237 106.887 169.943 108.842 166.507 110.826C165.531 111.443 164.509 111.98 163.533 112.596C166.643 113.092 169.786 113.461 172.901 113.688C173.439 113.697 173.842 114.21 173.833 114.748C173.824 115.286 173.31 115.689 172.772 115.68C169.183 115.461 165.581 115.037 162.047 114.36C162.778 117.934 163.589 121.462 164.48 124.943C164.74 125.486 164.382 126.065 163.874 126.199Z" fill="#28283C"/>
<path d="M80.9281 123.632L77.4481 105.607L83.2402 95.3367C83.2402 95.3367 121.577 94.4621 122.523 94.7154C123.468 94.9688 155.604 98.5802 156.348 98.5769C157.155 98.5905 172.517 100.004 172.517 100.004C172.517 100.004 176.948 106.664 176.774 107.563C176.601 108.463 176.152 118.206 176.152 118.206L172.58 128.26L165.49 133.792L142.483 138.977L125.879 138.919L110.696 135.324L80.9281 123.632Z" fill="#28283C"/>
<path d="M105.836 105.038C104.533 101.582 100.777 99.9672 97.5587 102.145C93.7471 104.772 93.5553 110.53 94.4205 114.613C95.2565 118.553 97.7606 123.074 101.887 124.315C106.959 125.809 108.823 120.364 108.874 116.392C108.88 115.11 106.917 115.124 106.911 116.406C106.901 117.957 106.843 120.441 105.509 121.638C103.468 123.455 101.242 122.183 99.7936 120.782C98.1729 119.267 97.1161 117.159 96.5344 115.044C95.9065 112.849 95.7919 110.251 96.257 108.012C96.9461 104.683 101.882 100.128 103.927 105.608C104.384 106.676 106.276 106.17 105.836 105.038Z" fill="#FADCDB"/>
<path d="M114.771 99.9349C114.518 107.434 114.454 114.983 114.533 122.503C114.528 123.785 116.491 123.771 116.496 122.489C116.417 114.969 116.481 107.419 116.734 99.9204C116.739 98.6383 114.776 98.6528 114.771 99.9349Z" fill="#FADCDB"/>
<path d="M124.585 124.318C128.122 115.402 131.408 106.419 134.458 97.3052C133.84 97.3423 133.176 97.2994 132.558 97.3365C134.462 107.373 137.305 117.187 141.182 126.67C141.622 127.802 143.577 127.312 143.074 126.164C139.26 116.697 136.355 106.866 134.45 96.8302C134.245 95.8295 132.849 95.9959 132.55 96.8615C129.5 105.975 126.215 114.958 122.677 123.874C122.247 124.975 124.138 125.481 124.585 124.318Z" fill="#FADCDB"/>
<path d="M153.628 103.927C148.88 105.763 146.508 110.329 146.994 115.324C147.413 119.557 149.699 123.885 154.677 122.449C163.251 119.95 165.17 104.723 154.67 104.072C153.405 104.003 153.419 105.966 154.684 106.035C162.385 106.544 160.632 116.614 155.799 119.777C151.302 122.693 148.97 118.285 148.912 114.216C148.895 110.496 150.643 107.249 154.197 105.837C155.328 105.397 154.822 103.504 153.628 103.927Z" fill="#FADCDB"/>
<path d="M123.907 115.759C130.08 113.9 136.28 114.21 142.237 116.685C143.401 117.132 143.908 115.241 142.744 114.794C136.534 112.252 129.859 111.95 123.384 113.93C122.223 114.227 122.729 116.119 123.907 115.759Z" fill="#FADCDB"/>
<path d="M393.839 99.6865L318.58 118.709L322.204 125.955L244.681 164.754L250.795 188.91L406.445 149.657L393.839 99.6865Z" fill="#FADCDC"/>
<path d="M299.174 79.9414L192.446 133.347L215.484 179.386L322.211 125.981L299.174 79.9414Z" fill="#FAAA1E"/>
<path d="M233.434 162.111C223.923 166.867 213.129 163.621 208.071 153.506C203.014 143.391 206.864 132.823 216.375 128.067C225.961 123.236 236.756 126.558 241.813 136.673C246.871 146.788 243.021 157.355 233.434 162.111ZM219.847 135.012C214.563 137.654 213.129 143.391 216.224 149.505C219.243 155.619 224.678 157.884 229.962 155.242C235.321 152.524 236.68 146.863 233.661 140.749C230.641 134.635 225.206 132.295 219.847 135.012Z" fill="#822D50"/>
<path d="M268.837 127.237L259.024 107.536L266.27 103.912L282.726 136.748L276.385 139.919L250.72 126.558L261.137 147.467L253.815 151.09L237.435 118.33L245.059 114.556L268.837 127.237Z" fill="#822D50"/>
<path d="M313.298 121.425L288.01 134.106L271.555 101.27L296.389 88.8154L299.635 95.3071L282.575 103.837L285.821 110.329L299.107 103.686L302.277 110.102L288.992 116.745L292.464 123.689L310.052 114.933L313.298 121.425Z" fill="#822D50"/>
<path d="M270.648 151.77V162.942L270.497 163.017L265.666 154.261L258.948 157.658L269.29 175.85L276.612 174.038L277.216 148.524L270.648 151.77Z" fill="#822D50"/>
<path d="M249.513 162.413L253.891 179.775L261.741 177.737L256.986 158.639L249.513 162.413Z" fill="#822D50"/>
<path d="M365.081 142.938C363.646 138.862 360.929 137.201 356.928 137.428C361.155 135.767 363.646 131.616 362.288 126.407C360.552 119.538 354.966 116.443 345.756 118.708L328.546 123.01L337.529 158.564L345.983 156.45L342.888 144.071L350.059 142.259C353.607 141.353 355.721 142.183 357.079 146.109C358.287 149.807 359.344 151.996 360.325 152.827L369.006 150.638C367.496 149.732 366.892 148.071 365.081 142.938ZM348.625 135.692L341.227 137.579L338.812 127.841L346.209 125.954C350.663 124.822 353.305 126.03 354.135 129.2C354.966 132.748 353.079 134.56 348.625 135.692Z" fill="#822D50"/>
<path d="M278.046 148.071L284.085 172.151L292.69 169.962L286.123 144.071L278.046 148.071Z" fill="#822D50"/>
<path d="M398.822 135.692L379.8 140.523L377.838 132.974L392.255 129.351L390.519 122.407L376.101 126.03L374.365 119.085L392.859 114.405L391.123 107.31L364.175 114.103L373.158 149.732L400.559 142.787L398.822 135.692Z" fill="#822D50"/>
<path d="M317.223 128.445L292.313 140.9C291.483 143.995 291.407 147.467 292.313 151.091C295.106 162.036 304.843 167.546 315.185 164.98C325.602 162.338 331.565 152.827 328.848 141.882C327.187 135.163 322.809 130.483 317.223 128.445ZM313.373 157.507C307.636 158.941 302.881 155.544 301.145 148.902C299.484 142.259 302.051 137.051 307.787 135.541C313.6 134.107 318.355 137.503 320.016 144.146C321.752 150.713 319.186 155.997 313.373 157.507Z" fill="#822D50"/>
</svg>
