<svg xmlns="http://www.w3.org/2000/svg" width="35" height="35" viewBox="0 0 35 35">
    <g fill="none" fill-rule="evenodd">
        <circle cx="17.5" cy="17.5" r="17" fill="#822D50" stroke="#822D50"/>
        <path fill="#FFF" fill-rule="nonzero" d="M18.25 10.545c.414 0 .75-.346.75-.772A.762.762 0 0 0 18.25 9C13.694 9 10 12.806 10 17.5s3.694 8.5 8.25 8.5h.375C22.145 26 25 23.06 25 19.432c0-3.628-2.854-6.568-6.375-6.568h-.375c-2.485 0-4.5 2.075-4.5 4.636 0 2.56 2.015 4.636 4.5 4.636h.375c1.45 0 2.625-1.21 2.625-2.704 0-1.494-1.175-2.705-2.625-2.705h-.375a.762.762 0 0 0-.75.773c0 .427.336.773.75.773h.375c.621 0 1.125.519 1.125 1.159s-.504 1.159-1.125 1.159h-.375c-1.657 0-3-1.384-3-3.091 0-1.707 1.343-3.09 3-3.09h.375c2.692 0 4.875 2.248 4.875 5.022s-2.183 5.023-4.875 5.023h-.375c-3.728 0-6.75-3.114-6.75-6.955 0-3.84 3.022-6.955 6.75-6.955z"/>
    </g>
</svg>
