<svg xmlns="http://www.w3.org/2000/svg" width="119" height="68" viewBox="0 0 119 68">
    <g fill="none" fill-rule="evenodd">
        <path fill="#BEF0DC" d="M81 22.678C81 43.323 59.5 65 59.5 65S38 43.323 38 22.678C38 11.846 44.79 1 59.5 1 75.342 1 81 11.846 81 22.678"/>
        <path stroke="#28283C" stroke-linecap="round" stroke-linejoin="round" stroke-width="2" d="M81 22.678C81 43.323 59.5 65 59.5 65S38 43.323 38 22.678C38 11.846 44.79 1 59.5 1 75.342 1 81 11.846 81 22.678z"/>
        <path fill="#FFF" d="M69 22a9 9 0 1 1-18 0 9 9 0 0 1 18 0"/>
        <path stroke="#28283C" stroke-linecap="round" stroke-linejoin="round" stroke-width="2" d="M69 22a9 9 0 1 1-18 0 9 9 0 0 1 18 0z"/>
        <path fill="#FFF" d="M88.156 67s-2.2-15.91 9.9-25"/>
        <path stroke="#28283C" stroke-linecap="round" stroke-linejoin="round" stroke-width="2" d="M88.156 67s-2.2-15.91 9.9-25"/>
        <path fill="#FFF" d="M102 33c0 4.194-2.326 7.814-3.634 9.52-.491.64-1.242.64-1.732 0C95.326 40.814 93 37.194 93 33s2.326-7.816 3.634-9.52c.49-.64 1.24-.64 1.732 0C99.674 25.184 102 28.806 102 33"/>
        <path stroke="#000" stroke-width="2" d="M102 33c0 4.194-2.326 7.814-3.634 9.52-.491.64-1.242.64-1.732 0C95.326 40.814 93 37.194 93 33s2.326-7.816 3.634-9.52c.49-.64 1.24-.64 1.732 0C99.674 25.184 102 28.806 102 33z"/>
        <path fill="#FFF" d="M102.297 51.99c-3.025-2.824-3.983-6.808-4.282-8.826-.113-.757.421-1.255 1.234-1.15 2.16.28 6.429 1.173 9.454 3.996 3.025 2.825 3.982 6.81 4.282 8.826.114.757-.422 1.255-1.233 1.15-2.16-.278-6.43-1.173-9.455-3.996"/>
        <path stroke="#000" stroke-width="2" d="M102.297 51.99c-3.025-2.824-3.983-6.808-4.282-8.826-.113-.757.421-1.255 1.234-1.15 2.16.28 6.429 1.173 9.454 3.996 3.025 2.825 3.982 6.81 4.282 8.826.114.757-.422 1.255-1.233 1.15-2.16-.278-6.43-1.173-9.455-3.996z"/>
        <path fill="#FFF" d="M110.932 40.748c-3.736 1.728-7.961 1.285-10.041.9-.782-.146-1.104-.771-.745-1.444.958-1.792 3.187-5.223 6.922-6.951 3.736-1.73 7.962-1.286 10.041-.9.781.145 1.105.77.744 1.442-.957 1.793-3.186 5.223-6.921 6.953"/>
        <path stroke="#000" stroke-width="2" d="M110.932 40.748c-3.736 1.728-7.961 1.285-10.041.9-.782-.146-1.104-.771-.745-1.444.958-1.792 3.187-5.223 6.922-6.951 3.736-1.73 7.962-1.286 10.041-.9.781.145 1.105.77.744 1.442-.957 1.793-3.186 5.223-6.921 6.953z"/>
        <path fill="#FFF" d="M30.985 67s2.2-15.91-9.9-25"/>
        <path stroke="#28283C" stroke-linecap="round" stroke-linejoin="round" stroke-width="2" d="M30.985 67s2.2-15.91-9.9-25"/>
        <path fill="#FFF" d="M17 33c0 4.194 2.326 7.814 3.634 9.52.491.64 1.242.64 1.732 0C23.674 40.814 26 37.194 26 33s-2.326-7.816-3.634-9.52c-.49-.64-1.24-.64-1.732 0C19.326 25.184 17 28.806 17 33"/>
        <path stroke="#000" stroke-width="2" d="M17 33c0 4.194 2.326 7.814 3.634 9.52.491.64 1.242.64 1.732 0C23.674 40.814 26 37.194 26 33s-2.326-7.816-3.634-9.52c-.49-.64-1.24-.64-1.732 0C19.326 25.184 17 28.806 17 33z"/>
        <path fill="#FFF" d="M16.703 51.99c3.025-2.824 3.983-6.808 4.282-8.826.113-.757-.421-1.255-1.234-1.15-2.16.28-6.43 1.173-9.454 3.996-3.025 2.825-3.983 6.81-4.282 8.826-.113.757.421 1.255 1.233 1.15 2.161-.278 6.43-1.173 9.455-3.996"/>
        <path stroke="#000" stroke-width="2" d="M16.703 51.99c3.025-2.824 3.983-6.808 4.282-8.826.113-.757-.421-1.255-1.234-1.15-2.16.28-6.43 1.173-9.454 3.996-3.025 2.825-3.983 6.81-4.282 8.826-.113.757.421 1.255 1.233 1.15 2.161-.278 6.43-1.173 9.455-3.996z"/>
        <path fill="#FFF" d="M8.068 40.748c3.736 1.728 7.961 1.285 10.04.9.783-.146 1.105-.771.745-1.444-.957-1.792-3.186-5.223-6.922-6.951-3.734-1.73-7.96-1.286-10.04-.9-.78.145-1.104.77-.745 1.442.958 1.793 3.187 5.223 6.922 6.953"/>
        <path stroke="#000" stroke-width="2" d="M8.068 40.748c3.736 1.728 7.961 1.285 10.04.9.783-.146 1.105-.771.745-1.444-.957-1.792-3.186-5.223-6.922-6.951-3.734-1.73-7.96-1.286-10.04-.9-.78.145-1.104.77-.745 1.442.958 1.793 3.187 5.223 6.922 6.953z"/>
        <path stroke="#28283C" stroke-linecap="round" stroke-linejoin="round" stroke-width="2" d="M12 66.5h84M104 66.5h3"/>
    </g>
</svg>
