<svg width="35" height="35" viewBox="0 0 35 35" fill="none" xmlns="http://www.w3.org/2000/svg">
<path d="M34.5 17.5C34.5 26.8888 26.8888 34.5 17.5 34.5C8.11116 34.5 0.5 26.8888 0.5 17.5C0.5 8.11116 8.11116 0.5 17.5 0.5C26.8888 0.5 34.5 8.11116 34.5 17.5Z" fill="#FBB231" stroke="#FBB231"/>
<path d="M17 11C14.2357 11 12 13.191 12 15.9C12 19.575 17 25 17 25C17 25 22 19.575 22 15.9C22 13.191 19.7643 11 17 11ZM17 17.65C16.0143 17.65 15.2143 16.866 15.2143 15.9C15.2143 14.934 16.0143 14.15 17 14.15C17.9857 14.15 18.7857 14.934 18.7857 15.9C18.7857 16.866 17.9857 17.65 17 17.65Z" fill="white"/>
</svg>
