<svg xmlns="http://www.w3.org/2000/svg" width="139" height="110" viewBox="0 0 139 110">
    <g fill="none" fill-rule="evenodd">
        <path fill="#28283C" d="M68.635 109.647c40.661.859 69.467-17.155 70.223-52.917.766-36.252-27.253-55.468-67.914-56.327C29.794-.467.987 17.548.22 53.8c-.755 35.76 27.264 54.977 68.415 55.847"/>
        <path fill="#BEF0DC" d="M37.52 57.014c.122-5.753-1.378-9.055-4.123-9.113-2.18-.046-3.838 2.143-3.94 6.937-.123 5.753 1.334 9.053 4.08 9.112 2.178.045 3.882-2.142 3.983-6.936m-16.068-.994c.137-6.493 5.133-11.794 12.454-11.64 6.538.139 11.729 4.173 11.575 11.45-.138 6.494-5.133 11.795-12.455 11.64-6.537-.138-11.728-4.172-11.574-11.45M55.58 50.158l-.175 8.324c-.088 4.14 1.095 5.953 3.318 6 1.743.036 3.693-1.492 3.79-6.112.094-4.401-1.607-8.492-5.05-8.565-.915-.02-1.442.144-1.882.353zm-7.042-13.316l7.339-.717-.274 12.987c1.19-2.722 3.62-4.197 6.41-4.138 4.619.098 8.497 4.366 8.354 11.12-.146 6.887-4.354 12.073-12.024 11.91-6.537-.137-10.405-2.835-10.251-10.113l.446-21.05zM80.46 50.684l-.175 8.324c-.088 4.14 1.095 5.953 3.318 6 1.743.037 3.693-1.492 3.79-6.112.094-4.401-1.607-8.492-5.05-8.565-.915-.02-1.442.144-1.882.353zm-7.042-13.316l7.339-.717-.274 12.987c1.19-2.722 3.62-4.197 6.41-4.138 4.619.098 8.497 4.366 8.354 11.12-.146 6.887-4.354 12.074-12.024 11.91-6.537-.137-10.405-2.835-10.251-10.113l.446-21.05zM103.325 46.284l4.443 12.563 5.319-12.357 4.707.1-13.831 29.356-4.707-.1 4.14-8.153-8.221-21.581z"/>
    </g>
</svg>
