<svg xmlns="http://www.w3.org/2000/svg" width="431" height="498" fill="none" viewBox="0 0 431 498">
    <g clip-path="url(#a)">
        <path fill="#FAFABE" d="M186.078 339.297c15.865-59.207-.13-107.824-52.156-121.764-52.754-14.135-90.915 19.97-106.78 79.178-16.06 59.937-.064 108.553 52.69 122.689 52.026 13.94 90.186-20.166 106.246-80.103z"/>
        <path fill="#28283C" d="M149.535 264.664c1.247 3.642-.167 6.451-.946 7.566-1.098-.836-3.525-2.99-3.916-6.463-.355-3.163.59-4.894 1.152-5.646.986.805 3.01 2.671 3.71 4.543zm5.717-2.499c-1.059.138-3.179.652-4.165 2.313.96 3.145.268 5.726-.534 7.376a8.982 8.982 0 0 0 3.125-2.471c2.113-2.502 1.803-5.833 1.574-7.218zm-11.094-9.95l-.123-.213c-.627-1.25-1.287-2.149-1.911-2.737-1.191-1.162-2.256-1.447-2.831-1.541-.424.909-1.228 3.46.628 7.747 1.017 2.258 2.698 3.61 4.233 4.383.551-.936 1.094-1.392 1.109-1.448.228-.179.468-.175.692-.115-.449-2.586-1.119-4.57-1.797-6.076zm3.574 7.515c.057.015.041.071.098.086 1.007-1.294 2.368-3.456 2.805-5.985.566-3.458-1.928-5.81-3.026-6.646-.689.778-1.929 2.491-2.018 4.392.924 1.932 1.709 4.608 2.141 8.153zm-5.672-12.468c1.169-1.671 2.477-4.088 2.193-6.389-.292-2.725-2.419-5.1-3.416-6.089-.918.958-2.311 2.569-2.612 3.692 1.164 1.935 2.301 4.646 3.11 8.352.21.116.475.247.725.434zm-9.087-12.058c-.663.905-1.93 3.392-.47 6.911.988 2.37 3.281 4.127 5.261 5.259.191-.49.379-.74.394-.796a.628.628 0 0 1 .568-.329c.056.015.367-.022.774.027-1.876-8.022-5.312-10.446-6.527-11.072z"/>
        <path fill="#28283C" d="M159.759 271.132s4.434-4.887 2.727-11.299c-1.733-6.539-8.164-14.157-16.705-18.611.082 2.608-1.342 5.234-2.582 6.947.373.401.802.817 1.131 1.386.784-2.256 2.432-3.92 2.518-4.017.243-.236.625-.314.931-.112.209.117 5.14 3.242 4.246 8.597-.501 2.993-2.064 5.462-3.229 6.894a11.49 11.49 0 0 1 1.459 1.955c1.966-2.18 5.305-2.308 5.488-2.319.367-.022.658.236.751.562.067.198 1.514 5.338-1.763 9.272-2.517 3.115-5.778 3.624-6.033 3.676l-.056-.015-.056-.015c-.056-.015-.127.027-.239-.004-.056-.015-.168-.045-.209-.116-.363-.217-4.64-2.867-5.186-8.006-.191-1.976.032-3.48.403-4.644-1.8-.903-3.787-2.458-4.98-5.184-1.423-3.208-1.439-5.618-1.13-7.22-2.245-1.263-5.013-3.268-6.272-6.191-.838-2.03-.922-3.736-.673-5.113-.423.007-.916.055-1.339.062-5.822.425-8.701 3.323-9.124 5.796-.237 1.56.006 3.791-.239 4.928a3.323 3.323 0 0 1-1.614 2.214c-2.006 1.207-5.988 3.509-8.061 4.517-2.839 1.405-2.374 3.033-.922 4.565l1.452 1.532s-1.579.96-2.449 2.412c.056.015.112.03.153.101 1.278 1.064 1.584 1.266 1.875 1.525.306.202.542.445 1.834 1.453a.79.79 0 0 1 .122 1.116.755.755 0 0 1-.794.268.735.735 0 0 1-.321-.146c-1.236-.993-1.471-1.236-1.777-1.439-.307-.202-.542-.445-1.681-1.352-.402 1.276-.399 1.938-2.711 2.943-1.631.705-6.276 3.912.193 8.472.403.289.695.547 1.001.75 12.643 9.102 23.087 6.005 23.158 5.964.396-.134.815.098.949.495s-.099.816-.495.95c-.326.093-5.364 1.631-12.652-.322-3.196-.856-6.761-2.353-10.63-4.954-.143.082-.229.18-.3.221-.644.609-1.161 1.192-1.846 1.731-24.658-20.322-36.561-8.414-37.063-7.886-2.389 2.187-3.235 5.569-2.025 8.901.216.539.432 1.078.704 1.632-3.7 7.309-2.047 19.301 7.818 31.147l-4.431 5.55c-4.5-3.612-10.872-3.154-14.138.963l20.6 16.407-7.354 27.443c-.15.561.178 1.131.739 1.281l2.298.616-.466 1.739-.082-.142a.975.975 0 0 0-1.02-.454c-.382.079-.752.34-.858.733l-2.526 9.428-.015.056-.872 3.255a1.04 1.04 0 0 0 .738 1.281l21.36 5.723c5.606 1.502 7.667-1.254 8.172-2.02l.016-.057a2.3 2.3 0 0 0 .369-1.825c-.38-1.726-2.597-3.764-7.946-7.122a14.844 14.844 0 0 1-2.002-1.499l-1.853 1.308a1.143 1.143 0 0 1-.875.127 1.117 1.117 0 0 1-.613-.405c-.358-.457-.234-1.145.264-1.433l1.624-1.129-.66-.899c-.784-1.112-1.526-2.153-3.04-2.558l-.056-.015.391-1.46 2.299.616a1.04 1.04 0 0 0 1.28-.739l5.398-20.148 5.64 4.519c3.265-4.118 2.303-10.391-2.198-14.002l3.885-4.854c.65-.187 1.444-.456 2.222-.668 6.853 2.678 13.342 3.575 19.037 3.176-1.531 6.387-5.904 13.516-7.635 15.939-.304.46-.245 1.138.214 1.441l1.767 1.255-1.636 1.848c-.042-.072-.011-.184-.011-.184-.063-.438-.34-.752-.732-.857-.392-.106-.845.014-1.103.305l-6.42 7.363-2.254 2.584c-.173.194-.248.475-.267.771.037.31.16.524.354.696l16.647 14.566c1.513 1.307 2.839 1.963 3.96 2.264 2.243.601 3.721-.206 4.218-.494l.056.015c.569-.329.944-.83 1.124-1.503.41-1.755-.655-4.507-4.027-9.861a11.296 11.296 0 0 1-1.089-2.217l-2.258.357a1.08 1.08 0 0 1-.423.007c-.392-.105-.669-.419-.732-.857-.088-.566.301-1.123.866-1.212l1.948-.32a14.335 14.335 0 0 1-.193-1.074c-.244-1.329-.448-2.587-1.613-3.621l-.056-.015 2.067-2.333 3.13 2.222a.735.735 0 0 0 .321.146c.169.045.296.019.423-.007.254-.052.539-.216.655-.426.966-1.365 9.509-13.512 11.314-26.081.283-1.728.338-3.278.321-4.786 1.52-.736 2.823-2.01 3.625-3.66 1.601-3.06 1.392-5.642-.84-10.992-.514-1.221-.696-2.111-.923-2.834-.249-1.089-.524-2.306-1.85-2.962a2.4 2.4 0 0 0-.602-.221c-.841-.225-1.731-.043-2.36.51 0 0-.015.057-.071.042-4.454-7.149-10.88-13.442-10.88-13.442l5.181-6.552s7.385 4.506 13.672.777c4.779-2.81 6-6.694 6-6.694s7.349.827 11.142-5.255c4.058-5.95-.114-11.459-.114-11.459zm-32.938-9.607a.935.935 0 0 1-.549.033.745.745 0 0 1-.501-.375c-.939-1.875-2.245-3.729-5.445-4.346-.392-.105-.709-.491-.589-.94.105-.392.491-.71.939-.59 3.873.797 5.507 3.22 6.543 5.182.134.397.014.845-.398 1.036zM81.829 285.92a.707.707 0 0 1-.565.09c-.336-.091-.71-.491-1.22-1.049-.83-.944-2.692-3.188-2.692-3.188s2.11 4.235 2.763 5.613c.395.767.372 1.302-.04 1.493-.198.067-.397.134-.677.059-.336-.09-.684-.364-1.139-.907a442.477 442.477 0 0 1-3.747-4.853c.421.895 1.823 3.736 2.516 5.185.34.753.22 1.202-.121 1.351-.142.082-.382.078-.606.018-.28-.075-.587-.277-.919-.607-1.508-1.547-3.232-3.633-4.139-4.959 0 0 1.428 2.969 1.633 3.325.257.61.402 1.191-.01 1.381a.937.937 0 0 1-.55.033c-.392-.105-.795-.394-1.21-.865-1.283-1.487-2.922-3.671-3.905-6.28-1.143-3.133.106-6.227 3.017-7.673 1.448-.694 2.75-1.067 5.217-.406 1.065.285 2.38.758 3.987 1.489 1.132.484 2.014.78 2.743.976l.729.195c.672.18 1.05.341 1.255.697.38.824-.53 1.302-2.372 1.229-.535-.023-2.546-.141-3.107-.291 0 0 2.49 5.058 3.02 6.223.533.924.622 1.49.14 1.721zm3.805-6.8l.258-.291c.521-.823.609-1.822.132-2.732-.627-1.251-1.86-1.581-2.589-1.776l-.336-.091-.393-.105c-.672-.18-1.457-.39-2.477-.844a43.217 43.217 0 0 0-3.82-1.444c5.501-.572 14.046 1.177 25.892 10.787-1.403.526-3.404.592-6.532-.066-2.609-.579-6.215-2.147-10.135-3.438zm7.253 107.928c-.894.422-2.364.75-4.719.119l-20.35-5.453.346-1.29 24.723 6.624zm-20.302-15.725l.858-3.199 5.998 1.607-1.128 4.209c-1.971.855-4.234-1.014-5.728-2.617zm10.664-2.797l-12.558-3.365 6.842-25.535 11.14 8.88-5.368 20.035-.056-.015zm40.339 15.621c-.972.04-2.43-.351-4.274-1.988l-15.871-13.876.862-.972 19.283 16.836zm-11.292-23.116l2.757-3.111 5.091 3.65-3.805 4.334c-2.21-.051-3.418-2.721-4.043-4.873zm13.009 1.681l-11.627-8.408c2.11-3.164 6.158-10.2 7.547-16.505 4.177-.564 7.817-1.815 10.788-3.485l.337.09a7.921 7.921 0 0 0 3.63.131 32.462 32.462 0 0 1-.29 3.772c-1.563 10.769-8.219 21.256-10.385 24.405zm.727-41.73c-.945-.734-1.019-1.355-.786-1.774.146-.322.471-.415.864-.31a2.6 2.6 0 0 1 .601.221c1.368.727 5.541 2.868 5.541 2.868s-2.192-1.91-3.163-2.772c-.874-.775-1.232-1.232-.954-1.82.131-.265.385-.317.778-.212.28.075.601.221.964.438 1.158.612 6.183 3.161 6.183 3.161-.16-.524-.25-2.653-.242-3.132-.084-1.707.396-2.601 1.069-2.421l.224.06c.796.394.532 1.827 1.736 4.736 2.272 5.421 1.974 7.206.939 9.274-1.383 2.697-4.107 3.892-6.966 3.126-.28-.075-.505-.135-.77-.266-2.601-1.058-4.756-2.658-6.197-4.007-.72-.674-1.034-1.299-.786-1.774.146-.322.456-.359.793-.269.168.045.377.161.602.221.418.233 3.336 1.676 3.336 1.676-1.251-.936-3.361-2.705-4.869-4.252-.568-.573-.713-1.153-.552-1.531.132-.265.416-.43.921-.295.112.03.28.075.433.177 1.367.727 4.229 2.155 5.122 2.635.041.071-2.349-1.772-4.821-3.758zm20.077-40.394c-2.345 2.92-6.567 3.654-9.931 2.752-.953-.255-1.82-.608-2.586-1.114a.733.733 0 0 1-.192-1.074.731.731 0 0 1 1.073-.193c2.798 1.892 7.954 1.71 10.385-1.308 1.165-1.432 1.582-2.764 1.134-3.786-.391-1.007-1.631-1.761-3.108-1.856-.407-.049-.724-.434-.675-.842.049-.408.435-.726.842-.677 2.052.189 3.737 1.302 4.415 2.807.433 1.078.557 2.856-1.357 5.291z"/>
        <g fill="#28283C" opacity=".5">
            <path d="M135.152 340.99c.169-.857.339-1.714.452-2.586.178-1.336.285-2.63.305-3.828a7.921 7.921 0 0 1-3.63-.131l-.337-.09c-2.971 1.67-6.611 2.921-10.788 3.486-.489 2.274-1.304 4.643-2.313 6.838 2.684.299 12.064.947 16.311-3.689zM74.962 349.223l11.13 8.696 2.526-9.428-11.085-8.865-2.571 9.597z" opacity=".5"/>
        </g>
    </g>
    <g clip-path="url(#b)">
        <path fill="#FAAA1E" d="M223.454 79.012c-26.856-46.517-66.879-66.736-107.73-43.151C74.3 59.777 71.8 104.548 98.656 151.064c27.188 47.09 67.211 67.31 108.634 43.395 40.851-23.586 43.352-68.357 16.164-115.447z"/>
        <g fill="#28283C" opacity=".5">
            <path d="M186.779 117.353c-.03.252-.086.461-.116.714-.049.322-.123.6-.216.947-.03.253-.104.531-.16.739l-.204.765a7.876 7.876 0 0 1-.267.86c-.037.139-.118.303-.155.442-.77 2.326-1.749 4.596-3.012 6.677.926.994 1.537 2.052 1.656 3.277.173 1.722-.265 3.504-1.133 5.357l.968 1.675c1.005-.698 2.79-2.081 5.716-4.535 2.883-2.428 4.325-5.318 4.946-7.088-.097-.473-.238-.921-.379-1.369-1.466-4.268-4.344-7.015-7.627-8.941.032.158-.005.297-.017.48zM172.682 145.597l10.081-5.82-3.64-6.305a30.496 30.496 0 0 1-4.853 4.507l-.044.025a77.95 77.95 0 0 1-1.024.768c-.132.076-.264.152-.37.273-.265.152-.503.349-.767.501-.397.229-.767.502-1.163.73-.309.178-.661.382-.994.516l2.774 4.805z" opacity=".5"/>
        </g>
        <path fill="#28283C" d="M166.401 41.699c-.164-.081-.329-.163-.53-.105l-32.824 2.313c-.183-.011-.359.09-.51.236-8.328 6.924-8.513 7.62-8.588 7.898-.018.069-.011.183-.004.296l.57 7.901c.039.272.192.536.382.662l9.727 6.377c.164.081.329.162.556.149 3.72-.267 6.484 2.488 8.053 4.698l-3.676.24c-.227.014-.447.141-.597.287-.126.19-.225.424-.211.651l.303 3.881c.212 3.111-1.161 6.02-3.737 7.86-4.783 3.408-8.424 7.98-10.756 13.089-11.516 17.466-6.801 29.088-5.031 32.358l.051.088.076.132a99.922 99.922 0 0 1 .408.705c1.416 1.946 3.799 2.921 6.433 2.4.945-.193 1.927-.525 2.884-.901 3.782 4.519 8.872 8.047 14.754 10.001.139.037.208.056.322.049l23.795-1.686 3.64 6.305a114.368 114.368 0 0 1-7.871 6.19c-.415.298-.494.873-.221 1.245l.273.371-1.281 1.034.012-.183a.844.844 0 0 0-.484-.838.935.935 0 0 0-.996.105l-5.459 4.268-2.35 1.827c-.194.171-.319.361-.35.614a.812.812 0 0 0 .199.649l15.555 19.826c.172.195.361.321.614.351.183.012.41-.001.586-.103l.132-.076 2.35-1.827c.044-.025.062-.095.106-.12.044-.026.044-.026.063-.095.081-.165.162-.329.174-.512.128-.897.653-5.374-1.401-11.067-.633-1.809-1.691-2.727-2.879-3.158l-.079-.543c-.15-.971.135-1.9.775-2.622l1.125 1.643c.127.221.361.321.613.351.209.056.41-.001.586-.103l.089-.051a112.46 112.46 0 0 0 6.833-5.65l.891 1.543a.803.803 0 0 0 1.111.299l3.17-1.83 1.12 1.94-.183-.012a.94.94 0 0 0-.887.395.908.908 0 0 0-.033.96l3.462 5.996 1.502 2.602c.254.441.81.59 1.25.336l21.79-12.581a.912.912 0 0 0 .335-1.251l-1.502-2.601-.026-.044c-.025-.044-.051-.088-.12-.107a.742.742 0 0 0-.493-.245c-.86-.268-5.211-1.4-11.153-.204-1.934.411-2.951 1.293-3.501 2.374l-.593-.01c-1.16.023-2.223-.598-2.808-1.612l-.28-.485.484-.28a.803.803 0 0 0 .297-1.112l-3.182-5.511c5.845-7.666 9.228-15.734 6.929-22.461-1.792-5.138-5.239-8.262-9.123-10.311.187-1.813.19-3.637.054-5.499-.023-.751-.159-1.495-.251-2.265.132-.076.289-.108.421-.185.176-.101.422-.184.598-.286 2.729-1.576 3.887-4.654 2.793-7.668-.858-2.502-2.486-3.797-6.569-5.378-.91-.357-1.498-.664-1.973-.978a5.865 5.865 0 0 0-1.498-.663 33.24 33.24 0 0 0-11.118-9.395c-2.776-1.455-4.581-4.175-4.837-7.26l-.304-3.882c-.053-.498-.439-.863-.937-.81l-3.676.24c1.242-2.422 3.56-5.523 7.28-5.79.183.012.359-.09.51-.236l8.715-7.677a.949.949 0 0 0 .299-.701l-.571-7.901c-.006-.114-.032-.158-.039-.272-.064-.315-.307-.94-9.558-6.592zm-44.348 64.699c-.372 2.507-.535 5.071-.333 7.658.097 1.591.351 3.149.674 4.726-.037.139-.143.259-.18.398-.244.493-.525 1.126-1.044 1.955-.832 1.303-1.407 2.341-1.85 3.302-.727-4.107-.715-10.287 2.733-18.039zm10.141 18.072l-.088.051c-2.095 1.151-4.083 2.181-4.083 2.181.693-.224 2.998-.908 4.094-1.247.604-.172.933-.009.972.262.109.29-.072.688-.618 1.063-.742.545-1.666 1.079-2.503 1.562-.616.356-1.188.686-1.654.896 0 0 2.349-.709 2.664-.774.491-.166.901-.167 1.035.167.116.404-.222.834-.839 1.19l-.616.356c-1.189.686-2.762 1.418-4.52 1.727-2.476.489-4.583-.822-5.295-3.174-.488-1.658-.457-3.028 1.939-6.705 1.208-1.873 1.303-2.927 1.788-3.207l.132-.076c.648-.198.898.539.615 1.879-.067.391-.432 1.895-.613 2.293 0 0 4.05-1.22 4.988-1.527.806-.23 1.26-.257 1.35.102.167.492-.204.765-.952 1.197-.811.527-2.704 1.62-2.704 1.62s3.375-1.067 4.471-1.406c.604-.173.996-.105 1.13.23.122.517.011.934-.693 1.34zm37.573 56.438l-14.444-18.41.892-.691 14.444 18.409-.892.692zm-3.036-15.12a15.4 15.4 0 0 0-2.699.206c-.542.078-1.04.13-1.494.157l.171-7.329 2.412-1.922 3.145 4.533a4.969 4.969 0 0 0-1.535 4.355zm10.888-8.285c-2.053 1.832-4.132 3.62-6.243 5.25l-5.592-8.058a136.644 136.644 0 0 0 7.024-5.525l4.811 8.333zM172.86 47.905l-5.624.425-.324-4.221c2.271 1.392 4.499 2.81 5.948 3.796zm-38.802-2.348l31.078-2.187.354 5.087-31.078 2.187-.354-5.087zm31.561 4.648l.441 6.153-31.077 2.187-.442-6.153 31.078-2.187zm-33.278-3.656l.325 4.221-5.624.426c1.293-1.217 3.283-2.954 5.299-4.647zm-6.602 6.457l7.056-.487.441 6.153-7.055.487-.442-6.153zm2.317 7.775l5.309-.361.292 4.064-5.601-3.703zm52.441 98.353l-10.615-18.386c.308-.178.686-.338.994-.516a33.005 33.005 0 0 0 8.246-6.76l11.481 19.886-10.08 5.82-.026-.044zm29.007-2.521l.586 1.014-20.206 11.666-.585-1.014 20.205-11.666zm-14.692 1.899l.069.018a16.044 16.044 0 0 0-.117 1.832c-.021.776-.061 1.622-.195 2.405l-7.298-1.254-1.884-3.262 4.71-2.72.28.485c.891 1.543 2.568 2.515 4.435 2.496zm-32.019-33.601a16.909 16.909 0 0 1-7.337 2.237c-4.558.339-9-1.153-12.51-4.183-3.484-2.985-5.562-7.194-5.907-11.756-.345-4.563 1.139-9.006 4.161-12.515 2.978-3.483 7.181-5.556 11.739-5.895 4.559-.34 9.001 1.152 12.511 4.182 3.484 2.985 5.562 7.194 5.907 11.757.458 6.79-3.062 12.996-8.564 16.173zm19.728 7.128c.106.997-.077 2.103-.469 3.152l-1.808-3.131c.464-.62.971-1.266 1.409-1.93.47.61.801 1.184.868 1.909zm11.971-6.206c2.024 5.945-.954 13.191-6.178 20.205l-5.117-8.863c.893-1.809 1.306-3.634 1.133-5.357-.12-1.224-.756-2.327-1.657-3.276a33.114 33.114 0 0 0 4.192-11.65c3.283 1.926 6.135 4.629 7.627 8.941zm-16.474-25.585c-.908.054-1.318.055-1.485-.437-.083-.246-.002-.41.307-.588.176-.102.421-.184.711-.293.938-.306 4.885-1.704 4.885-1.704-.354-.207-1.532-1.231-1.843-1.463-.963-.855-1.256-1.568-.772-1.847l.132-.076c.623-.243 1.271.677 3.508 1.501 4.083 1.582 4.921 2.627 5.522 4.279.768 2.143-.034 4.311-2.015 5.455l-.397.228c-1.95.891-3.935 1.215-5.411 1.302-.725.066-1.237-.109-1.396-.487-.083-.246.042-.436.306-.588.132-.076.264-.153.421-.185.29-.108 2.632-.931 2.632-.931-1.172.206-3.208.441-4.804.422-.637.015-1.017-.236-1.1-.482-.083-.246.017-.48.325-.658a.984.984 0 0 1 .333-.134c1.115-.408 3.369-1.18 4.061-1.404 0 0-2.237.293-4.588.592-.883.098-1.263-.153-1.397-.487-.083-.246.017-.48.325-.658.132-.076.264-.152.421-.185 1.071-.382 4.421-1.493 4.421-1.493.025.044-2.15.241-3.102.321zm-20.227-29.24l-12.522.88c-1.08-1.668-2.909-4.022-5.496-5.35l22.661-1.62c-2.357 1.714-3.82 4.263-4.643 6.09zm-22.339-5.855l-.34-4.86 31.077-2.187.341 4.86-31.078 2.187zm32.776-3.11l-.292-4.064 5.309-.36-5.017 4.425zm6.609-6.343l-7.056.487-.441-6.153 7.055-.487.442 6.153z"/>
        <path fill="#28283C" d="M164.446 98.09a15.668 15.668 0 0 0-11.417-3.814 15.556 15.556 0 0 0-6.732 2.064c-1.497.864-2.841 1.993-4.014 3.316a15.657 15.657 0 0 0-3.795 11.421 15.654 15.654 0 0 0 5.392 10.762 15.666 15.666 0 0 0 11.417 3.814c8.619-.626 15.133-8.15 14.54-16.802a15.652 15.652 0 0 0-5.391-10.761z"/>
    </g>
    <g clip-path="url(#c)">
        <path fill="#00D2C8" d="M409.038 340.368c-12.837-71.948-54.702-116.34-117.908-105.064-64.092 11.435-88.022 67.566-75.185 139.515 12.995 72.835 54.859 117.227 118.951 105.792 63.207-11.276 87.137-67.408 74.142-140.243z"/>
        <path fill="#28283C" d="M354.14 372.61c-.948.592-1.99 1.059-3.147 1.266-1.363.243-2.786.145-4.189-.238-1.552-.427-3.017-1.151-4.493-1.943l-9.139 5.501c5.622 1.178 10.18 3.883 12.774 7.784l11.931-7.97a26.032 26.032 0 0 0-3.737-4.4zM295.368 384.715l-.988-.809-3.092-2.756-2.919-2.575c-2.354 2.953-4.171 6.162-5.407 9.479l12.706 7.796.207-.811c.391-2.533 1.512-4.914 3.159-7.108l-3.666-3.216z" opacity=".5"/>
        <path fill="#28283C" d="M285.597 281.89c.041.626-.431 1.133-.975 1.23l-.205.036-4.913.033c-.706-.015-1.224-.556-1.197-1.194.014-.707.554-1.225 1.192-1.198l4.913-.032c.613-.11 1.131.431 1.185 1.125zm-7.223-5.818l4.836-.863a1.24 1.24 0 0 0 1.007-1.446 1.24 1.24 0 0 0-1.445-1.009l-4.836.863a1.241 1.241 0 0 0-1.007 1.446c.19.67.764 1.13 1.445 1.009zm-6.58-1.43c.273-.049.465-.153.645-.326l3.371-3.557c.472-.506.474-1.281-.032-1.754-.506-.472-1.279-.475-1.751.031l-3.371 3.557c-.472.507-.475 1.281.031 1.754.321.224.767.356 1.107.295zm8.997 12.609c-.65-.095-1.282.3-1.433 1.03l-.637 3.914c-.095.65.299 1.283 1.029 1.435.148.043.285.019.421-.005a1.242 1.242 0 0 0 1.012-1.025l.637-3.914c.095-.65-.38-1.339-1.029-1.435zm3.888 15.491l6.456 1.523c.148.044.353.007.489-.017.477-.085.837-.431.956-.945a1.192 1.192 0 0 0-.893-1.459l-6.456-1.522c-.662-.164-1.294.231-1.457.893-.151.731.255 1.432.905 1.527zm-12.641-16.884a1.242 1.242 0 0 0 1.007-1.447l-.815-4.569a1.242 1.242 0 0 0-1.445-1.009 1.24 1.24 0 0 0-1.007 1.446l.815 4.57c.122.682.764 1.13 1.445 1.009zm27.272 10.263c.136-.024.217.032.353.007.545-.097.961-.523 1-1.093l.372-4.218c.094-.65-.436-1.259-1.085-1.354-.65-.096-1.258.435-1.353 1.085l-.372 4.219c-.082.718.448 1.327 1.085 1.354zm3.164-10.627l4.427-.79a1.24 1.24 0 0 0 1.007-1.446 1.24 1.24 0 0 0-1.445-1.009l-4.427.79a1.241 1.241 0 0 0-1.007 1.446c.122.682.764 1.13 1.445 1.009zm3.846-4.838a1.32 1.32 0 0 0 1.038.307c.273-.048.533-.165.701-.406.472-.507.406-1.269-.1-1.742l-4.104-3.701c-.506-.472-1.267-.407-1.739.1-.472.506-.406 1.268.1 1.741l4.104 3.701zm-39.784 39.749l4.449.121.204-.036c.545-.098 1.017-.604.988-1.162a1.208 1.208 0 0 0-1.209-1.262l-4.449-.121a1.205 1.205 0 0 0-1.26 1.21c.121.682.639 1.223 1.277 1.25zm-1.077-26.126l4.914-.032.204-.036c.545-.098 1.017-.604.975-1.23.015-.706-.572-1.235-1.197-1.194l-4.913.033c-.706-.015-1.234.571-1.192 1.197a1.206 1.206 0 0 0 1.209 1.262zm-.379 10.482a1.24 1.24 0 0 0 1.007-1.446l-.864-4.842a1.242 1.242 0 0 0-1.445-1.009 1.242 1.242 0 0 0-1.007 1.447l.864 4.842a1.24 1.24 0 0 0 1.445 1.008zm13.324 8.108c.34-.061.656-.258.88-.579l2.775-4.928c.312-.619.11-1.357-.44-1.681-.618-.312-1.355-.11-1.678.44l-2.776 4.928c-.311.619-.109 1.357.441 1.681.241.168.525.188.798.139zM383.75 427.493l.718 4.023a1.242 1.242 0 0 1-1.007 1.447l-33.442 5.966a1.24 1.24 0 0 1-1.445-1.009l-.706-3.955-.012-.068-2.664-14.936a1.24 1.24 0 0 1 1.007-1.446l1.294-.231-.363-4.791-1.72-.185c-.365-.076-.742-.22-.951-.605a1.533 1.533 0 0 1-.195-1.091l.076-.365c1.021-4.123 3.219-12.678.886-20.636-1.672-5.823-7.607-9.549-15.625-10.371l-19.722 11.963c-.701.407-1.482.757-2.299.903-1.975.352-3.972-.206-5.546-1.544l-1.08-.933c-1.859 2.583-2.827 5.43-2.644 8.423.631 8.262 5.584 15.541 7.968 19.056l.197.317c.197.316.27.726.195 1.091-.076.365-.367.699-.684.896l-1.481.757 1.316 4.62 1.294-.231a1.241 1.241 0 0 1 1.445 1.009l2.665 14.935.012.069.706 3.955a1.24 1.24 0 0 1-1.007 1.446l-33.442 5.967a1.24 1.24 0 0 1-1.445-1.009l-.718-4.023c-.455-2.945 2.257-5.47 10.06-9.395 6.254-3.157 7.852-9.564 7.84-9.632.119-.514.479-.86 1.024-.957l.817-.146-.645-1.644-1.81.886c-.136.024-.26.117-.328.129a1.444 1.444 0 0 1-1.187-.351c-6.422-6.454-10.828-14.605-12.228-22.448-1.618-9.07 1.104-18.633 7.44-26.448l-3-2.632c-1.384 1.303-2.804 2.401-4.329 3.306-.961.523-1.946.91-2.968 1.092-3.337.596-6.527-.735-8.517-3.617-2.07-2.938-2.296-5.783-.725-11.552a16.42 16.42 0 0 0 .522-2.978c-.012-.068.032-.217.02-.285l-5.252-4.622a1.047 1.047 0 0 1-.275-1.147c.143-.378.584-.667 1.017-.604l3.483.223c-1-2.847-1.453-6.567-.059-10.967-2.107-1.172-7.104-4.362-8.775-10.186-1.102-3.814-.582-7.988 1.505-12.442-1.168-.636-4.194-2.63-5.413-6.705-1.372-4.54.099-10.08 4.314-16.391 4.874-7.344 6.788-13.948 5.642-19.584-1.194-5.909-5.413-8.675-5.493-8.731a1.288 1.288 0 0 1-.596-1.371c.119-.514.535-.94 1.068-1.105 1.021-.183 25.308-5.079 36.269 4.365l.081.056c4.609-1.737 13.534-.163 18.891 4.652 2.425 2.171 4.958 5.73 5.053 10.991 7.366 1.5 18.851 7.966 20.754 22.966l1.352-3.056c.212-.389.584-.667 1.017-.603.433.063.834.344.907.753l4.828 19.968c6.259 5.146 10.709 13.148 12.432 22.41 1.545 8.662.028 17.095-3.606 21.543-.112.161-.236.253-.348.414 4.843 4.695 8.074 10.593 9.218 17.003 1.399 7.843.016 17.027-3.71 25.291-.212.39-.584.667-.993.74-.136.024-.272.049-.353-.007l-2.004-.206-.036 1.766.817-.146a1.28 1.28 0 0 1 1.292.544c.012.068 3.739 5.596 10.686 6.326 8.711.768 12.197 2.187 12.72 5.12zm-35.032-96.699l5.854 24.147c.246.59.516 1.316.959 2.222.953 1.8 1.642 3.296 2.033 4.703.754-3.653.885-8.039.014-12.528-1.258-7.445-4.438-13.845-8.86-18.544zm-4.672 25.814c-.686-.3-1.131-.431-1.471-.371-.205.037-.329.129-.36.346-.243.606.182 1.023 1.158 1.764 1.056.796 3.476 2.546 3.476 2.546s-4.401-1.818-5.921-2.462c-.457-.2-.822-.276-1.095-.227-.204.037-.396.141-.428.358-.199.458-.022 1.059 1.01 1.72a501.642 501.642 0 0 1 5.262 3.494c-.915-.4-3.944-1.618-5.452-2.194-.377-.144-.661-.163-.866-.127-.272.049-.384.21-.496.37-.143.378.034.979.689 1.496 1.654 1.394 3.982 3.019 5.334 3.904 0 0-3.108-1.275-3.554-1.407-.377-.144-.742-.22-1.014-.171-.204.037-.328.129-.428.358-.187.526.207 1.159 1.009 1.72 1.618 1.189 3.922 2.678 6.673 3.524a6.663 6.663 0 0 0 3.051.159c2.043-.364 3.699-1.715 4.517-3.831.873-2.197 1.033-4.055-1.804-9.319-1.501-2.899-1.403-4.324-2.238-4.667-.148-.044-.297-.088-.433-.064-.545.097-.795 1.057-.596 2.569.098.546.339 2.684.572 3.206-.012-.069-5.383-2.206-6.595-2.694zm-83.808-38.809c.279-.402.491-.791.759-1.261 5.701-8.617 13.82-14.71 21.015-20.075 8.74-6.556 15.631-11.655 14.21-18.439-.701-3.534-3.029-5.159-3.109-5.215l-.161-.112c-7.894-6.825-24.608-5.18-31.251-4.206a17.758 17.758 0 0 1 4.387 8.436c1.36 6.442-.717 13.709-6.039 21.695-3.712 5.588-5.044 10.33-3.954 14.076.912 3.144 3.284 4.621 4.143 5.101zm6.893 22.485c.853-1.912 2.048-3.884 3.651-5.929 3.585-4.722 10.364-9.661 17.515-14.877 11.313-8.281 24.171-17.753 27.056-27.978 1.626-5.85.434-10.563-3.485-14.015-4.437-3.994-11.253-5.17-15.055-4.421.832 1.118 1.588 2.601 2.009 4.567 1.782 8.408-6.09 14.316-15.202 21.149-7.002 5.26-14.874 11.168-20.363 19.395-3.376 5.106-4.449 9.731-3.298 13.818 1.348 4.404 5.282 7.15 7.172 8.291zm16.976 23.852c-.105-.193-.334-.293-.674-.232-.205.036-.465.153-.713.338a725.652 725.652 0 0 1-4.806 3.391s2.067-2.198 4.315-4.57c.819-.92.858-1.49.569-1.931-.185-.248-.334-.292-.606-.244-.272.049-.533.166-.905.443-1.309.937-5.166 3.737-5.166 3.737s1.919-2.243 2.794-3.243c.752-.908 1.088-1.39.706-1.956-.105-.192-.321-.224-.526-.187-.272.048-.725.27-1.221.64-1.06.752-5.811 4.062-5.811 4.062.039-.57-.134-2.72-.151-3.21-.144-1.593-.642-2.418-1.255-2.309a.616.616 0 0 0-.329.129c-.756.487-.284 1.951-1.067 5.046-1.491 5.825-.97 7.562.36 9.506 1.492 2.056 3.778 3.055 6.094 2.642a6.66 6.66 0 0 0 2.175-.81c2.486-1.429 4.454-3.398 5.721-4.962.64-.747.871-1.422.569-1.931-.173-.18-.321-.224-.594-.175-.272.048-.52.233-.836.431-.373.277-3.126 2.176-3.126 2.176 1.136-1.118 3.011-3.212 4.31-4.991.343-.836.438-1.486.173-1.79zm-6.185 83.505l.279 1.568 30.991-5.529-.28-1.569-30.99 5.53zm19.862-21.418l5.313-.948-1.046-3.894-5.182 2.472.915 2.37zm1.17-38.348l-10.665-9.356c-5.808 7.228-8.255 15.968-6.783 24.22 1.254 7.025 5.161 14.349 10.861 20.299l11.131-5.364c-2.674-3.956-7.194-11.171-7.757-19.445-.372-3.663.883-7.265 3.213-10.354zm21.889-62.452l4.256-9.626c.143-.377.584-.667 1.017-.604l10.518.657.443-1.064c.568-19.664-14.245-24.691-18.499-25.691-.102 1.003-.341 2.031-.647 3.071-3.135 11.184-16.365 20.934-28.05 29.492-7.027 5.124-13.614 9.959-16.976 14.358-4.101 5.376-5.713 10.519-4.645 15.325.251 1.011.545 1.873.895 2.655l3.985.274 4.256-9.626c.144-.377.584-.667 1.017-.603l10.518.656 4.257-9.625c.143-.378.583-.667 1.016-.604l10.779.54 4.256-9.626c.144-.377.584-.667 1.017-.604l10.587.645zm26.45 84.438l12.299 1.183c3.222-7.541 4.355-15.765 3.102-22.79-1.046-5.865-4.044-11.241-8.542-15.575-.948.591-1.989 1.058-3.147 1.265-1.363.243-2.786.145-4.189-.238-1.552-.427-3.017-1.151-4.493-1.943l-9.139 5.501c7.446 1.557 12.898 5.721 14.606 11.749 2.389 7.878.631 16.143-.497 20.848zm2.571 2.989l.365 4.016 5.313-.948.039-2.54-5.717-.528zm31.722 16.295l-30.991 5.53.28 1.568 30.99-5.529-.279-1.569z"/>
    </g>
    <defs>
        <clipPath id="a">
            <path fill="#fff" d="M0 0h164.423v208.836H0z" transform="rotate(15 -717.878 303.498) scale(1.00073)"/>
        </clipPath>
        <clipPath id="b">
            <path fill="#fff" d="M0 0h144v183H0z" transform="rotate(-30 160.97 -62.945) scale(1.00073)"/>
        </clipPath>
        <clipPath id="c">
            <path fill="#fff" d="M0 0h196v249H0z" transform="rotate(-10.116 1524.112 -970.44) scale(1.00073)"/>
        </clipPath>
    </defs>
</svg>
