<svg xmlns="http://www.w3.org/2000/svg" width="35" height="35" fill="none" viewBox="0 0 35 35">
    <path fill="#00D2C8" stroke="#00D2C8" d="M34.5 17.5c0 9.389-7.611 17-17 17s-17-7.611-17-17 7.611-17 17-17 17 7.611 17 17z"/>
    <path fill="#fff" d="M11.744 14.88c0-.912.448-1.568 1.456-1.568 1.056 0 1.68.72 1.712 2.032l1.712-.08c0-2.176-1.28-3.536-3.552-3.536-2.032 0-3.392 1.232-3.392 3.104 0 .64.16 1.12.368 1.568H8.912v1.168h1.76c.192.4.352.816.384 1.344a2.559 2.559 0 0 0-.992-.208c-1.104 0-1.888.688-1.888 1.712 0 1.12.8 1.776 1.872 1.776.88 0 1.568-.384 2.032-1.008.672.528 1.52 1.008 2.656 1.008 1.584 0 2.512-1.056 2.368-3.264l-1.44-.08c0 1.104-.336 1.6-1.28 1.6-.656 0-1.2-.272-1.728-.608.064-.304.096-.64.096-.992 0-.48-.08-.896-.208-1.28h1.728V16.4h-2.208c-.176-.464-.32-.944-.32-1.52zm-1.664 6.144c-.368 0-.656-.224-.656-.576 0-.4.24-.608.64-.608.288 0 .576.16.88.4-.16.496-.432.784-.864.784zM26.512 16.96c0-3.344-1.664-5.232-4.368-5.232-2.688 0-4.352 1.888-4.352 5.232 0 3.344 1.664 5.232 4.352 5.232 2.704 0 4.368-1.888 4.368-5.232zm-2.112 0c0 2.432-.688 3.616-2.256 3.616-1.552 0-2.24-1.184-2.24-3.616 0-2.432.688-3.616 2.24-3.616 1.568 0 2.256 1.184 2.256 3.616z"/>
</svg>
