<svg width="35" height="35" viewBox="0 0 35 35" fill="none" xmlns="http://www.w3.org/2000/svg">
<path d="M34.5 17.5C34.5 26.8888 26.8888 34.5 17.5 34.5C8.11116 34.5 0.5 26.8888 0.5 17.5C0.5 8.11116 8.11116 0.5 17.5 0.5C26.8888 0.5 34.5 8.11116 34.5 17.5Z" fill="#32C864" stroke="#32C864"/>
<path d="M20.5909 16.7143C21.8736 16.7143 22.9014 15.6614 22.9014 14.3571C22.9014 13.0529 21.8736 12 20.5909 12C19.3082 12 18.2727 13.0529 18.2727 14.3571C18.2727 15.6614 19.3082 16.7143 20.5909 16.7143ZM14.4091 16.7143C15.6918 16.7143 16.7195 15.6614 16.7195 14.3571C16.7195 13.0529 15.6918 12 14.4091 12C13.1264 12 12.0909 13.0529 12.0909 14.3571C12.0909 15.6614 13.1264 16.7143 14.4091 16.7143ZM14.4091 18.2857C12.6086 18.2857 9 19.205 9 21.0357V23H19.8182V21.0357C19.8182 19.205 16.2095 18.2857 14.4091 18.2857ZM20.5909 18.2857C20.3668 18.2857 20.1118 18.3014 19.8414 18.325C20.7377 18.985 21.3636 19.8729 21.3636 21.0357V23H26V21.0357C26 19.205 22.3914 18.2857 20.5909 18.2857Z" fill="white"/>
</svg>
