<svg xmlns="http://www.w3.org/2000/svg" xmlns:xlink="http://www.w3.org/1999/xlink" width="95" height="120" viewBox="0 0 95 120">
    <defs>
        <path id="a" d="M94.537 59.773C94.537 24.588 78.429 0 47.48 0 16.108 0 0 24.588 0 59.773 0 95.382 16.108 120 47.48 120c30.949 0 47.057-24.618 47.057-60.227z"/>
    </defs>
    <g fill="none" fill-rule="evenodd">
        <mask id="b" fill="#fff">
            <use xlink:href="#a"/>
        </mask>
        <use fill="#D7F0FA" fill-rule="nonzero" xlink:href="#a"/>
        <g fill="#000" fill-rule="nonzero" mask="url(#b)">
            <path d="M71.826 76.4c-.825-6.89-6.14-12.391-13.004-13.47l-5.108-.772a.768.768 0 0 1-.62-.617l-.206-2.006c-.052-.308.155-.617.413-.72 4.696-2.313 7.843-7.352 7.276-13.06-.62-6.118-5.47-11.003-11.56-11.672-7.895-.874-14.603 5.245-14.603 12.958 0 5.142 2.993 9.615 7.327 11.723.258.154.465.412.413.72l-.206 2.005a.768.768 0 0 1-.62.617l-5.934.926C28.995 64.06 24.041 69.15 23.32 75.578l-.31 2.468C22.906 79.074 23.68 80 24.712 80h45.566c1.032 0 1.858-.926 1.703-1.954l-.155-1.645z"/>
        </g>
    </g>
</svg>
