<svg width="284" height="234" viewBox="0 0 284 234" fill="none" xmlns="http://www.w3.org/2000/svg">
<path d="M41.6134 21.1082C41.6134 32.4329 32.4329 41.6134 21.1082 41.6134C9.78356 41.6134 0.603093 32.4329 0.603093 21.1082C0.603093 9.78356 9.78356 0.603093 21.1082 0.603093C32.4329 0.603093 41.6134 9.78356 41.6134 21.1082Z" fill="white" stroke="#00D2C8" stroke-width="1.20619"/>
<path d="M17.1278 16.6404H19.9744V28.2681H22.0732V12.9736H20.6981C20.1433 14.5658 19.2507 15.2895 17.1278 15.2895V16.6404Z" fill="#28283C"/>
<path d="M41.6134 87.4485C41.6134 98.7731 32.4329 107.954 21.1082 107.954C9.78356 107.954 0.603093 98.7731 0.603093 87.4485C0.603093 76.1238 9.78356 66.9433 21.1082 66.9433C32.4329 66.9433 41.6134 76.1238 41.6134 87.4485Z" fill="white" stroke="#00D2C8" stroke-width="1.20619"/>
<path d="M18.334 92.799L21.2047 90.4349C23.4 88.6256 25.74 86.5268 25.74 83.7767C25.74 81.1955 24.1237 79.1208 20.5775 79.1208C17.3449 79.1208 15.2462 81.1231 15.2462 84.2351C15.2462 84.6934 15.3186 85.1759 15.415 85.6584L17.4897 85.7549C17.3691 85.2965 17.3208 84.8382 17.3208 84.3798C17.3208 82.1604 18.4788 80.8336 20.5534 80.8336C22.5557 80.8336 23.5689 82.0881 23.5689 83.8732C23.5689 86.0926 21.7837 87.6365 19.3955 89.7112L15.1014 93.4021V94.6083H26.2707V92.799H18.334Z" fill="#28283C"/>
<path d="M41.6134 153.789C41.6134 165.113 32.4329 174.294 21.1082 174.294C9.78356 174.294 0.603093 165.113 0.603093 153.789C0.603093 142.464 9.78356 133.284 21.1082 133.284C32.4329 133.284 41.6134 142.464 41.6134 153.789Z" fill="white" stroke="#00D2C8" stroke-width="1.20619"/>
<path d="M24.2202 156.569C24.2202 158.378 22.8452 159.343 20.867 159.343C18.5753 159.343 17.1037 158.113 17.0555 155.7L15.005 155.604C15.005 158.981 17.2243 161.032 20.8429 161.032C24.1961 161.032 26.319 159.247 26.319 156.714C26.319 154.735 24.9198 153.336 23.0623 153.071C24.558 152.83 26.0054 151.503 26.0054 149.549C26.0054 146.992 24.1479 145.255 20.7947 145.255C17.3691 145.255 15.2703 147.547 15.2703 150.683L17.2967 150.755C17.2967 148.343 18.6235 146.943 20.7705 146.943C22.8693 146.943 23.9307 148.077 23.9307 149.718C23.9307 151.672 22.4592 152.323 20.867 152.323C20.1916 152.323 19.7573 152.299 19.4196 152.251V153.963C19.7815 153.915 20.2639 153.891 20.867 153.891C22.7728 153.891 24.2202 154.832 24.2202 156.569Z" fill="#28283C"/>
<line x1="21.1083" y1="41.0103" x2="21.1082" y2="66.3401" stroke="#00D2C8" stroke-width="1.20619" stroke-dasharray="3.62 0 3.62 3.62 0 3.62"/>
<line x1="21.1083" y1="108.557" x2="21.1082" y2="133.887" stroke="#00D2C8" stroke-width="1.20619" stroke-dasharray="3.62 0 3.62 3.62 0 3.62"/>
<line x1="21.1083" y1="173.691" x2="21.1082" y2="234" stroke="#00D2C8" stroke-width="1.20619" stroke-dasharray="3.62 0 3.62 3.62 0 3.62"/>
<rect x="57.8969" y="2.41235" width="104.938" height="15.6804" rx="2.41237" fill="#BEF0DC"/>
<rect x="57.8969" y="25.33" width="225.557" height="15.6804" rx="2.41237" fill="#BEF0DC"/>
<rect x="57.8969" y="68.7526" width="104.938" height="15.6804" rx="2.41237" fill="#BEF0DC"/>
<rect x="57.8969" y="91.6702" width="225.557" height="15.6804" rx="2.41237" fill="#BEF0DC"/>
<rect x="57.8969" y="132.68" width="104.938" height="15.6804" rx="2.41237" fill="#BEF0DC"/>
<rect x="57.8969" y="155.598" width="225.557" height="15.6804" rx="2.41237" fill="#BEF0DC"/>
</svg>
