<svg xmlns="http://www.w3.org/2000/svg" width="35" height="35" viewBox="0 0 35 35">
    <g fill="none" fill-rule="evenodd">
        <circle cx="17.5" cy="17.5" r="17" fill="#822D50" stroke="#822D50"/>
        <path fill="#FFF" fill-rule="nonzero" d="M23.95 21.983c-.235-1.947-1.754-3.502-3.715-3.807l-1.46-.218a.218.218 0 0 1-.177-.175l-.059-.566a.194.194 0 0 1 .118-.204c1.342-.654 2.241-2.078 2.08-3.69-.178-1.73-1.564-3.11-3.303-3.3-2.256-.246-4.173 1.483-4.173 3.662 0 1.454.855 2.718 2.094 3.314.073.043.132.116.118.203l-.06.567a.218.218 0 0 1-.176.174l-1.696.262c-1.828.29-3.243 1.729-3.45 3.545l-.088.698c-.03.29.191.552.486.552h13.02c.294 0 .53-.262.486-.552l-.045-.465z"/>
    </g>
</svg>
