<svg width="35" height="35" viewBox="0 0 35 35" fill="none" xmlns="http://www.w3.org/2000/svg">
<path d="M34.5 17.5C34.5 26.8888 26.8888 34.5 17.5 34.5C8.11116 34.5 0.5 26.8888 0.5 17.5C0.5 8.11116 8.11116 0.5 17.5 0.5C26.8888 0.5 34.5 8.11116 34.5 17.5Z" fill="#822D50" stroke="#822D50"/>
<path d="M17.5 16.5C19.5719 16.5 21.25 14.8219 21.25 12.75C21.25 10.6781 19.5719 9 17.5 9C15.4281 9 13.75 10.6781 13.75 12.75C13.75 14.8219 15.4281 16.5 17.5 16.5ZM17.5 18.375C14.9969 18.375 10 19.6312 10 22.125V24H25V22.125C25 19.6312 20.0031 18.375 17.5 18.375Z" fill="white"/>
</svg>
