<svg width="406" height="275" viewBox="0 0 406 275" fill="none" xmlns="http://www.w3.org/2000/svg">
<path d="M209.182 160.835C227 94.3362 209.003 39.7239 150.509 24.0505C91.196 8.15759 48.304 46.4547 30.4856 112.954C12.4477 180.272 30.4447 234.884 89.758 250.777C148.252 266.451 191.144 228.154 209.182 160.835Z" fill="#FADCDC"/>
<g opacity="0.5">
<path opacity="0.5" d="M100.588 155.652L97.5127 168.137C97.5127 168.137 112.64 172.191 112.928 171.119C113.215 170.048 115.552 159.054 115.552 159.054L100.588 155.652Z" fill="#28283C"/>
<path opacity="0.5" d="M144.031 151.35L129.444 151.833L123.692 156.912L127.221 172.99L144.116 171.707L144.031 151.35Z" fill="#28283C"/>
</g>
<path d="M102.063 104.503C100.944 105.149 99.9463 106.098 99.2134 107.32C98.0427 109.168 97.3255 111.34 97.1632 113.459C97.0223 115.245 97.979 116.717 99.5548 117.14C101.194 117.579 103.422 116.825 105.062 113.481C105.963 111.628 106.205 109.464 105.636 107.555C105.171 106.011 103.694 104.467 102.063 104.503Z" fill="#28283C"/>
<path d="M135.144 115.934C135.564 116.384 136.177 116.616 136.984 116.63C139.405 116.67 141.326 113.537 141.98 111.348C142.706 108.637 142.23 105.875 140.614 104.091C140.551 104.074 140.488 104.057 140.425 104.04C140.362 104.023 140.362 104.023 140.299 104.006C139.417 103.77 138.639 103.899 137.886 104.441C135.706 106.019 134.478 110.351 134.311 112.738C134.255 114.209 134.506 115.29 135.144 115.934Z" fill="#28283C"/>
<path d="M170.664 104.643C170.617 104.563 170.588 104.42 170.336 104.353C168.651 103.834 163.823 105.715 160.942 107.645C161.142 108.915 161.388 110.265 161.588 111.534C162.838 110.653 164.197 109.869 165.492 109.067C168.05 107.591 170.99 105.947 170.664 104.643Z" fill="#28283C"/>
<path d="M162.149 179.783L161.979 150.418C172.466 140.527 178.413 126.65 178.355 112.244C178.316 102.303 175.482 92.9635 170.565 85.0929C172.075 83.7412 173.086 81.9853 173.404 80.0437C173.857 77.5978 173.187 75.0539 171.454 72.6979C170.124 70.8551 167.725 69.4693 164.321 68.5573C162.367 68.0337 160.661 67.8467 160.14 67.7746C158.61 67.4323 156.42 67.7912 155.505 69.4379C147.101 63.7405 136.933 60.3403 126.024 60.4576C112.094 60.5081 99.0692 66.0033 89.2633 75.874C79.4573 85.7447 74.1242 98.8406 74.1748 112.771C74.17 116.823 74.657 120.804 75.5898 124.635C74.9887 124.609 74.4 124.789 73.9036 125.129C72.7678 125.838 72.1103 127.283 71.92 128.246C71.4348 129.805 69.6198 136.074 72.1082 139.646C73.2831 141.312 74.8623 142.478 76.6902 142.968C78.7703 143.525 81.1667 143.154 83.2908 142.034C85.1456 144.693 87.2401 147.213 89.5744 149.595C92.4545 152.461 95.5959 154.857 98.8847 156.954L93.7503 176.116C92.027 175.992 90.1777 175.834 88.2484 175.723L87.8533 175.684C87.2061 175.578 86.6129 176.027 86.507 176.675L85.8167 181.016L77.0054 181.628C77.0561 181.439 77.1236 181.186 77.1113 180.98C76.9943 180.409 76.5576 180.021 76.0195 180.012L70.181 179.867C69.9627 179.673 69.6644 179.526 69.3785 179.584L66.2595 179.627C65.5785 179.647 65.0944 180.193 65.1315 180.811L65.6724 213.586C65.651 213.918 65.7894 214.158 66.0539 214.431C66.2261 214.545 66.3983 214.659 66.5874 214.709C66.7135 214.743 66.7765 214.76 66.9194 214.731L69.9124 214.654C70.1814 214.659 70.4505 214.663 70.5765 214.697C71.0515 214.689 71.4511 214.459 71.6324 214.034L71.9105 213.501C73.7647 209.606 77.1151 202.397 78.4448 197.687C78.563 197.246 78.4753 196.817 78.1477 196.526C78.1477 196.526 78.1477 196.526 78.0847 196.509C78.2153 196.274 78.329 196.102 78.4596 195.867C78.8559 194.892 81.0846 194.138 83.83 193.725L83.7579 194.246C83.6735 194.561 83.795 194.864 83.9335 195.104C84.0719 195.344 84.3071 195.474 84.5593 195.542C84.6223 195.559 84.6223 195.559 84.6853 195.576C84.8114 195.609 86.2319 195.855 88.5224 196.131L88.0158 198.022C87.8469 198.652 88.216 199.292 88.8463 199.46L90.7373 199.967C90.1944 204.01 89.4175 206.91 88.671 208.939C88.4696 208.682 88.1882 208.472 87.8562 208.451C87.335 208.378 86.8217 208.781 86.6236 209.269L84.8683 214.811C84.6285 214.949 84.418 215.231 84.3504 215.483L83.5397 218.509C83.3708 219.139 83.74 219.778 84.3703 219.947L116.139 228.459C116.769 228.628 117.408 228.259 117.577 227.629L118.422 224.477C118.455 224.351 118.552 224.242 118.603 224.053C118.721 223.612 118.57 223.166 118.243 222.875L117.743 222.471C114.514 219.647 108.492 214.385 104.309 211.846C104.137 211.732 103.947 211.681 103.805 211.711C103.44 210.802 102.972 208.515 103.642 203.492L104.524 203.729C105.155 203.898 105.794 203.529 105.963 202.898L107.432 197.415C124.276 197.334 135.134 193.623 140.565 185.958C145.446 179.091 145.963 171.866 144.772 165.466L160.202 180.748C160.357 180.925 160.546 180.975 160.736 181.026C160.988 181.093 161.257 181.098 161.496 180.96C161.833 180.712 162.157 180.258 162.149 179.783ZM68.0194 212.391L67.4884 181.847L68.2955 181.861C68.4155 186.96 69.0092 207.184 69.0954 212.409L68.0194 212.391ZM76.3424 194.691C73.8866 192.007 73.1112 190.11 73.1149 187.071C73.1206 185.789 73.5169 184.814 74.1315 184.033L74.1946 184.05L85.4946 183.227L85.1263 185.357L84.1735 191.182C80.9993 191.683 77.4378 192.62 76.3424 194.691ZM89.0843 193.782C87.8991 193.667 86.8737 193.46 86.2096 193.417L88.7165 178.01C90.3137 178.1 91.768 178.219 93.2222 178.339L89.0843 193.782V193.782ZM159.801 70.0483C159.801 70.0483 167.135 70.6624 169.611 74.0282C172.473 77.9703 171.283 81.9075 168.065 84.0853C168.065 84.0853 163.934 86.8967 162.96 85.4873C162.557 84.974 162.961 84.4743 163.883 83.3026C162.193 84.0656 160.59 85.2575 159.801 84.1679C159.305 83.4947 160.564 82.0754 161.275 81.1851C161.275 81.1851 157.333 84.0472 156.452 82.7977C155.663 81.7081 157.249 80.5792 158.789 79.3705C156.926 80.0198 156.136 79.9432 155.733 79.4299C155.146 78.5969 156.85 77.0268 157.763 76.3932L161.62 73.8463C154.554 70.4666 158.523 69.7736 159.801 70.0483ZM146.576 105.283C147.114 105.292 147.534 105.742 147.588 106.297C147.61 108.735 147.822 111.224 148.336 113.591C148.587 114.672 148.855 115.689 149.539 116.413C150.114 117.04 151.312 117.361 151.808 117.021C154.336 115.402 153.593 104.056 153.107 102.844C152.91 102.319 153.125 101.768 153.588 101.554C154.051 101.341 154.681 101.51 154.878 102.035C155.658 103.663 156.681 116.233 152.903 118.733C152.087 119.258 151.137 119.273 150.192 119.02C149.372 118.801 148.604 118.392 148.075 117.845C147.063 116.831 146.69 115.447 146.381 114.081C145.837 111.571 145.534 108.922 145.562 106.295C145.571 105.757 146.038 105.274 146.576 105.283ZM136.693 102.837C137.942 101.956 139.435 101.68 140.931 102.149C140.931 102.149 140.931 102.149 140.994 102.166C141.263 102.17 141.578 102.255 141.796 102.448C144.084 104.75 144.862 108.404 143.916 111.934C143.19 114.644 140.684 118.702 136.981 118.655C136.506 118.663 136.047 118.608 135.669 118.507C134.913 118.304 134.207 117.912 133.695 117.302C132.7 116.225 132.252 114.619 132.364 112.689C132.489 109.953 133.777 104.894 136.693 102.837ZM124.081 174.109C121.816 177.015 117.578 177.704 112.69 177.543L116.405 163.675C118.662 164.077 121.016 164.37 123.34 164.52C125.021 168.078 125.816 171.669 124.081 174.109ZM79.7223 106.691C79.3486 106.321 79.3284 105.64 79.7618 105.283C80.3888 104.708 81.0158 104.133 81.7351 103.717C81.7228 103.511 81.6643 103.225 81.6519 103.019C81.5979 102.465 81.939 101.948 82.4939 101.894C82.9858 101.823 83.4394 102.147 83.5733 102.656C84.8982 101.998 86.3154 101.499 87.7911 101.287C89.7755 100.94 90.6827 101.588 91.1149 102.245C91.9038 103.334 91.5615 104.864 90.2062 106.393C89.6253 107.048 88.9814 107.686 88.3375 108.324C88.9892 108.161 89.6241 108.061 90.3389 107.914C90.6878 107.873 91.3226 107.773 91.9192 108.068C92.4696 108.283 92.8264 108.716 92.9434 109.288C93.2281 110.242 92.861 111.36 92.4062 112.049C90.372 115.355 87.1537 117.532 84.1921 119.509C84.1707 119.841 84.1324 120.236 84.174 120.585C84.1649 121.123 83.6516 121.526 83.1136 121.517C83.0506 121.5 82.9875 121.483 82.9245 121.466C82.4833 121.348 82.1265 120.914 82.1817 120.456C82.2155 120.33 82.1862 120.187 82.2369 119.998C81.7034 119.72 81.5402 119.068 81.8183 118.535C81.9489 118.3 82.1256 118.144 82.3654 118.006C82.4094 116.329 82.4534 114.651 82.4176 113.02L82.3376 113.067C81.8581 113.343 81.2908 113.191 80.9971 112.775C80.7202 112.295 80.8092 111.711 81.2887 111.434C81.3855 111.325 81.5285 111.296 81.6253 111.187C81.8651 111.048 82.1217 110.847 82.3615 110.709C82.2918 109.204 82.1591 107.682 82.0264 106.16C81.7529 106.424 81.4332 106.609 81.1597 106.873C80.7601 107.104 80.159 107.078 79.7223 106.691ZM83.4666 139.109C80.4037 141.463 76.4438 141.618 74.0938 138.286C72.0376 135.371 74.2522 128.871 74.2522 128.871C74.4471 127.639 76.5274 124.413 76.9355 131.211L80.5916 128.407C81.5215 127.711 83.5026 126.62 83.9978 127.293C84.3377 127.79 84.0889 128.466 82.8134 129.948C84.4457 128.9 86.0317 127.771 86.6654 128.684C87.4543 129.773 83.4661 132.555 83.4661 132.555C84.5174 132.162 86.225 131.335 86.6741 131.929C87.3077 132.842 85.7217 133.97 84.3539 135.293C85.7081 134.778 86.3137 134.534 86.6074 134.951C87.4425 136.121 83.4666 139.109 83.4666 139.109ZM106.834 114.428C104.639 118.84 101.3 119.701 99.0309 119.093C96.5727 118.435 94.9824 116.049 95.1706 113.33C95.3543 110.88 96.1559 108.392 97.5203 106.326C98.4468 104.885 99.6547 103.655 100.933 102.916C101.047 102.744 101.27 102.669 101.413 102.64C102.115 102.287 102.864 102.015 103.642 101.886C104.197 101.832 104.713 102.173 104.767 102.728C104.78 102.934 104.792 103.14 104.661 103.375C106.056 104.221 107.029 105.631 107.511 107.111C108.248 109.403 107.934 112.088 106.834 114.428ZM111.401 105.451C111.393 104.976 111.701 104.586 112.067 104.481C112.512 104.33 112.937 104.511 113.184 104.848L120.238 115.588C119.873 110.896 119.509 106.205 119.208 101.53C119.154 100.975 119.621 100.492 120.159 100.501C120.714 100.447 121.197 100.915 121.188 101.453C121.505 107.077 121.948 112.736 122.47 118.348C122.495 118.76 122.251 119.167 121.931 119.352C121.229 119.704 120.38 119.342 119.62 118.395L113.524 109.127C113.722 112.423 114.069 117.178 114.613 119.688C114.746 120.197 114.388 120.776 113.88 120.91C113.737 120.94 113.531 120.952 113.405 120.918C113.09 120.834 112.762 120.543 112.657 120.177C111.767 115.683 111.426 105.863 111.401 105.451ZM90.5428 197.415L101.082 158.083C105.144 160.32 109.547 162.04 114.056 163.114L103.906 200.996L90.5428 197.415V197.415ZM115.853 224.735L115.566 225.806L86.0668 217.902L86.2694 217.146C91.1398 218.383 110.73 223.43 115.853 224.735ZM101.622 212.544C97.9163 214.524 95.8057 214.837 92.6541 213.992C91.3304 213.638 90.4109 212.783 89.8234 211.95C90.8558 209.862 92.0875 206.274 92.9434 200.558L101.327 202.805C100.555 208.205 100.997 211.093 101.622 212.544ZM120.123 133.663C118.841 133.657 117.484 133.428 116.223 133.091C113.45 132.347 111.097 131.042 110.447 130.192C110.09 129.758 110.196 129.111 110.676 128.834C111.109 128.477 111.756 128.583 112.05 129C112.436 129.576 116.326 131.699 120.126 131.637C122.232 131.593 123.763 130.922 124.735 129.561C127.944 125.152 127.74 112.802 125.944 102.862C125.827 102.29 126.231 101.791 126.723 101.72C127.295 101.603 127.795 102.007 127.866 102.499C129.239 110.231 130.512 124.894 126.314 130.728C124.984 132.668 122.83 133.645 120.123 133.663ZM138.596 184.484C133.716 191.351 123.669 194.807 107.965 194.923L112.002 179.858C117.823 180.067 122.948 179.346 125.941 175.486C128.097 172.483 127.547 168.485 125.887 164.595C126.093 164.582 126.362 164.587 126.551 164.638C131.696 164.598 136.695 163.843 141.548 162.373C143.575 168.929 143.914 176.991 138.596 184.484ZM163.874 126.199C163.731 126.229 163.525 126.241 163.336 126.19C163.021 126.106 162.756 125.832 162.652 125.466C161.225 119.95 160.038 114.295 159.074 108.564C158.885 108.513 158.632 108.446 158.477 108.269C158.12 107.836 158.146 107.235 158.58 106.878C158.66 106.832 158.676 106.769 158.739 106.786C158.681 106.5 158.639 106.151 158.581 105.865C158.527 105.31 158.868 104.793 159.423 104.739C159.978 104.685 160.431 105.01 160.565 105.518C163.636 103.639 168.355 101.66 170.905 102.479C171.771 102.778 172.363 103.342 172.538 104.2C173.237 106.887 169.944 108.842 166.507 110.826C165.531 111.443 164.509 111.98 163.533 112.596C166.643 113.092 169.787 113.461 172.901 113.688C173.439 113.697 173.842 114.21 173.833 114.748C173.824 115.286 173.311 115.689 172.773 115.68C169.183 115.461 165.581 115.037 162.047 114.36C162.778 117.934 163.59 121.462 164.481 124.943C164.741 125.486 164.383 126.065 163.874 126.199Z" fill="#28283C"/>
<path d="M80.9286 123.632L77.4486 105.607L83.2407 95.3367C83.2407 95.3367 121.578 94.4621 122.523 94.7154C123.469 94.9688 155.604 98.5802 156.348 98.5769C157.155 98.5905 172.517 100.004 172.517 100.004C172.517 100.004 176.948 106.664 176.775 107.563C176.601 108.463 176.153 118.206 176.153 118.206L172.58 128.26L165.491 133.792L142.483 138.977L125.879 138.919L110.696 135.324L80.9286 123.632Z" fill="#28283C"/>
<path d="M94.0265 94.9158C94.3814 103.928 94.5765 113.034 95.6754 122.043C95.8127 123.296 97.7757 123.281 97.6385 122.028C96.5227 113.082 96.3276 103.977 95.9896 94.9013C95.9154 93.6654 93.9692 93.6168 94.0265 94.9158Z" fill="#FADCDB"/>
<path d="M96.58 111.612C100.233 111.848 103.885 112.083 107.555 112.256C108.82 112.325 108.805 110.362 107.54 110.293C103.871 110.12 100.201 109.948 96.5656 109.649C95.3004 109.58 95.3779 111.56 96.58 111.612Z" fill="#FADCDB"/>
<path d="M109.222 98.718C107.426 106.682 106.958 114.731 107.819 122.865C107.956 124.118 109.919 124.104 109.782 122.851C108.997 114.939 109.431 107.016 111.113 99.2247C111.434 98.0271 109.543 97.5204 109.222 98.718Z" fill="#FADCDB"/>
<path d="M118.436 95.8497C116.635 100.299 114.776 105.476 116.977 110.119C118.872 114.14 122.537 114.581 125.005 110.919C127.569 107.147 130.019 100.777 128.259 96.2524C126.696 92.253 122.038 92.4912 119.181 94.8333C118.171 95.5761 119.557 96.9607 120.566 96.2179C123.726 93.7543 126.821 96.0699 126.843 99.521C126.866 100.946 126.557 102.35 126.203 103.673C125.831 105.06 125.208 106.379 124.601 107.635C123.796 109.379 123.311 110.938 121.221 110.918C115.08 110.894 119.138 99.2806 120.344 96.2933C120.837 95.2094 118.946 94.7027 118.436 95.8497Z" fill="#FADCDB"/>
<path d="M134.913 99.6567C132.903 107.158 130.847 114.578 128.9 122.096C128.444 123.798 128.224 124.617 129.871 125.532C132.711 127.036 136.259 126.905 139.284 127.716C140.482 128.037 140.989 126.146 139.791 125.825C137.585 125.234 134.781 125.361 132.722 124.471C130.302 123.418 130.989 122.115 131.513 120.161C131.85 118.901 132.188 117.64 132.509 116.443C133.962 111.022 135.397 105.664 136.85 100.243C137.124 98.9658 135.25 98.396 134.913 99.6567Z" fill="#FADCDB"/>
<path d="M142.048 119.674C144.234 115.801 146.404 111.991 148.653 108.135C149.533 106.614 150.493 105.047 151.655 103.737C152.026 103.364 153.381 101.835 153.902 101.907C155.26 102.136 154.739 104.834 154.68 105.561C153.82 114.316 153.646 122.782 154.005 131.525C154.08 132.761 156.026 132.81 155.968 131.511C155.694 125.222 155.483 118.95 155.89 112.641C156.074 110.191 158.434 101.635 155.821 99.7868C153.663 98.2626 150.304 102.227 149.205 103.554C145.694 108.085 143.194 113.631 140.309 118.6C139.719 119.793 141.412 120.787 142.048 119.674Z" fill="#FADCDB"/>
<path d="M145.176 114.296C148.289 115.536 151.453 116.586 154.764 117.338C155.979 117.596 156.485 115.705 155.271 115.448C152.023 114.712 148.842 113.725 145.682 112.405C144.535 111.895 144.029 113.786 145.176 114.296Z" fill="#FADCDB"/>
<path d="M393.394 99.7451L318.136 118.767L321.759 126.014L244.236 164.813L250.35 188.968L406 149.716L393.394 99.7451Z" fill="#FADCDC"/>
<path d="M298.729 80L192.001 133.405L215.039 179.444L321.766 126.039L298.729 80Z" fill="#FAAA1E"/>
<path d="M232.989 162.17C223.478 166.925 212.684 163.679 207.627 153.564C202.569 143.449 206.419 132.882 215.93 128.126C225.516 123.295 236.311 126.616 241.368 136.731C246.426 146.846 242.576 157.414 232.989 162.17ZM219.402 135.071C214.118 137.713 212.684 143.449 215.779 149.564C218.798 155.678 224.233 157.942 229.517 155.3C234.877 152.583 236.235 146.922 233.216 140.807C230.197 134.693 224.762 132.353 219.402 135.071Z" fill="#822D50"/>
<path d="M268.392 127.296L258.579 107.594L265.826 103.971L282.281 136.807L275.941 139.977L250.276 126.616L260.693 147.526L253.371 151.149L236.99 118.389L244.614 114.614L268.392 127.296Z" fill="#822D50"/>
<path d="M312.853 121.483L287.566 134.165L271.11 101.329L295.944 88.874L299.19 95.3657L282.131 103.895L285.377 110.387L298.662 103.745L301.832 110.161L288.547 116.803L292.019 123.748L309.607 114.992L312.853 121.483Z" fill="#822D50"/>
<path d="M270.204 151.829V163.001L270.053 163.076L265.222 154.32L258.503 157.717L268.845 175.908L276.167 174.097L276.771 148.583L270.204 151.829Z" fill="#822D50"/>
<path d="M249.068 162.472L253.446 179.833L261.296 177.795L256.541 158.698L249.068 162.472Z" fill="#822D50"/>
<path d="M364.636 142.997C363.201 138.921 360.484 137.26 356.483 137.487C360.71 135.826 363.201 131.674 361.843 126.466C360.106 119.597 354.521 116.502 345.311 118.766L328.101 123.069L337.084 158.622L345.538 156.509L342.443 144.129L349.614 142.318C353.162 141.412 355.275 142.242 356.634 146.167C357.842 149.866 358.899 152.055 359.88 152.885L368.561 150.696C367.051 149.791 366.447 148.13 364.636 142.997ZM348.18 135.75L340.782 137.637L338.367 127.9L345.764 126.013C350.218 124.881 352.86 126.088 353.69 129.259C354.521 132.806 352.633 134.618 348.18 135.75Z" fill="#822D50"/>
<path d="M277.601 148.13L283.64 172.21L292.245 170.021L285.678 144.129L277.601 148.13Z" fill="#822D50"/>
<path d="M398.378 135.75L379.355 140.581L377.393 133.033L391.81 129.41L390.074 122.465L375.657 126.088L373.92 119.144L392.414 114.464L390.678 107.368L363.73 114.162L372.713 149.791L400.114 142.846L398.378 135.75Z" fill="#822D50"/>
<path d="M316.778 128.504L291.868 140.959C291.038 144.054 290.962 147.526 291.868 151.149C294.661 162.095 304.399 167.605 314.74 165.039C325.157 162.397 331.12 152.885 328.403 141.94C326.742 135.222 322.364 130.542 316.778 128.504ZM312.928 157.566C307.192 159 302.436 155.603 300.7 148.96C299.039 142.318 301.606 137.109 307.343 135.599C313.155 134.165 317.91 137.562 319.571 144.205C321.307 150.772 318.741 156.056 312.928 157.566Z" fill="#822D50"/>
</svg>
