<svg width="35" height="35" viewBox="0 0 35 35" fill="none" xmlns="http://www.w3.org/2000/svg">
<path d="M34.5 17.5C34.5 26.8888 26.8888 34.5 17.5 34.5C8.11116 34.5 0.5 26.8888 0.5 17.5C0.5 8.11116 8.11116 0.5 17.5 0.5C26.8888 0.5 34.5 8.11116 34.5 17.5Z" fill="#822D50" stroke="#822D50"/>
<path d="M11 23H13.5455V15.2H11V23ZM25 15.85C25 15.135 24.4273 14.55 23.7273 14.55H19.7118L20.3164 11.5795L20.3355 11.3715C20.3355 11.105 20.2273 10.858 20.0555 10.6825L19.3809 10L15.1936 14.2835C14.9582 14.5175 14.8182 14.8425 14.8182 15.2V21.7C14.8182 22.415 15.3909 23 16.0909 23H21.8182C22.3464 23 22.7982 22.675 22.9891 22.207L24.9109 17.6245C24.9682 17.475 25 17.319 25 17.15V15.85Z" fill="white"/>
</svg>
