<svg xmlns="http://www.w3.org/2000/svg" width="20" height="20" viewBox="0 0 20 20">
    <path fill="#28283C" fill-rule="nonzero" d="M17.914 6.05v.49c0 5.399-4.172 11.656-11.656 11.656-2.332 0-4.418-.736-6.258-1.84h.982c1.963 0 3.68-.614 5.03-1.718-1.84 0-3.313-1.227-3.803-2.822.245 0 .49.123.736.123.368 0 .736 0 1.104-.123C2.21 11.448.736 9.73.736 7.766c.614.369 1.227.492 1.84.492C1.597 7.52.86 6.172.86 4.822c0-.736.245-1.472.613-2.086C3.436 5.19 6.503 6.908 9.94 7.031c-.123-.246-.123-.614-.123-.982C9.816 3.84 11.656 2 13.865 2c1.227 0 2.209.49 2.945 1.35a5.952 5.952 0 0 0 2.577-.982c-.369.982-.982 1.718-1.841 2.209.982-.123 1.718-.368 2.454-.614-.49.736-1.227 1.473-2.086 2.086z"/>
</svg>
