<?xml version="1.0" encoding="UTF-8"?>
<svg width="500px" height="394px" viewBox="0 0 500 394" version="1.1" xmlns="http://www.w3.org/2000/svg" xmlns:xlink="http://www.w3.org/1999/xlink">
    <!-- Generator: Sketch 50.2 (55047) - http://www.bohemiancoding.com/sketch -->
    <title>OBBY_LOGO_RGB_RED</title>
    <desc>Created with Sketch.</desc>
    <defs></defs>
    <g id="OBBY_LOGO_RGB_RED" stroke="none" stroke-width="1" fill="none" fill-rule="evenodd">
        <g id="OBBY_LOGO_RGB_COLOURWAYS_10" fill-rule="nonzero">
            <path d="M249.1,0 C102.5,0 0,67.1 0,196.1 C0,326.9 102.5,394 249.1,394 C397.5,394 500,326.9 500,196.1 C500,67.1 397.5,0 249.1,0 Z" id="Shape" fill="#822D50"></path>
            <g id="Group" transform="translate(64.000000, 124.000000)" fill="#D7F0FA">
                <path d="M46.3,33 C18.9,33 0.6,53.3 0.6,77.6 C0.6,104.9 20.4,119.6 44.9,119.6 C72.3,119.6 90.6,99.3 90.6,75 C90.6,47.7 70.8,33 46.3,33 Z M46.4,106.3 C36.1,106.3 30.4,94 30.4,72.5 C30.4,54.5 36.4,46.2 44.6,46.2 C54.9,46.2 60.8,58.5 60.8,80 C60.8,98 54.6,106.3 46.4,106.3 Z" id="Shape"></path>
                <path d="M154.8,33 C144.3,33 135.4,38.7 131.1,49 L131.1,0.3 L103.7,3.6 L103.7,82.5 C103.7,109.8 118.4,119.6 142.9,119.6 C171.6,119.6 187,99.8 187,74 C187,48.7 172.1,33 154.8,33 Z M143.9,106.3 C135.6,106.3 131,99.6 131,84.1 L131,52.9 C132.6,52.1 134.6,51.4 138,51.4 C150.9,51.4 157.6,66.6 157.6,83.1 C157.6,100.4 150.4,106.3 143.9,106.3 Z" id="Shape"></path>
                <path d="M251.2,33 C240.7,33 231.8,38.7 227.5,49 L227.5,0.3 L200.1,3.6 L200.1,82.5 C200.1,109.8 214.8,119.6 239.3,119.6 C268,119.6 283.4,99.8 283.4,74 C283.4,48.7 268.5,33 251.2,33 Z M240.4,106.3 C232.1,106.3 227.5,99.6 227.5,84.1 L227.5,52.9 C229.1,52.1 231.1,51.4 234.5,51.4 C247.4,51.4 254.1,66.6 254.1,83.1 C254.1,100.4 246.9,106.3 240.4,106.3 Z" id="Shape"></path>
                <polygon id="Shape" points="353.8 34.6 334.8 81.3 317.2 34.6 286.6 34.6 319.1 114.8 304.3 145.7 321.9 145.7 371.4 34.6"></polygon>
            </g>
        </g>
    </g>
</svg>